<svg xmlns="http://www.w3.org/2000/svg" width="24" height="24" fill="none" viewBox="0 0 24 24">
  <path fill="#77889A" fill-rule="evenodd" d="M14.37 4.683a.625.625 0 01.884 0l4.063 4.063a.625.625 0 010 .883l-9.688 9.688a.625.625 0 01-.441.183H5.125a.625.625 0 01-.625-.625v-4.063c0-.165.066-.324.183-.441l9.688-9.688zM5.75 15.071v3.179h3.179l9.062-9.063-3.178-3.178L5.75 15.07z" clip-rule="evenodd"/>
  <path fill="#77889A" fill-rule="evenodd" d="M12.808 6.87a.625.625 0 01.884 0l4.062 4.063c.075.075.13.168.16.27l.624 2.188a.625.625 0 01-.159.613l-2.812 2.813a.625.625 0 11-.884-.884l2.552-2.552-.479-1.679-3.948-3.948a.625.625 0 010-.883zm-7.794 7.483a.625.625 0 01.883.036l3.75 4.062a.625.625 0 11-.919.848l-3.75-4.063a.625.625 0 01.036-.883z" clip-rule="evenodd"/>
</svg>
