<svg xmlns="http://www.w3.org/2000/svg" width="32" height="32" viewBox="0 0 32 32">
  <path fill-rule="evenodd" d="M24.044 19.64v9.346a1 1 0 01-1.29.957l-6.06-1.846-7.109 1.857a1 1 0 01-.544-.011l-6.328-1.928a1 1 0 01-.71-.957V12.602a1 1 0 011.25-.969l6.066 1.56.283-.082c.217.645.492 1.262.819 1.846l-.088.025v12.71l5.383-1.406v-6.6a10.64 10.64 0 002 .61v6.022l4.328 1.318v-7.362c.694-.147 1.363-.36 2-.634zM4.004 13.89l4.328 1.113v12.632l-4.328-1.318V13.89z" clip-rule="evenodd"/>
  <path fill-rule="evenodd" d="M19.148 16.617c3.382 0 6.123-2.768 6.123-6.184 0-3.415-2.741-6.184-6.123-6.184s-6.124 2.769-6.124 6.184c0 3.416 2.742 6.184 6.124 6.184zm0 2.25c4.611 0 8.35-3.776 8.35-8.434 0-4.657-3.739-8.433-8.35-8.433-4.612 0-8.35 3.776-8.35 8.433 0 4.658 3.738 8.433 8.35 8.433z" clip-rule="evenodd"/>
  <path fill-rule="evenodd" d="M29.09 20.08a.988.988 0 01-1.406.084l-4.266-3.83 1.48-1.681 4.266 3.83c.41.368.447 1.004.082 1.418l-.157.179z" clip-rule="evenodd"/>
</svg>
