<svg width="32" height="32" viewBox="0 0 32 32" xmlns="http://www.w3.org/2000/svg">
<path fill-rule="evenodd" clip-rule="evenodd" d="M1.88235 0C2.92195 0 3.76471 0.842758 3.76471 1.88235V24.4706H30.1176C31.1572 24.4706 32 25.3133 32 26.3529C32 27.3925 31.1572 28.2353 30.1176 28.2353H1.88235C0.842758 28.2353 0 27.3925 0 26.3529V1.88235C0 0.842758 0.842758 0 1.88235 0Z" />
<path fill-rule="evenodd" clip-rule="evenodd" d="M30.4358 5.18916C31.2085 5.88461 31.2712 7.0748 30.5757 7.84753L22.1051 17.2593C21.5025 17.9289 20.51 18.0776 19.7375 17.6142L11.7637 12.8299L3.37444 23.736C2.74059 24.56 1.55876 24.7142 0.734756 24.0803C-0.089252 23.4464 -0.243404 22.2646 0.390448 21.4406L9.80221 9.20532C10.385 8.4477 11.4431 8.24713 12.2627 8.7389L20.3444 13.588L27.7774 5.32907C28.4729 4.55635 29.6631 4.49371 30.4358 5.18916Z" />
</svg>
