<svg xmlns="http://www.w3.org/2000/svg" width="32" height="32" viewBox="0 0 32 32">
  <path d="M20.476 8.015l-7.029-3.804a2.008 2.008 0 00-2.115.205L4 10.001V3a1 1 0 10-2 0v25a2 2 0 002 2h25a1 1 0 001-1V7.003a1 1 0 00-1.233-.973l-8.291 1.985zM28 20.21l-7.62 1.802-7.029-2.884a1.99 1.99 0 00-2.022.37L4 25.836V21.38l8.375-9.4 7.019 5.62a2.016 2.016 0 002.046.212l6.56-3.21v5.608zM12.524 5.985l7.03 3.804c.415.206.888.263 1.34.16L28 8.265v4.113l-7.381 3.642L13.6 10.4a1.99 1.99 0 00-2.688.264L4 18.384v-5.87l8.524-6.529zM4.55 28l8.069-7.011 7.029 2.884c.367.137.765.164 1.147.077L28 22.26V28H4.55z"/>
</svg>
