<svg xmlns="http://www.w3.org/2000/svg" width="32" height="32" viewBox="0 0 32 32">
  <path fill-rule="evenodd" d="M4.558 14.442a1 1 0 010-1.414l8.213-8.213a8 8 0 0111.314 0l1.1 1.1a8 8 0 010 11.314l-9.67 9.67a6.385 6.385 0 11-9.03-9.03l7.828-7.827a3.692 3.692 0 115.222 5.222l-5.994 5.994a1 1 0 01-1.414-1.414l5.994-5.994a1.693 1.693 0 00-2.394-2.393L7.9 19.284a4.385 4.385 0 106.2 6.201l9.671-9.67a6 6 0 000-8.486l-1.1-1.1a6 6 0 00-8.485 0l-8.214 8.213a1 1 0 01-1.414 0z" clip-rule="evenodd"/>
</svg>
