<svg xmlns="http://www.w3.org/2000/svg" width="24" height="24" fill="none" viewBox="0 0 24 24">
  <path fill="#77889A" fill-rule="evenodd" d="M4.5 19.5V15H9v4.5H4.5zM3.75 21a.75.75 0 01-.75-.75v-6a.75.75 0 01.75-.75h6a.75.75 0 01.75.75v6a.75.75 0 01-.75.75h-6zM15 9V4.5h4.5V9H15zm-.75 1.5a.75.75 0 01-.75-.75v-6a.75.75 0 01.75-.75h6a.75.75 0 01.75.75v6a.75.75 0 01-.75.75h-6zM6.75 11.25a.75.75 0 00.75-.75V7.875h3a.75.75 0 000-1.5H6.75a.75.75 0 00-.75.75V10.5c0 .414.336.75.75.75zM17.25 12a.75.75 0 00-.75.75v3h-3a.75.75 0 000 1.5h3.75a.75.75 0 00.75-.75v-3.75a.75.75 0 00-.75-.75z" clip-rule="evenodd"/>
</svg>
