<svg xmlns="http://www.w3.org/2000/svg" width="32" height="32" viewBox="0 0 32 32">
  <path fill-rule="evenodd" d="M9 24a1 1 0 01-1-1v-4.9A5.002 5.002 0 009 28a5.002 5.002 0 004.9-4H9zm6.93-2a7.062 7.062 0 010 2A7.001 7.001 0 012 23a7.001 7.001 0 0113.93-1zM10 18.1a5.006 5.006 0 013.9 3.9H10v-3.9zM17 2a1 1 0 011 1v7.308h3.08l3.396-5.093a1 1 0 01.832-.446H29a1 1 0 110 2h-3.157l-3.396 5.093a1 1 0 01-.832.446H18V14h11a1 1 0 110 2H17a1 1 0 01-1-1V3a1 1 0 011-1zM25 19a1 1 0 011 1v9a1 1 0 11-2 0v-9a1 1 0 011-1zm4 3.273a1 1 0 011 1V29a1 1 0 11-2 0v-5.727a1 1 0 011-1zm-8 3.273a1 1 0 011 1V29a1 1 0 11-2 0v-2.454a1 1 0 011-1z" clip-rule="evenodd"/>
  <path d="M9 3.5a1.5 1.5 0 11-3 0 1.5 1.5 0 013 0zM14 7.5a1.5 1.5 0 11-3 0 1.5 1.5 0 013 0zM7 8.5a1.5 1.5 0 11-3 0 1.5 1.5 0 013 0zM5 13.5a1.5 1.5 0 11-3 0 1.5 1.5 0 013 0zM11 11.5a1.5 1.5 0 11-3 0 1.5 1.5 0 013 0z"/>
</svg>
