<svg xmlns="http://www.w3.org/2000/svg" width="32" height="32" viewBox="0 0 32 32">
  <path fill-rule="evenodd" d="M10.462 7.736C11.808 6.56 13.472 6 15.536 6h.035c2.28.08 4.098.485 5.596 1.67 1.472 1.166 2.494 2.977 3.459 5.526a.032.032 0 00.02.019c1.32.468 2.389.936 3.225 1.632.87.723 1.416 1.628 1.828 2.828l.01.033.01.034c.653 2.445.1 4.364-.952 5.744-1.016 1.336-2.446 2.103-3.505 2.431-.196.06-.387.083-.562.083H7.484c-.357 0-.717-.098-1.027-.286-1.917-1.164-3.172-2.479-3.85-3.876a5.777 5.777 0 01-.396-4.121c.687-2.51 2.933-4.47 5.115-5.06a.297.297 0 00.112-.057.091.091 0 00.03-.035c.758-2.023 1.68-3.681 2.994-4.829zm1.316 1.506c-.951.831-1.728 2.131-2.438 4.025-.265.708-.871 1.152-1.492 1.32-1.564.423-3.225 1.895-3.708 3.658-.232.848-.196 1.77.265 2.72.444.913 1.313 1.912 2.845 2.887A.964.964 0 007.77 24h16.923c.808 0 1.782-.803 2.484-1.725.67-.88 1.1-2.151.62-3.983-.327-.939-.696-1.486-1.204-1.908-.547-.455-1.328-.828-2.614-1.284a2.034 2.034 0 01-1.223-1.196c-.93-2.459-1.794-3.846-2.83-4.665-1.007-.797-2.314-1.164-4.407-1.239-1.66.003-2.824.442-3.74 1.242z" clip-rule="evenodd"/>
</svg>
