<svg xmlns="http://www.w3.org/2000/svg" width="32" height="32" viewBox="0 0 32 32">
  <path fill-rule="evenodd" d="M4.828 16L8.3 19.472 11.772 16 8.3 12.53 4.828 16zm-2.12-.707a1 1 0 000 1.414l4.885 4.886a1 1 0 001.414 0l4.886-4.886a1 1 0 000-1.414l-4.886-4.886a1 1 0 00-1.414 0l-4.886 4.886zM12.528 8.3L16 11.772 19.47 8.3 16 4.83 12.528 8.3zm-2.121-.707a1 1 0 000 1.414l4.886 4.886a1 1 0 001.414 0l4.886-4.886a1 1 0 000-1.414l-4.886-4.886a1 1 0 00-1.414 0l-4.886 4.886zM20.228 16l3.472 3.472L27.172 16 23.7 12.53 20.228 16zm-2.12-.707a1 1 0 000 1.414l4.885 4.886a1 1 0 001.414 0l4.886-4.886a1 1 0 000-1.414l-4.886-4.886a1 1 0 00-1.414 0l-4.886 4.886zM12.528 23.7L16 27.172 19.47 23.7 16 20.23 12.528 23.7zm-2.121-.707a1 1 0 000 1.414l4.886 4.886a1 1 0 001.414 0l4.886-4.886a1 1 0 000-1.414l-4.886-4.886a1 1 0 00-1.414 0l-4.886 4.886z" clip-rule="evenodd"/>
</svg>
