<svg xmlns="http://www.w3.org/2000/svg" width="32" height="32" viewBox="0 0 32 32">
  <path fill-rule="evenodd" d="M16 6C9.373 6 4 11.373 4 18c0 2.74.9 5.929 2.276 8h19.448C27.1 23.929 28 20.74 28 18c0-6.627-5.373-12-12-12zm10.724 22H5.276C3.23 25.567 2 21.427 2 18 2 10.268 8.268 4 16 4s14 6.268 14 14c0 3.427-1.231 7.567-3.276 10z" clip-rule="evenodd"/>
  <path fill-rule="evenodd" d="M6.293 9.293a1 1 0 011.414 0l2 2a1 1 0 01-1.414 1.414l-2-2a1 1 0 010-1.414zM16.414 5a1 1 0 011 1v2.828a1 1 0 11-2 0V6a1 1 0 011-1zM28.828 18.414a1 1 0 01-1 1H25a1 1 0 010-2h2.828a1 1 0 011 1zM7.828 18.414a1 1 0 01-1 1H4a1 1 0 110-2h2.828a1 1 0 011 1z" clip-rule="evenodd"/>
  <path d="M18.5 18a2.5 2.5 0 11-5 0 2.5 2.5 0 015 0z"/>
  <path fill-rule="evenodd" d="M22.207 11.793a1 1 0 010 1.414l-5.5 5.5-1.414-1.414 5.5-5.5a1 1 0 011.414 0z" clip-rule="evenodd"/>
</svg>
