<svg xmlns="http://www.w3.org/2000/svg" width="32" height="32" viewBox="0 0 32 32">
  <path fill-rule="evenodd" d="M3 21V8.5C3 5.462 7.925 3 14 3s11 2.462 11 5.5V14h-2v-2.555C20.957 12.933 17.654 14 14 14c-3.72 0-7.01-.923-9-2.337V15c0 .798.673 1.79 2.376 2.641.986.493 2.222.884 3.624 1.117v2.025c-1.706-.254-3.252-.72-4.518-1.353A9.122 9.122 0 015 18.512V21c0 .798.673 1.79 2.376 2.641C9.02 24.463 11.36 25 14 25c.338 0 .672-.009 1-.026v2.003c-.33.015-.663.023-1 .023-2.883 0-5.543-.582-7.518-1.57C4.566 24.472 3 22.964 3 21zm17.884-10.4C22.662 9.711 23 8.853 23 8.5s-.338-1.211-2.116-2.1C19.225 5.57 16.794 5 14 5c-2.794 0-5.225.57-6.884 1.4C5.338 7.289 5 8.147 5 8.5s.338 1.211 2.116 2.1c1.659.83 4.09 1.4 6.884 1.4 2.794 0 5.225-.57 6.884-1.4z" clip-rule="evenodd"/>
  <path fill-rule="evenodd" d="M14.136 16h11.675c.297 0 .593.11.82.322.228.214.369.518.369.848v.733c-.002.382-.152.74-.405 1.01l-4.013 4.726V30l-5.15-1.917v-4.435l-4.005-4.716a1.505 1.505 0 01-.303-.448M14.136 16l-.034.003.034-.003zm.925 1.905l4.284 5.045v3.921l1.323.616v-4.545l4.277-5.037h-9.884zm-.96-1.902c-.282.02-.557.14-.765.352l.766-.352zm-.765.352a1.16 1.16 0 00-.336.816l.336-.816zM13 17.17v.715-.715z" clip-rule="evenodd"/>
  <path d="M14.189 16a1.2 1.2 0 00-.82.322c-.228.214-.369.519-.369.849v.732c.002.382.152.74.405 1.01L14.189 16z"/>
</svg>
