<svg xmlns="http://www.w3.org/2000/svg" width="32" height="32" viewBox="0 0 32 32">
  <path d="M4 19V5h21v9.929l2 .428V3.977A.976.976 0 0026.025 3H2.975A.976.976 0 002 3.978V20c0 .54.437.978.975.978H13V25H7.333c-.552 0-1 .426-1 .986S6.782 27 7.333 27H18l-2-2v-.028h-1v-3.994h1V19H4z"/>
  <path fill-rule="evenodd" d="M28 16c-.139-.087-.606-.184-.838-.283C26.199 15.304 24.729 15 23 15s-3.199.304-4.162.717c-.232.1-.414.196-.553.283.14.087.32.183.553.283.963.413 2.433.717 4.162.717s3.199-.304 4.162-.717c.232-.1.7-.196.838-.283zm-5 3c3.866 0 7-1.343 7-3s-3.134-3-7-3-7 1.343-7 3 3.134 3 7 3zM19.021 21.24c.824.439 2.145.76 3.979.76s3.155-.321 3.979-.76C27.799 20.8 28 20.332 28 20h2c0 1.324-.866 2.355-2.08 3.003-1.21.647-2.888.997-4.92.997s-3.71-.35-4.92-.997C16.865 22.355 16 21.323 16 20h2c0 .333.201.801 1.021 1.24zM26.9 26.035c.839-.55 1.1-1.15 1.1-1.535h2c0 1.272-.806 2.422-2.001 3.207C26.786 28.504 25.085 29 23 29c-2.032 0-3.71-.35-4.92-.997C16.865 27.355 16 26.323 16 25h2c0 .333.201.801 1.021 1.24.824.439 2.145.76 3.979.76 1.781 0 3.08-.425 3.9-.965z" clip-rule="evenodd"/>
  <path fill-rule="evenodd" d="M16 25v-9h2v9h-2zM28 25v-9h2v9h-2zM16.038 6.5a1 1 0 01.856.553l2 4a1 1 0 11-1.788.894l-1.186-2.37-3.563 5.938a1 1 0 01-1.751-.068L9.382 13H6a1 1 0 110-2h4a1 1 0 01.894.553l.686 1.37 3.563-5.938a1 1 0 01.895-.484z" clip-rule="evenodd"/>
</svg>
