<svg xmlns="http://www.w3.org/2000/svg" width="32" height="32" viewBox="0 0 32 32">
  <path fill-rule="evenodd" d="M3 8.5V21c0 1.963 1.566 3.472 3.482 4.43 1.745.872 4.023 1.428 6.518 1.547v-2.003c-2.229-.116-4.191-.616-5.624-1.333C5.673 22.79 5 21.798 5 21v-2.488c.45.347.953.653 1.482.918 1.509.754 3.416 1.272 5.518 1.475v-2.01c-1.815-.195-3.41-.647-4.624-1.254C5.673 16.79 5 15.798 5 15v-3.337C6.99 13.077 10.28 14 14 14c3.654 0 6.957-1.067 9-2.555V14h2V8.5C25 5.462 20.075 3 14 3S3 5.462 3 8.5zm20 0c0 .353-.338 1.211-2.116 2.1-1.659.83-4.09 1.4-6.884 1.4-2.794 0-5.225-.57-6.884-1.4C5.338 9.711 5 8.853 5 8.5s.338-1.211 2.116-2.1C8.775 5.57 11.206 5 14 5c2.794 0 5.225.57 6.884 1.4C22.662 7.289 23 8.147 23 8.5z" clip-rule="evenodd"/>
  <path d="M22 24a2 2 0 100-4 2 2 0 000 4z"/>
  <path fill-rule="evenodd" d="M29.777 21.479A8.64 8.64 0 0022 16a8.64 8.64 0 00-7.777 5.479L14 22l.223.521A8.64 8.64 0 0022 28a8.64 8.64 0 007.777-5.479L30 22l-.223-.521zM22 26a4 4 0 110-8 4 4 0 010 8z" clip-rule="evenodd"/>
</svg>
