<svg xmlns="http://www.w3.org/2000/svg" width="32" height="32" viewBox="0 0 32 32">
  <path fill-rule="evenodd" d="M23.39 14.656a1.5 1.5 0 012.128-.007l2.836 2.836a1.5 1.5 0 010 2.121L19.96 28H16.5a1.5 1.5 0 01-1.5-1.5v-3.339l8.39-8.505zm1.07 1.763l-.808.819 2.12 2.12.814-.813-2.127-2.126zm-6.27 6.356l4.057-4.113 2.111 2.11-4.085 4.087-2.083-2.084zM17 24.415V26h1.586L17 24.414z" clip-rule="evenodd"/>
  <path fill-rule="evenodd" d="M4 21V8.5C4 5.462 8.925 3 15 3s11 2.462 11 5.5V13h-2v-1.555C21.957 12.933 18.654 14 15 14c-3.72 0-7.01-.923-9-2.337V15c0 .798.673 1.79 2.376 2.641 1.433.717 3.395 1.217 5.624 1.333v2.003c-2.495-.119-4.773-.675-6.518-1.547A9.122 9.122 0 016 18.512V21c0 .798.673 1.79 2.376 2.641 1.433.717 3.395 1.217 5.624 1.333v2.003c-2.495-.119-4.773-.675-6.518-1.547C5.566 24.472 4 22.964 4 21zm17.884-10.4C23.662 9.711 24 8.853 24 8.5s-.338-1.211-2.116-2.1C20.225 5.57 17.794 5 15 5c-2.794 0-5.225.57-6.884 1.4C6.338 7.289 6 8.147 6 8.5s.338 1.211 2.116 2.1c1.659.83 4.09 1.4 6.884 1.4 2.794 0 5.225-.57 6.884-1.4z" clip-rule="evenodd"/>
</svg>
