<svg xmlns="http://www.w3.org/2000/svg" width="32" height="32" viewBox="0 0 32 32">
  <path d="M8 21h8v2H8v-2zM8 15h10v2H8v-2z"/>
  <path d="M17 28H6V4h8v6a2.006 2.006 0 002 2h6v3h2v-5a.912.912 0 00-.3-.7l-7-7A.908.908 0 0016 2H6a2.006 2.006 0 00-2 2v24a2.006 2.006 0 002 2h11v-2zM16 4.4l5.6 5.6H16V4.4z"/>
  <path fill-rule="evenodd" d="M30 19.5V26c0 1.223-.869 2.119-1.9 2.655-1.053.547-2.473.845-4.1.845-1.627 0-3.047-.298-4.1-.845C18.869 28.119 18 27.223 18 26v-6.5c0-1.657 2.686-3 6-3s6 1.343 6 3zm-2.652-.332c.267.133.431.247.531.332-.1.085-.264.2-.53.332-.754.377-1.935.668-3.349.668-1.414 0-2.595-.29-3.348-.668a2.665 2.665 0 01-.531-.332c.1-.085.264-.2.53-.332.754-.377 1.935-.668 3.349-.668 1.414 0 2.595.29 3.348.668zM28 21.736c-1.061.475-2.463.764-4 .764s-2.939-.289-4-.764v.764c0 .158.113.512.822.88.688.358 1.767.62 3.178.62 1.41 0 2.49-.262 3.178-.62.71-.368.822-.722.822-.88v-.764zm-7.178 5.144c-.71-.368-.822-.722-.822-.88v-.794c1.042.515 2.424.794 4 .794s2.958-.28 4-.794V26c0 .158-.113.512-.822.88-.688.358-1.767.62-3.178.62-1.41 0-2.49-.262-3.178-.62z" clip-rule="evenodd"/>
</svg>
