<svg xmlns="http://www.w3.org/2000/svg" width="32" height="32" viewBox="0 0 32 32">
  <path d="M22.186 21.835c0 1.41-.403 2.49-1.207 3.24-.801.75-1.96 1.125-3.475 1.125h-2.426v-8.566h2.69c1.398 0 2.484.369 3.257 1.107.774.738 1.16 1.77 1.16 3.094zm-1.887.047c0-1.84-.813-2.76-2.438-2.76h-.966V24.7h.779c1.75 0 2.625-.94 2.625-2.818zM23.3 17.634h2.667c1.215 0 2.096.173 2.643.521.55.344.826.893.826 1.646 0 .512-.121.932-.364 1.26a1.429 1.429 0 01-.955.592v.059c.543.12.934.347 1.172.68.242.331.363.773.363 1.324 0 .78-.283 1.39-.85 1.828-.562.437-1.327.656-2.296.656h-3.205v-8.566zm1.817 3.392h1.055c.492 0 .848-.076 1.066-.228.223-.153.334-.405.334-.756 0-.328-.12-.563-.363-.703-.238-.145-.617-.217-1.137-.217h-.955v1.904zm0 1.442V24.7h1.184c.5 0 .87-.096 1.107-.287.239-.192.358-.485.358-.88 0-.71-.508-1.066-1.524-1.066h-1.125z"/>
  <path fill-rule="evenodd" d="M3 9.5V22c0 1.963 1.566 3.472 3.482 4.43 1.745.872 4.023 1.428 6.518 1.547v-2.003c-2.229-.116-4.191-.616-5.624-1.333C5.673 23.79 5 22.798 5 22v-2.488c.45.347.953.653 1.482.918 1.745.872 4.023 1.428 6.518 1.547v-2.003c-2.229-.116-4.191-.616-5.624-1.333C5.673 17.79 5 16.798 5 16v-3.337C6.99 14.077 10.28 15 14 15c3.654 0 6.957-1.067 9-2.555V16h2V9.5C25 6.462 20.075 4 14 4S3 6.462 3 9.5zm20 0c0 .353-.338 1.211-2.116 2.1-1.659.83-4.09 1.4-6.884 1.4-2.794 0-5.225-.57-6.884-1.4C5.338 10.711 5 9.853 5 9.5s.338-1.211 2.116-2.1C8.775 6.57 11.206 6 14 6c2.794 0 5.225.57 6.884 1.4C22.662 8.289 23 9.147 23 9.5z" clip-rule="evenodd"/>
</svg>
