<svg xmlns="http://www.w3.org/2000/svg" width="32" height="32" viewBox="0 0 32 32">
  <path fill-rule="evenodd" d="M22.884 11.6C24.662 10.711 25 9.853 25 9.5s-.338-1.211-2.116-2.1C21.225 6.57 18.794 6 16 6c-2.794 0-5.225.57-6.884 1.4C7.338 8.289 7 9.147 7 9.5s.338 1.211 2.116 2.1c1.659.83 4.09 1.4 6.884 1.4 2.794 0 5.225-.57 6.884-1.4zM16 15c5.466 0 10.145-2.388 11-5v-.5C27 6.462 22.075 4 16 4S5 6.462 5 9.5 9.925 15 16 15zM9.376 18.641C11.02 19.463 13.36 20 16 20c2.64 0 4.98-.537 6.624-1.359C24.327 17.79 25 16.798 25 16h2c0 1.963-1.566 3.472-3.482 4.43C21.542 21.418 18.883 22 16 22s-5.543-.582-7.518-1.57C6.566 19.472 5 17.964 5 16h2c0 .798.673 1.79 2.376 2.641zM9.376 24.641C11.02 25.463 13.36 26 16 26c2.64 0 4.98-.537 6.624-1.359C24.327 23.79 25 22.798 25 22h2c0 1.963-1.566 3.472-3.482 4.43C21.542 27.418 18.883 28 16 28s-5.543-.582-7.518-1.57C6.566 25.472 5 23.964 5 22h2c0 .798.673 1.79 2.376 2.641z" clip-rule="evenodd"/>
  <path fill-rule="evenodd" d="M5 22V9.5L6 9h1v13H5zM25 22V10h2v12h-2z" clip-rule="evenodd"/>
  <path d="M11.5 16.55a1.25 1.25 0 11-2.5 0 1.25 1.25 0 012.5 0zM11.5 23.05a1.25 1.25 0 11-2.5 0 1.25 1.25 0 012.5 0z"/>
</svg>
