<svg width="24" height="24" viewBox="0 0 24 24" xmlns="http://www.w3.org/2000/svg">
<path fill-rule="evenodd" clip-rule="evenodd" d="M22.6665 22.3334C22.6665 22.8857 22.2188 23.3334 21.6665 23.3334L2.99984 23.3334C2.44755 23.3334 1.99984 22.8857 1.99984 22.3334C1.99984 21.7811 2.44755 21.3334 2.99984 21.3334L21.6665 21.3334C22.2188 21.3334 22.6665 21.7811 22.6665 22.3334Z" />
<path fill-rule="evenodd" clip-rule="evenodd" d="M12.3332 8.66663C10.8303 8.66663 9.38894 9.26365 8.32623 10.3264C7.26353 11.3891 6.6665 12.8304 6.6665 14.3333V21C6.6665 21.5522 6.21879 22 5.6665 22C5.11422 22 4.6665 21.5522 4.6665 21V14.3333C4.6665 12.3 5.47424 10.3499 6.91202 8.91214C8.3498 7.47436 10.2998 6.66663 12.3332 6.66663C14.3665 6.66663 16.3165 7.47436 17.7543 8.91214C19.1921 10.3499 19.9998 12.3 19.9998 14.3333V21C19.9998 21.5522 19.5521 22 18.9998 22C18.4476 22 17.9998 21.5522 17.9998 21V14.3333C17.9998 12.8304 17.4028 11.3891 16.3401 10.3264C15.2774 9.26365 13.8361 8.66663 12.3332 8.66663Z" />
<path fill-rule="evenodd" clip-rule="evenodd" d="M12.3335 0C12.8858 0 13.3335 0.447715 13.3335 1V3.66667C13.3335 4.21895 12.8858 4.66667 12.3335 4.66667C11.7812 4.66667 11.3335 4.21895 11.3335 3.66667V1C11.3335 0.447715 11.7812 0 12.3335 0Z" />
<path fill-rule="evenodd" clip-rule="evenodd" d="M21.4998 2.979C21.9781 3.25515 22.142 3.86674 21.8658 4.34503L20.5325 6.65443C20.2564 7.13272 19.6448 7.2966 19.1665 7.02046C18.6882 6.74431 18.5243 6.13272 18.8005 5.65443L20.1338 3.34503C20.4099 2.86674 21.0215 2.70286 21.4998 2.979Z" />
<path fill-rule="evenodd" clip-rule="evenodd" d="M3.16681 2.979C3.6451 2.70286 4.25669 2.86674 4.53283 3.34503L5.86617 5.65443C6.14231 6.13272 5.97843 6.74431 5.50014 7.02046C5.02185 7.2966 4.41026 7.13272 4.13411 6.65443L2.80078 4.34503C2.52464 3.86674 2.68851 3.25515 3.16681 2.979Z" />
</svg>
