<svg xmlns="http://www.w3.org/2000/svg" width="32" height="32" viewBox="0 0 32 32">
  <path fill-rule="evenodd" d="M21.5 15a6.502 6.502 0 00-6.042 4.1l2.428-1.89a1 1 0 011.228 1.58l-4.5 3.5a1 1 0 01-1.367-.131l-3.5-4a1 1 0 011.506-1.317l2.062 2.357A8.5 8.5 0 1121.5 30a1 1 0 110-2 6.5 6.5 0 100-13z" clip-rule="evenodd"/>
  <path fill-rule="evenodd" d="M3.91 6.545H8V4.727A2.727 2.727 0 0110.727 2h4.546A2.727 2.727 0 0118 4.727v1.818h4.09a.91.91 0 110 1.819h-.908v3.141c-.622.02-1.23.096-1.818.224V8.364H6.636v17.272h12.728v-5.14l.67-.523c.455-.353.848-.918 1.148-1.446v7.11a1.818 1.818 0 01-1.818 1.817H6.636a1.818 1.818 0 01-1.818-1.818V8.364H3.91a.91.91 0 010-1.819zm6.817-2.727a.91.91 0 00-.909.91v1.817h6.364V4.727a.91.91 0 00-.91-.909h-4.545z" clip-rule="evenodd"/>
  <path d="M21.182 13.006v2.002a6.477 6.477 0 00-1.818.351v-2.088a8.5 8.5 0 011.818-.265zM19.364 17.496a1 1 0 010 1.009v-1.01z"/>
</svg>
