<svg width="32" height="32" viewBox="0 0 32 32" xmlns="http://www.w3.org/2000/svg">
<path fill-rule="evenodd" clip-rule="evenodd" d="M23.4143 8.58586C24.1953 9.36694 24.1952 10.6333 23.4142 11.4143L17.414 17.4143C16.6331 18.1952 15.3669 18.1952 14.586 17.4143L8.58581 11.4143C7.80478 10.6333 7.80472 9.36694 8.58567 8.58585C9.36663 7.80477 10.6329 7.80471 11.4139 8.58572L14.0001 11.1719L14.0001 2C14.0001 0.89543 14.8955 -3.97931e-07 16 -3.49657e-07C17.1045 -3.01383e-07 17.9999 0.89543 17.9999 2L17.9999 11.1719L20.5861 8.58572C21.3671 7.80471 22.6334 7.80477 23.4143 8.58586Z" />
<path fill-rule="evenodd" clip-rule="evenodd" d="M30.0002 14C31.1046 14 32 14.8954 32 16L32 26C32 27.1046 31.1046 28 30.0002 28L1.99983 28C0.895354 28 -3.38442e-07 27.1046 -2.90155e-07 26L1.47002e-07 16C1.95289e-07 14.8954 0.895355 14 1.99983 14C3.10431 14 3.99966 14.8954 3.99966 16L3.99966 24L28.0003 24L28.0003 16C28.0003 14.8954 28.8957 14 30.0002 14Z" />
</svg>
