<svg xmlns="http://www.w3.org/2000/svg" width="32" height="32" viewBox="0 0 32 32">
  <path fill-rule="evenodd" d="M3.23 6.23a3.38 3.38 0 012.39-.99h12A3.38 3.38 0 0121 8.62v2.5a.88.88 0 01-1.76 0v-2.5A1.62 1.62 0 0017.62 7h-12A1.62 1.62 0 004 8.62v15a1.62 1.62 0 001.62 1.62h12a1.62 1.62 0 001.62-1.62v-2.5a.88.88 0 011.76 0v2.5A3.38 3.38 0 0117.62 27h-12a3.38 3.38 0 01-3.38-3.38v-15c0-.896.356-1.756.99-2.39zM23.498 10.498a.88.88 0 011.244 0l5 5a.88.88 0 010 1.244l-5 5a.88.88 0 01-1.244-1.244l4.377-4.378-4.377-4.378a.88.88 0 010-1.244z" clip-rule="evenodd"/>
  <path fill-rule="evenodd" d="M11.178 16.12a.88.88 0 01.88-.88H29.12a.88.88 0 010 1.76H12.057a.88.88 0 01-.88-.88z" clip-rule="evenodd"/>
</svg>
