<svg xmlns="http://www.w3.org/2000/svg" width="32" height="32" viewBox="0 0 32 32">
  <path fill-rule="evenodd" d="M5.293 4.293a1 1 0 011.414 0L22.27 19.855c1.417-1.35 2.252-2.803 2.623-3.791-2.269-5.694-6.941-7.055-8.884-7.055a7.52 7.52 0 00-.711.034c-.568.054-1.123-.296-1.23-.857-.101-.528.233-1.047.766-1.114.381-.047.773-.072 1.175-.072 2.66 0 8.317 1.801 10.873 8.69l.119.32-.1.328c-.384 1.263-1.402 3.184-3.217 4.93l3.024 3.025a1 1 0 01-1.414 1.414l-3.152-3.152a14.57 14.57 0 01-4.617 2.201c-.95.265-1.99.34-3.012.093-2.837-.686-7.203-2.962-9.369-8.434L5 16.054l.135-.365c.54-1.455 1.706-3.592 3.486-5.383.16-.16.325-.319.496-.474a.915.915 0 01.175-.125l-4-4a1 1 0 010-1.414zM18.606 19.02l2.096 2.096a12.65 12.65 0 01-3.708 1.703c-.692.193-1.384.23-2.02.076-2.314-.56-5.922-2.406-7.834-6.861a14.093 14.093 0 012.883-4.303c.106-.106.213-.21.322-.312.12-.111.211-.244.272-.388l2.344 2.344a4.028 4.028 0 00-1.002 2.667c0 2.22 1.78 4.019 3.977 4.019a3.94 3.94 0 002.67-1.04zm-1.418-1.417l-2.81-2.81c-.27.343-.43.777-.43 1.25 0 1.109.89 2.009 1.988 2.009.474 0 .91-.169 1.252-.45z" clip-rule="evenodd"/>
</svg>
