<svg width="32" height="32" viewBox="0 0 32 32" xmlns="http://www.w3.org/2000/svg">
<path fill-rule="evenodd" clip-rule="evenodd" d="M3.8822 15.6283C4.84814 16.6581 6.43489 18.2184 8.3561 19.6201C10.774 21.3841 13.4743 22.7139 16 22.7139C18.5257 22.7139 21.226 21.3841 23.6439 19.6201C25.5651 18.2184 27.1519 16.6581 28.1178 15.6283C27.1519 14.5986 25.5651 13.0383 23.6439 11.6366C21.226 9.87255 18.5257 8.54278 16 8.54278C13.4743 8.54278 10.774 9.87255 8.3561 11.6366C6.43489 13.0383 4.84814 14.5986 3.8822 15.6283ZM6.26802 8.77459C8.88727 6.86362 12.3428 5 16 5C19.6572 5 23.1127 6.86362 25.732 8.77459C28.3944 10.717 30.4491 12.8988 31.3452 13.9095C32.2183 14.8942 32.2183 16.3624 31.3452 17.3471C30.4491 18.3579 28.3944 20.5396 25.732 22.4821C23.1127 24.393 19.6572 26.2567 16 26.2567C12.3428 26.2567 8.88727 24.393 6.26802 22.4821C3.60561 20.5396 1.5509 18.3579 0.654771 17.3471C-0.218257 16.3624 -0.218257 14.8942 0.654771 13.9095C1.5509 12.8988 3.60561 10.717 6.26802 8.77459Z" />
<path d="M19.3846 15.5428C19.3846 17.4994 17.7631 19.0856 15.7629 19.0856C13.7626 19.0856 12.1411 17.4994 12.1411 15.5428C12.1411 13.5862 13.7626 12 15.7629 12C17.7631 12 19.3846 13.5862 19.3846 15.5428Z" />
</svg>
