<svg width="16" height="16" viewBox="0 0 16 16" xmlns="http://www.w3.org/2000/svg">
<path fill-rule="evenodd" clip-rule="evenodd" d="M10.753 4.8986C10.1116 4.28932 9.05289 4.09405 8.22206 4.88334L4.65856 8.26867L4.2957 7.92463L3.93323 7.58023L7.49706 4.19459C8.81738 2.94028 10.5315 3.31073 11.478 4.20985C11.9545 4.66252 12.2816 5.28271 12.3204 5.95868C12.3599 6.64627 12.0983 7.35662 11.4619 7.96122L7.57408 11.6547C7.36099 11.8571 6.99374 12.1007 6.55721 12.2013C6.09372 12.3081 5.53415 12.2522 5.06716 11.8086C4.57842 11.3443 4.50667 10.8143 4.64479 10.3591C4.77033 9.94537 5.05759 9.62048 5.24522 9.44224L8.24159 6.59569L8.60459 6.93958L8.96707 7.28398L5.97022 10.131C5.83385 10.2605 5.68567 10.4453 5.62998 10.6289C5.58685 10.771 5.58807 10.9259 5.79216 11.1198C5.95774 11.2771 6.12714 11.2981 6.31547 11.2547C6.53077 11.2051 6.73819 11.0713 6.84908 10.9659L10.7369 7.27247C11.1761 6.85526 11.3196 6.41141 11.2966 6.01169C11.273 5.60036 11.0704 5.20014 10.753 4.8986ZM8.96709 6.59521C9.1673 6.7854 9.16728 7.09378 8.96707 7.28398L8.60459 6.93958L8.24159 6.59569C8.44179 6.4055 8.76689 6.40501 8.96709 6.59521ZM3.9332 8.269C3.733 8.07881 3.73302 7.77043 3.93323 7.58023L4.2957 7.92463L4.65856 8.26867C4.45835 8.45886 4.13341 8.4592 3.9332 8.269Z" />
</svg>
