<svg xmlns="http://www.w3.org/2000/svg" width="32" height="32" viewBox="0 0 32 32">
  <path d="M9.018 19c0 1.105-.898 2-2.005 2a2.003 2.003 0 01-2.005-2c0-1.105.897-2 2.005-2 1.107 0 2.005.895 2.005 2zM14.03 22c0 1.105-.897 2-2.005 2a2.003 2.003 0 01-2.005-2c0-1.105.898-2 2.005-2 1.108 0 2.005.895 2.005 2zM17.038 17c0 1.105-.898 2-2.005 2a2.003 2.003 0 01-2.005-2c0-1.105.898-2 2.005-2 1.107 0 2.005.895 2.005 2zM6.01 24c0 1.105-.898 2-2.005 2A2.003 2.003 0 012 24c0-1.105.898-2 2.005-2 1.107 0 2.005.895 2.005 2z"/>
  <path fill-rule="evenodd" d="M7.461 19.224l-2.005 4-.897-.448 2.005-4 .897.448z" clip-rule="evenodd"/>
  <path fill-rule="evenodd" d="M10.757 21.924l-4.01-2.5.531-.848 4.01 2.5-.53.848zM15.458 17.265l-2.506 4-.85-.53 2.506-4 .85.53z" clip-rule="evenodd"/>
  <path d="M29.637 8.113a.3.3 0 01.362.316l-.38 4.945a.3.3 0 01-.507.195l-4.217-3.967a.3.3 0 01.144-.512l4.598-.977zM19.504 13.739a.3.3 0 010-.424l.994-.99a.301.301 0 01.425.001l.992.991a.3.3 0 010 .425l-.994.988a.301.301 0 01-.426 0l-.991-.991zM21.628 15.863a.3.3 0 010-.425l.994-.988a.301.301 0 01.425 0l.992.991a.3.3 0 010 .424l-.994.99a.301.301 0 01-.426-.001l-.99-.991zM23.757 13.744a.3.3 0 010-.425l.994-.988a.301.301 0 01.426 0l.991.991a.3.3 0 010 .425l-.994.988a.301.301 0 01-.425 0l-.992-.991zM17.375 15.858a.3.3 0 010-.425l.994-.988a.301.301 0 01.425 0l.991.991a.3.3 0 010 .425l-.994.988a.301.301 0 01-.425 0l-.991-.991z"/>
  <path d="M25.886 11.625a.3.3 0 010-.424l.994-.99a.301.301 0 01.426.001l.99.991a.3.3 0 010 .425l-.993.989a.301.301 0 01-.425-.001l-.992-.991z"/>
  <path fill-rule="evenodd" d="M16.336 3a.3.3 0 01-.3-.3v-.4a.3.3 0 01.3-.3h1.404a.3.3 0 01.3.3v.4a.3.3 0 01-.3.3h-1.404zm0 3.5a.3.3 0 01-.3-.3V4.8a.3.3 0 01.3-.3h1.404a.3.3 0 01.3.3v1.4a.3.3 0 01-.3.3h-1.404zm0 3.5a.3.3 0 01-.3-.3V8.3a.3.3 0 01.3-.3h1.404a.3.3 0 01.3.3v1.4a.3.3 0 01-.3.3h-1.404zm0 3.5a.3.3 0 01-.3-.3v-1.4a.3.3 0 01.3-.3h1.404a.3.3 0 01.3.3v1.4a.3.3 0 01-.3.3h-1.404zm0 7a.3.3 0 01-.3-.3v-1.4a.3.3 0 01.3-.3h1.404a.3.3 0 01.3.3v1.4a.3.3 0 01-.3.3h-1.404zm0 3.5a.3.3 0 01-.3-.3v-1.4a.3.3 0 01.3-.3h1.404a.3.3 0 01.3.3v1.4a.3.3 0 01-.3.3h-1.404zm0 3.5a.3.3 0 01-.3-.3v-1.4a.3.3 0 01.3-.3h1.404a.3.3 0 01.3.3v1.4a.3.3 0 01-.3.3h-1.404zm0 2.5a.3.3 0 01-.3-.3v-.4a.3.3 0 01.3-.3h1.404a.3.3 0 01.3.3v.4a.3.3 0 01-.3.3h-1.404z" clip-rule="evenodd"/>
</svg>
