<svg xmlns="http://www.w3.org/2000/svg" width="32" height="32" viewBox="0 0 32 32">
  <path fill-rule="evenodd" d="M24.6 7.206c.442.34.531.985.2 1.44L18 18.314a.982.982 0 01-1.4.206 1.048 1.048 0 01-.2-1.44l6.8-9.669a.982.982 0 011.4-.205z" clip-rule="evenodd"/>
  <path fill-rule="evenodd" d="M7.316 14.552C5.245 16.735 4 19.932 4 23.972 4 24.538 3.552 25 3 25s-1-.46-1-1.029c0-4.481 1.39-8.226 3.885-10.856C8.382 10.483 11.903 9.057 16 9.057s7.618 1.426 10.115 4.058C28.611 15.745 30 19.49 30 23.97 30 24.54 29.552 25 29 25s-1-.46-1-1.029c0-4.039-1.245-7.236-3.316-9.42-2.07-2.18-5.049-3.437-8.684-3.437-3.635 0-6.614 1.256-8.684 3.438z" clip-rule="evenodd"/>
  <path fill-rule="evenodd" d="M15.5 21.914c.828 0 1.5-.69 1.5-1.543 0-.852-.672-1.542-1.5-1.542s-1.5.69-1.5 1.542c0 .853.672 1.543 1.5 1.543zm0 2.057c1.933 0 3.5-1.611 3.5-3.6 0-1.988-1.567-3.6-3.5-3.6s-3.5 1.612-3.5 3.6c0 1.989 1.567 3.6 3.5 3.6z" clip-rule="evenodd"/>
</svg>
