<svg xmlns="http://www.w3.org/2000/svg" width="32" height="32" viewBox="0 0 32 32">
  <path fill-rule="evenodd" d="M5.968 2h13.414l6.586 6.586V11h-2v-1h-4a2 2 0 01-2-2V4h-10v7h-2V2zm14 3.414L22.554 8h-2.586V5.414z" clip-rule="evenodd"/>
  <path d="M5.968 22v8h13v-2h-11v-6h-2zM29.66 25.92a1 1 0 01-.024 1.439l-3.975 3.37a1 1 0 01-1.364 0l-4.138-3.347a1 1 0 01-.024-1.438l.022-.023a1 1 0 011.363-.048l2.46 1.665V23a1 1 0 112 0v4.538l2.294-1.688a1 1 0 011.363.048l.023.023z"/>
  <path fill-rule="evenodd" d="M22.23 16.668c0 1.293-.345 2.31-1.036 3.05-.691.742-1.638 1.113-2.841 1.113-1.207 0-2.154-.375-2.842-1.123-.687-.752-1.03-1.765-1.03-3.04 0-1.285.343-2.3 1.03-3.045.688-.749 1.635-1.123 2.842-1.123 1.203 0 2.15.372 2.84 1.117.692.741 1.037 1.758 1.037 3.051zm-2.073-.005c0-.477-.05-.881-.15-1.214a2.469 2.469 0 00-.392-.827 1.495 1.495 0 00-.586-.468 1.619 1.619 0 00-.671-.145c-.247 0-.47.045-.671.135-.2.085-.394.241-.58.467-.165.207-.3.483-.403.827-.1.344-.15.754-.15 1.23 0 .49.048.899.144 1.225.097.322.23.592.398.81.172.223.367.382.585.479.219.093.444.14.677.14.236 0 .465-.05.688-.151.221-.104.413-.263.574-.478.172-.233.305-.503.398-.811.093-.312.14-.718.14-1.22z" clip-rule="evenodd"/>
  <path d="M8.995 20.632a6.605 6.605 0 001.616.177c1.064 0 1.907-.242 2.53-.725.627-.483.94-1.123.94-1.918 0-.555-.136-1-.408-1.337-.269-.34-.68-.61-1.236-.81-.282-.101-.55-.18-.8-.237-.247-.058-.505-.117-.773-.178-.416-.096-.697-.204-.844-.322a.609.609 0 01-.214-.489c0-.14.044-.264.134-.375a.904.904 0 01.328-.258c.154-.072.3-.12.44-.145.14-.025.297-.038.473-.038.45 0 .89.088 1.316.263.43.176.793.39 1.09.645h.177v-1.826a6.21 6.21 0 00-1.267-.393 7.005 7.005 0 00-1.418-.145c-.95 0-1.74.233-2.374.699-.634.462-.951 1.067-.951 1.815 0 .555.134 1.017.403 1.386.268.369.712.662 1.332.88.268.094.557.173.865.237.311.064.603.133.875.204.219.057.407.149.564.274a.595.595 0 01.236.489.638.638 0 01-.145.435 1.015 1.015 0 01-.354.252 1.581 1.581 0 01-.457.119 3.534 3.534 0 01-.45.037c-.456 0-.925-.091-1.408-.274a4.491 4.491 0 01-1.327-.784h-.182v1.901a8.24 8.24 0 001.289.44zM6.57 19.3a2.72 2.72 0 00.178-.983v-5.65h-3.84v1.45h1.831v3.206c0 .283-.005.54-.016.774-.007.229-.052.431-.134.607a.857.857 0 01-.408.419c-.19.1-.462.15-.817.15-.275 0-.501-.027-.676-.08a8.319 8.319 0 01-.505-.183H2v1.622c.236.05.51.088.822.113.311.028.644.043.999.043a4.22 4.22 0 001.262-.172c.365-.115.682-.294.95-.537.24-.215.42-.475.538-.78zM28.178 20.664h1.933v-7.998h-1.837v4.582l-2.55-4.582h-2.466v7.998h1.837V15.09l3.083 5.575z"/>
</svg>
