<svg xmlns="http://www.w3.org/2000/svg" width="20" height="20" fill="none" viewBox="0 0 20 20">
  <path fill="#77889A" d="M8.125 8.125v-2.5h6.25v6.25h-2.5v2.5h-6.25v-6.25h2.5zm5-1.25h-3.75v3.75h3.75v-3.75zm-6.25 6.25h3.75v-1.25h-2.5v-2.5h-1.25v3.75z"/>
  <path fill="#77889A" d="M1.25 5V1.25H5V2.5h10V1.25h3.75V5H17.5v10h1.25v3.75H15V17.5H5v1.25H1.25V15H2.5V5H1.25zm2.5-2.5H2.5v1.25h1.25V2.5zm13.75 0h-1.25v1.25h1.25V2.5zm-1.25 15h1.25v-1.25h-1.25v1.25zm-13.75 0h1.25v-1.25H2.5v1.25zM3.75 15H5v1.25h10V15h1.25V5H15V3.75H5V5H3.75v10z"/>
</svg>
