<svg xmlns="http://www.w3.org/2000/svg" width="32" height="32" viewBox="0 0 32 32">
  <path d="M17 4a1 1 0 011 1v8a1 1 0 002 0V7a1 1 0 012 0v8a1 1 0 002 0v-4a1 1 0 012-.002V19c0 1.138-.506 2.582-1.268 4.076-.748 1.464-1.68 2.856-2.402 3.852-.492.678-1.306 1.072-2.202 1.072h-3.66c-1.458 0-2.814-1.12-3.49-2.72-1.168-2.76-3.024-5.03-4.56-6.596a26.737 26.737 0 00-1.986-1.83l-.028-.022c.22-.226.42-.376.604-.476.277-.16.601-.22.918-.172.68.098 1.48.638 2.366 1.524A1 1 0 0012 17V7a1 1 0 012-.014V13a1 1 0 002 0V5a1 1 0 011-1zm7 4.17V7a3 3 0 00-4.106-2.79 3 3 0 00-5.788 0A3 3 0 0010 7v7.896a4.7 4.7 0 00-1.788-.692c-.747-.11-1.51.03-2.168.4-.696.38-1.316 1-1.876 1.84a1 1 0 00.25 1.37l.008.006.034.024.144.11c.84.659 1.636 1.37 2.384 2.132 1.442 1.468 3.114 3.532 4.148 5.974.874 2.068 2.81 3.94 5.332 3.94h3.66c1.478 0 2.92-.654 3.82-1.9.754-1.038 1.752-2.522 2.566-4.116C27.314 22.42 28 20.624 28 19v-8.002a2.999 2.999 0 00-4-2.828zM24 15v.012V15z"/>
</svg>
