<svg xmlns="http://www.w3.org/2000/svg" width="32" height="32" viewBox="0 0 32 32">
  <path fill-rule="evenodd" d="M13.997 4.009c.502.072.855.574.789 1.121l-.748 6.203h5.58l.78-6.463c.066-.548.527-.934 1.029-.861.502.072.855.574.789 1.121l-.748 6.203h4.615c.507 0 .917.448.917 1 0 .553-.41 1-.917 1h-4.856l-.644 5.333h5.5c.507 0 .917.448.917 1 0 .553-.41 1-.917 1h-5.741l-.78 6.464c-.066.548-.526.933-1.028.861-.502-.072-.855-.574-.79-1.122l.749-6.203h-5.58l-.78 6.464c-.066.548-.527.933-1.029.861-.502-.072-.855-.574-.79-1.122l.749-6.203H5.917c-.507 0-.917-.447-.917-1 0-.552.41-1 .917-1h5.387l.643-5.333h-6.03c-.507 0-.917-.447-.917-1 0-.552.41-1 .917-1h6.272l.78-6.463c.065-.548.526-.934 1.028-.861zm-.2 9.324l-.644 5.333h5.581l.643-5.333h-5.58z" clip-rule="evenodd"/>
</svg>
