<svg width="32" height="32" viewBox="0 0 32 32" xmlns="http://www.w3.org/2000/svg">
<path fill-rule="evenodd" clip-rule="evenodd" d="M14.6538 3.52024C15.022 3.1855 15.5017 3.00002 15.9992 3C16.4968 2.99998 16.9765 3.18544 17.3447 3.52015L27.3454 12.612C27.5516 12.7995 27.7163 13.028 27.829 13.2828C27.9418 13.5376 28 13.8132 28 14.0919V26.0009C28 26.2636 27.9483 26.5237 27.8477 26.7663C27.7472 27.009 27.5999 27.2295 27.4141 27.4152C27.2284 27.6009 27.0079 27.7483 26.7652 27.8488C26.5225 27.9492 26.2624 28.001 25.9997 28.0009L19.999 28.0001C19.4686 28.0001 18.96 27.7893 18.585 27.4143C18.2099 27.0392 17.9993 26.5305 17.9993 26.0001V20L13.9993 20V26.0001C13.9993 26.5305 13.7886 27.0392 13.4136 27.4142C13.0386 27.7893 12.5299 28.0001 11.9995 28.0001L6.00026 28.0009C5.73759 28.0009 5.47749 27.9492 5.23481 27.8487C4.99213 27.7483 4.77162 27.6009 4.58587 27.4152C4.40013 27.2295 4.25279 27.009 4.15226 26.7663C4.05174 26.5237 4 26.2636 4 26.0009V14.0918C4 13.8132 4.05822 13.5376 4.17094 13.2828C4.28365 13.028 4.44837 12.7995 4.65453 12.6121L14.6538 3.52024ZM26 14.0919L15.9993 5L6 14.0918V26.0009L11.9993 26.0001V20C11.9993 19.4696 12.21 18.9609 12.5851 18.5858C12.9601 18.2107 13.4688 18 13.9993 18H17.9993C18.5297 18 19.0384 18.2107 19.4135 18.5858C19.7886 18.9609 19.9993 19.4696 19.9993 20V26.0001L26 26.0009V14.0919Z" />
</svg>
