<svg xmlns="http://www.w3.org/2000/svg" width="32" height="32" viewBox="0 0 32 32">
  <path fill-rule="evenodd" d="M15.373 3a.5.5 0 00-.5.5v25a.5.5 0 00.5.5h.984a.5.5 0 00.5-.5v-25a.5.5 0 00-.5-.5h-.984zm-.22 25.72c.005.005.002.013-.005.013a.008.008 0 01-.008-.008c0-.006.008-.01.013-.005zm1.424 0c-.005.005-.002.013.005.013a.008.008 0 00.008-.008c0-.006-.009-.01-.013-.005zm0-25.44c.005.005.013.001.013-.005a.008.008 0 00-.008-.008c-.006 0-.01.008-.005.013zm-1.424 0c.005-.005.002-.013-.005-.013a.008.008 0 00-.008.008c0 .006.008.01.013.005zM19.247 16.023a1 1 0 010-1.316l3.5-4a1 1 0 111.506 1.316l-2.05 2.342H29a1 1 0 110 2h-6.796l2.049 2.341a1 1 0 01-1.506 1.317l-3.5-4zM12.753 14.707a1 1 0 010 1.316l-3.5 4a1 1 0 01-1.506-1.317l2.05-2.341H3a1 1 0 110-2h6.796l-2.049-2.341a1 1 0 011.506-1.317l3.5 4z" clip-rule="evenodd"/>
</svg>
