<svg xmlns="http://www.w3.org/2000/svg" width="32" height="32" viewBox="0 0 32 32">
  <path fill-rule="evenodd" d="M26 9a3 3 0 11-6 0 3 3 0 016 0zm-2 0a1 1 0 11-2 0 1 1 0 012 0z" clip-rule="evenodd"/>
  <path fill-rule="evenodd" d="M24.263 20.913C27.615 16.66 30 13.193 30 9.5 30 5.358 26.866 2 23 2s-7 3.358-7 7.5c0 3.71 2.006 7.193 5.66 11.474.424.497.871 1.005 1.34 1.526.434-.542.855-1.07 1.263-1.587zm2.017-6.255C27.435 12.71 28 11.072 28 9.5 28 6.33 25.634 4 23 4s-5 2.33-5 5.5c0 2.9 1.523 5.83 4.927 9.875 1.353-1.725 2.488-3.26 3.353-4.717z" clip-rule="evenodd"/>
  <path fill-rule="evenodd" d="M2.392 5.206a1 1 0 01.87-.171l8.581 2.328 1.712-.418a1 1 0 11.475 1.943l-1.2.293v18.491l6.34-1.821v-3.038a1 1 0 112 0v3.026L28 27.693V18.5a1 1 0 112 0V29a1 1 0 01-1.262.965l-8.56-2.323-8.072 2.32a1 1 0 01-.538.003l-8.83-2.396A1 1 0 012 26.604V6a1 1 0 01.392-.794zm8.438 22.486V9.162L4 7.307V25.84l6.83 1.854z" clip-rule="evenodd"/>
</svg>
