<svg xmlns="http://www.w3.org/2000/svg" width="32" height="32" viewBox="0 0 32 32">
  <path fill-rule="evenodd" d="M16 28c6.627 0 12-5.373 12-12S22.627 4 16 4 4 9.373 4 16s5.373 12 12 12zm0 2c7.732 0 14-6.268 14-14S23.732 2 16 2 2 8.268 2 16s6.268 14 14 14z" clip-rule="evenodd"/>
  <path fill-rule="evenodd" d="M21.31 23.26L8.865 10.813l2.263-2.263 12.445 12.445-2.263 2.263z" clip-rule="evenodd"/>
  <path fill-rule="evenodd" d="M23.384 10.814L10.94 23.26l-2.262-2.262L21.122 8.552l2.262 2.262z" clip-rule="evenodd"/>
</svg>
