<svg xmlns="http://www.w3.org/2000/svg" width="32" height="32" viewBox="0 0 32 32">
  <path fill-rule="evenodd" d="M12 24a7.997 7.997 0 008-8 7.997 7.997 0 00-8-8 8 8 0 100 16zm0 2c5.523 0 10-4.477 10-10S17.523 6 12 6 2 10.477 2 16s4.477 10 10 10z" clip-rule="evenodd"/>
  <path fill-rule="evenodd" d="M20 24a8 8 0 100-16 8 8 0 000 16zm0 2c5.523 0 10-4.477 10-10S25.523 6 20 6s-10 4.477-10 10 4.477 10 10 10z" clip-rule="evenodd"/>
  <path d="M16 22.93A7.997 7.997 0 0020 16a7.997 7.997 0 00-4-6.93A7.997 7.997 0 0012 16a7.997 7.997 0 004 6.93z"/>
</svg>
