<svg xmlns="http://www.w3.org/2000/svg" width="32" height="32" viewBox="0 0 32 32">
  <path fill-rule="evenodd" d="M26.12 5.725a1.002 1.002 0 00-.02-1.416.998.998 0 00-1.414.022L22.31 6.784l-7.63 8.277a6.954 6.954 0 00-3.685-1.05C7.132 14.011 4 17.15 4 21.02s3.132 7.008 6.996 7.008c3.864 0 6.996-3.138 6.996-7.008 0-1.794-.673-3.43-1.78-4.67l3.108-3.37 2.737 2.741a.998.998 0 001.413 0c.39-.39.39-1.025 0-1.416l-2.793-2.797 2.391-2.593 3.228 3.212a.998.998 0 001.414-.005 1.002 1.002 0 00-.005-1.415l-3.263-3.247 1.679-1.734zM15.994 21.019a5.001 5.001 0 01-4.997 5.006 5.001 5.001 0 01-4.997-5.006 5.001 5.001 0 014.997-5.006 5.001 5.001 0 014.997 5.006z" clip-rule="evenodd"/>
</svg>
