<svg xmlns="http://www.w3.org/2000/svg" width="32" height="32" viewBox="0 0 32 32">
  <path d="M10.06 17.88c.308.075.623.115.94.12a4 4 0 002.23-.68l3.22 2.87a3.878 3.878 0 00-.2 3.17A4 4 0 1022.62 19l2.54-5.09a3.782 3.782 0 002.91-.53 4 4 0 10-4.69-.38l-2.54 5.09a4 4 0 00-3.07.59l-3.22-2.87a3.878 3.878 0 00.2-3.17 4 4 0 10-6.45 4.29L4 25V3a1 1 0 00-2 0v25a2 2 0 002 2h25a1 1 0 100-2H4.67l5.39-10.12zM26 8a2 2 0 110 4 2 2 0 010-4zm-4 14a2 2 0 11-4 0 2 2 0 014 0zM11 12a2 2 0 110 4 2 2 0 010-4z"/>
</svg>
