<svg xmlns="http://www.w3.org/2000/svg" width="32" height="32" viewBox="0 0 32 32">
  <path fill-rule="evenodd" d="M3 3a1 1 0 011 1v10.466c.207-.28.426-.557.655-.83 1.28-1.53 2.933-2.992 4.757-3.982 1.82-.988 3.893-1.545 5.955-1.111 2.093.44 3.988 1.862 5.497 4.454.898 1.541 1.709 2.809 2.444 3.844.438-.896.872-1.86 1.305-2.863.331-.765.663-1.554.996-2.348.656-1.561 1.318-3.135 1.986-4.556a1 1 0 111.81.852c-.652 1.384-1.283 2.887-1.928 4.423-.337.803-.678 1.614-1.028 2.423-.571 1.321-1.164 2.628-1.788 3.826.396.465.765.852 1.11 1.17 1.254 1.162 2.062 1.314 2.593 1.241a1 1 0 01.272 1.982c-1.35.185-2.73-.372-4.224-1.755a14.172 14.172 0 01-.796-.802c-.138.22-.277.431-.419.635-1.154 1.668-2.618 3.095-4.495 3.18-1.903.086-3.712-1.22-5.507-3.656-1.331-1.806-2.405-2.366-3.17-2.427-.74-.06-1.533.325-2.378 1.274C5.96 21.336 4.667 24.836 4 27.617V29h25.5a1 1 0 110 2H3a1 1 0 01-1-1V4a1 1 0 011-1zm1 18.52c.609-1.285 1.327-2.482 2.153-3.41 1.039-1.167 2.395-2.07 4.034-1.938 1.615.13 3.15 1.241 4.618 3.235 1.705 2.313 2.958 2.883 3.806 2.844.872-.04 1.846-.738 2.942-2.32.24-.348.478-.725.713-1.127-.947-1.251-1.983-2.831-3.13-4.8-1.296-2.226-2.765-3.206-4.18-3.504-1.446-.304-3.026.063-4.59.912-1.56.846-3.024 2.13-4.178 3.508C5.07 16.256 4.304 17.606 4 18.637v2.884z" clip-rule="evenodd"/>
</svg>
