<svg xmlns="http://www.w3.org/2000/svg" width="32" height="32" viewBox="0 0 32 32">
  <path fill-rule="evenodd" d="M7.515 17.414a5 5 0 007.07 7.071l2.324-2.323a1 1 0 011.414 1.414L16 25.9A7 7 0 116.1 16l2.324-2.322a1 1 0 111.414 1.414l-2.323 2.323zm5.505-6.92a1 1 0 010-1.414L16 6.1a7 7 0 019.9 9.9l-2.98 2.98a1 1 0 01-1.415-1.414l2.98-2.98a5 5 0 00-7.07-7.071l-2.98 2.98a1 1 0 01-1.415 0z" clip-rule="evenodd"/>
  <path fill-rule="evenodd" d="M12.464 19.535a1 1 0 010-1.414l5.657-5.657a1 1 0 111.415 1.415l-5.657 5.656a1 1 0 01-1.415 0z" clip-rule="evenodd"/>
</svg>
