<svg xmlns="http://www.w3.org/2000/svg" width="32" height="32" viewBox="0 0 32 32">
  <path fill-rule="evenodd" d="M3.989 4v24H27.85V4H3.99zm-.995-2A.997.997 0 002 3v26c0 .552.445 1 .994 1h25.852c.549 0 .994-.448.994-1V3c0-.552-.445-1-.994-1H2.994z" clip-rule="evenodd"/>
  <path fill-rule="evenodd" d="M3.992 21.55c-.083-1.964 1.39-3.42 2.768-4.056L3.992 21.55zm2.768-4.056C7.16 17.33 8.057 17 9.144 17c1.374 0 2.582.48 3.502 1.378l.002.001c1.152 1.113 1.564 2.73 1.09 4.215-.6 1.881-2.46 3.13-3.974 3.364H9.76a3.76 3.76 0 01-.598.042c-1.459 0-2.408-.784-2.837-1.178l-.057-.053-.072-.032C4.9 24.14 4.05 22.917 3.992 21.55m2.383-4.978a7.679 7.679 0 011.83-.504c.292-.042.608-.068.939-.068 1.616 0 3.076.57 4.194 1.659 1.418 1.37 1.94 3.383 1.347 5.24-.734 2.301-2.948 3.765-4.769 4.047a4.74 4.74 0 01-.753.054c-1.768 0-2.932-.92-3.45-1.387-1.577-.754-2.64-2.28-2.714-4.02-.052-1.231.366-2.277.99-3.11a6.322 6.322 0 012.367-1.903l.01-.004.009-.004z" clip-rule="evenodd"/>
  <path fill-rule="evenodd" d="M7.666 23.162l.047.044c.363.337.787.712 1.474.712.079 0 .167-.006.286-.022.39-.061.897-.28 1.358-.652.461-.37.8-.832.946-1.311l.003-.011c.223-.709.046-1.461-.533-2.028l-.004-.003c-.52-.514-1.226-.81-2.077-.81a4.12 4.12 0 00-1.551.316c-.897.415-1.6 1.214-1.567 2.035.025.474.29 1.085 1.078 1.369l.063.022.059.03a1.202 1.202 0 01.234.155l.088.076.012.01.039.035.003.003.042.03zm-2.68-1.678C4.92 20 6.122 18.898 7.175 18.41A5.15 5.15 0 019.167 18c1.106 0 2.085.39 2.819 1.114.861.844 1.159 2.024.808 3.138-.447 1.471-1.968 2.532-3.17 2.716-.16.021-.298.032-.436.032-1.121 0-1.811-.642-2.185-.99l-.006-.005a1.67 1.67 0 01-.115-.096.78.78 0 00-.109-.088c-1.266-.455-1.744-1.504-1.787-2.337z" clip-rule="evenodd"/>
  <path fill-rule="evenodd" d="M8.415 21.146l-.01.004c-.02.01-.04.022-.063.036.334.217.577.457.74.62l.065.064c.042.04.075.072.102.095a1.724 1.724 0 00.591-.463.608.608 0 00.11-.188.387.387 0 00-.04-.047c-.216-.222-.52-.293-.895-.26a2.383 2.383 0 00-.6.139zm1.544.183l-.002-.006a.02.02 0 01.002.006zm-2.035.227l.005-.01-.005.01zm2.696-.99c-1.017-1.042-2.628-.327-2.628-.327-.57.279-1.599 1.2-.605 1.575.457.173.75.461 1.003.71.297.292.539.53.927.465.72-.121 2.32-1.38 1.303-2.423zM23.901 6.07c2.96-.501 5.455 1.203 5.93 3.84.287 1.598.242 3.268-.398 4.782a6.602 6.602 0 01-1.582 2.261c-.61.573-1.363 1.08-2.278 1.502a17.764 17.764 0 01-.85.357c-.425.165-.903.337-1.36.483-.46.146-.898.266-1.238.324h-.001a10.523 10.523 0 01-1.738.145h-.002c-1.877-.006-3.495-.578-4.69-1.371a6.316 6.316 0 01-1.456-1.31c-.386-.488-.646-1.003-.742-1.504-.177-.946.038-1.998.499-2.892.462-.893 1.201-1.688 2.14-2.066h.002l.234-.094.158-.061c.908-.354 1.6-.624 2.257-1.467 1.059-1.186 1.399-1.377 2.298-1.884.901-.509 1.901-.89 2.817-1.045zm.165.986c-.782.133-1.674.467-2.496.931-.823.465-1.324.761-2.001 1.63-.83 1.063-1.755 1.422-2.653 1.77l-.183.072h-.001l-.228.09v.001c-.665.268-1.246.86-1.627 1.598-.381.74-.532 1.564-.404 2.244.118.622.71 1.464 1.768 2.166 1.039.69 2.476.936 4.153.942.52 0 2.96-.413 3.48-.5.813-.14.499-.093 1.285-.455 1.787-.823 2.822-1.97 3.36-3.243.542-1.285.597-2.745.335-4.213-.369-2.041-2.305-3.453-4.788-3.033z" clip-rule="evenodd"/>
  <path fill-rule="evenodd" d="M29.02 12.37c.273-.079.485-.155.352-.23a1.509 1.509 0 00-.342-.052 6.157 6.157 0 00-.01.282zm-4.28 9.23c-.677.34-1.343.68-2 1.04a.583.583 0 00-.238.34 11.24 11.24 0 00-.013.925c.001.127.003.255.003.385.487-.09.945-.18 1.402-.28.298-.1.626.05.746.34.194.36.41.71.64 1.081l.235.379.155-.259c.21-.348.404-.673.58-1.011.577-.94.418-2.15-.377-2.91l-.488.66h-.129c-.022-.059-.047-.118-.071-.177a2.949 2.949 0 01-.118-.313c-.05-.17-.139-.29-.328-.2zm-6.262-6.67a.656.656 0 01.146-.235c.108-.102.54-.458 1.22-.8.562-.283 1.074-.765 1.454-1.179.383-.416.705-.844.9-1.135.181-.236.544-.6 1.005-.858.465-.26.948-.373 1.424-.253.442.111.738.404.944.817.217.433.292.923.292 1.213 0 .098-.05.314-.27.64-.211.313-.534.658-.95.993-.837.676-1.926 1.214-2.92 1.38-1.092.184-1.88.138-2.4.032-.46-.094-.665-.224-.706-.25-.008-.005-.01-.006-.005-.002l-.018-.018-.018-.016s-.008-.007-.02-.022a.457.457 0 01-.087-.187.251.251 0 01.01-.12z" clip-rule="evenodd"/>
  <path d="M20.628 19.761l-.242.003h-.002c-1.877-.006-3.495-.578-4.69-1.371a6.316 6.316 0 01-1.456-1.31 4.047 4.047 0 01-.212.22c-.227.223-.274.27-.115.817v.02c.07.41.468.69.875.62.359 0 .708-.01 1.066-.02h.028c.238-.038.458 1.034.52 1.335l.007.035c.08.31.15.63.219.95.05.235.094.47.138.707.096.516.192 1.032.349 1.533.268.84.965.97 1.551.3.318-.38.587-.79.795-1.23.156-.31.295-.63.435-.951.18-.416.36-.834.58-1.229a.93.93 0 00.154-.429zM24.722 18.811c-.424.166-.902.338-1.359.484.12.112.244.22.372.325.239.2.447.19.606-.13.12-.232.25-.456.381-.678zM27.851 18.95v-1.997c-.61.573-1.363 1.08-2.278 1.502a8.69 8.69 0 01-.127.057c.383.32.926.446 1.543.479.109.04.224.04.33.009h.035c.17 0 .337-.017.497-.05zM3.989 9.594v8.888a6.322 6.322 0 012.367-1.902l.01-.004.009-.004a7.679 7.679 0 011.83-.504c.69-.497 1.38-.995 2.067-1.498.12-.1.18-.24.18-.39a21.814 21.814 0 01-.186-1.6 3.494 3.494 0 00.678-2.287c.064.163.1.338.104.517.04.334.082.67.125 1.016.043.348.088.708.133 1.084.21-.132.413-.262.611-.39.33-.212.648-.417.97-.61a3.111 3.111 0 001.392-1.78c.105-.352.19-.708.275-1.063.053-.22.106-.44.163-.657.05-.2-.03-.29-.219-.36l-.405-.14c-.672-.232-1.349-.465-2.011-.74a1.628 1.628 0 00-1.88.32c-.292.314-.667.52-1.068.607A6.133 6.133 0 007.966 8h-.027a1.264 1.264 0 00-1.242.092c-.766.119-1.474.362-1.974.783-.254.003-.434.134-.595.427l-.14.292z"/>
  <path stroke="#77889A" d="M18.5 12c-2 .4-2.5 1.833-2.5 2.5 0 2 2.345 2.29 3.5 2.5 4 .727 6.5-1.667 7-3 .5-1 1.6-3 0-5-1.543-1.929-3.83-.138-4.887 1.337a2.47 2.47 0 01-.252.303c-.466.469-1.045.997-2.861 1.36z"/>
</svg>
