<svg xmlns="http://www.w3.org/2000/svg" width="32" height="32" viewBox="0 0 32 32">
  <path fill-rule="evenodd" d="M26.018 18.497h.032c1.207 0 2.186-.98 2.186-2.187 0-.667-.09-1.264-.416-1.665.067-.101.13-.205.189-.312a.4.4 0 00-.035-.525 7.883 7.883 0 01-.543-.953 1.04 1.04 0 01-.008-.403c.13-.008.27.01.402.044.28.157.551.324.813.507.13.089.251.185.386.291.066.052.134.107.209.164.017-.21.026-.358.035-.507a5.37 5.37 0 01.603-2.677.87.87 0 00.088-.253.604.604 0 01.026-.07.557.557 0 00-.41-.674 1.747 1.747 0 00-.735-.079c-.503.056-1.005.12-1.506.189C27.15 8.247 26.06 8 24.738 8c-1.388 0-2.52.272-2.617 1.564a1.561 1.561 0 00-.094.054 3.433 3.433 0 00-1.19 1.05 2.512 2.512 0 01-2.3 1.067 6.199 6.199 0 01-.892-.096.622.622 0 00-.743.28c-.131.218-.289.437-.446.656a1.48 1.48 0 00-.297 1.058c.009.219.009.429 0 .648a3.212 3.212 0 01-.325-.223c-.255-.19-.493-.368-.873-.337.297.682.262 1.46-.097 2.108l2.851.437-.008.07-.139.002c-.09.002-.18.004-.272-.002h-.026c-.569-.018-1.146-.035-1.715-.07a1.032 1.032 0 00-.944.438 2.094 2.094 0 00-.385 1.898v.017a.67.67 0 00.77.543c.315 0 .622-.009.937-.017l.025-.001a.41.41 0 01.463.324c.07.27.131.55.192.83.044.206.083.413.122.619.084.452.169.902.307 1.341.236.735.848.849 1.364.262.28-.332.516-.69.7-1.075.137-.271.26-.551.382-.832.158-.365.317-.73.51-1.075a.814.814 0 00-.044-.971c-.147-.222-.288-.45-.435-.685a43.006 43.006 0 00-.3-.479c.098.09.189.176.277.26.214.203.41.39.633.563.315.245.464.227.7-.088.14-.194.27-.399.403-.606.04-.063.08-.127.122-.19.079.104.154.206.229.308.165.224.325.44.505.646.245.27.499.516.778.743.21.175.394.166.534-.114.11-.212.23-.416.35-.62.108-.183.215-.366.314-.552a.568.568 0 01.016-.035c.309.547.92.733 1.648.77a.461.461 0 00.29.009zm-2.82-6.62a1.5 1.5 0 00-.093 1.028 1.508 1.508 0 001.456 1.119 1.506 1.506 0 10-1.363-2.148zm-3.154 4.137a1.003 1.003 0 100 .01v-.01zM11.02 12.88c.037.468.09.935.163 1.4a.435.435 0 01-.158.342c-.869.633-1.743 1.256-2.618 1.88l-.6.428a2.176 2.176 0 01.304 1.335c.14.068.293.117.466.136.187.018.372.063.558.107.169.04.338.082.508.102a6.444 6.444 0 012.624 1.304c.324.21.42.63.227.962a4.24 4.24 0 01-.48.813c-.268.379-.547.738-.828 1.1l-.152.195a.638.638 0 01-.236.192c-.35.14-.595.464-.639.84a40.675 40.675 0 00-.183 1.479 3.021 3.021 0 01-.927-1.934c-.003-.23 0-.462.003-.693a32.315 32.315 0 00-.279.003c-.857.007-1.526.011-1.526-.875 0-.01.219-.672.437-1.334.22-.663.438-1.325.438-1.334-.14.026-2.038.043-2.187.043-1.206 0-1.311-.542-1.311-1.749 0-.583.024-1.01.185-1.297a2.81 2.81 0 01-.16-1.747 3.207 3.207 0 00-.541-2.318.341.341 0 00-.446-.184c-.01 0-.018.009-.027.018-.269.09-.538.172-.816.258-.263.08-.534.164-.819.258l.048-.181c.046-.173.085-.322.144-.466.065-.164.128-.329.19-.494.176-.461.352-.925.571-1.37.228-.472.49-.55.997-.367.242.084.474.187.705.29.155.068.31.137.467.2.152.094.315.156.481.188.304-.867 1.229-1.293 2.277-1.455a1.117 1.117 0 011.093-.08h.023c.382 0 .726.025 1.028.084.353-.075.682-.255.94-.53a1.438 1.438 0 011.653-.28c.582.24 1.177.444 1.769.647l.356.122c.166.062.236.14.192.315-.05.19-.096.383-.142.575-.075.31-.15.622-.242.93a2.724 2.724 0 01-1.225 1.557c-.283.169-.563.348-.853.533l-.537.342c-.04-.33-.08-.644-.118-.949-.038-.303-.075-.597-.11-.888a1.287 1.287 0 00-.09-.452c.002.059.003.119.003.18 0 .681-.223 1.31-.6 1.82zm-1.01-1.374a1.506 1.506 0 11-3.01 0 1.506 1.506 0 013.01 0zm-3.006 4.521a1.004 1.004 0 100-2.007 1.004 1.004 0 000 2.008z" clip-rule="evenodd"/>
  <path d="M28.122 20.771c-.594.297-1.18.595-1.757.91a.51.51 0 00-.21.297c-.019.268-.015.535-.012.81.002.11.003.223.003.336.428-.079.83-.157 1.233-.245a.53.53 0 01.656.297c.17.316.361.621.564.946l.206.332.136-.227c.184-.304.356-.589.51-.884a2.033 2.033 0 00-.332-2.546l-.428.578h-.114l-.063-.156a2.604 2.604 0 01-.103-.273c-.044-.149-.123-.254-.289-.175z"/>
  <path fill-rule="evenodd" d="M4 4v24h24V4H4zM3 2a1 1 0 00-1 1v26a1 1 0 001 1h26a1 1 0 001-1V3a1 1 0 00-1-1H3z" clip-rule="evenodd"/>
</svg>
