<svg xmlns="http://www.w3.org/2000/svg" width="32" height="32" viewBox="0 0 32 32">
  <path fill-rule="evenodd" d="M2 10.633V3a1 1 0 011-1h25.993a1 1 0 011 1v4.985c.01.061.01.126 0 .19V29a1 1 0 01-1 1H3a1 1 0 01-1-1V10.633zm2-2.468V4h4.998v3.066A6.676 6.676 0 007.996 7h-.027a1.277 1.277 0 00-1.249.092c-1.198.185-2.255.67-2.602 1.662A1.607 1.607 0 014 8.727v-.14c.029-.063.059-.126.09-.188.043-.09.003-.168-.09-.234zM27.994 6.32V4h-5v4.995l.001-1.207C23.106 6.311 24.4 6 25.985 6c.774 0 1.477.074 2.009.32zM21.995 4h-5.499v5h5.067c.13-.178.274-.345.432-.498V4zm-6.498 0H9.998v2.714c.087-.067.17-.142.247-.224.49-.5 1.26-.63 1.889-.32.665.275 1.345.508 2.021.74h.002l.405.14c.19.07.27.16.22.36-.057.217-.11.437-.163.656-.075.312-.15.624-.239.934h1.117V4zm12.497 13.944v3.61l-.15.081c-.12.08-.209.21-.239.34l-.002.025h-4.608v-4.193c.268.294.546.56.852.81.24.199.45.189.61-.13.126-.243.264-.477.4-.71.123-.21.246-.418.36-.63a.68.68 0 01.017-.04c.353.624 1.052.837 1.884.88.11.04.225.04.33.01h.037c.174 0 .344-.019.509-.053zm0 5.266l-.399.075c0-.096 0-.19-.002-.285h-4.598v5h4.998v-4.79zM21.995 28v-5h-3.846a.68.68 0 01-.346 0h-1.307v5h5.499zm-6.498 0v-5h-5.075l-.097.125a.728.728 0 01-.327.244V28h5.499zm-6.499 0v-5 2.877a3.453 3.453 0 01-.942-2.093c-.004-.261 0-.522.004-.784H4v5h4.998zM4 22h1.997v-.005c0-.01.25-.767.5-1.524v-.001c.25-.757.5-1.514.5-1.524-.16.03-2.33.05-2.499.05-.189 0-.354-.012-.498-.035V22zm4.998-7h-.671l.671-.481V10v5zm-2.36 1.206L6.926 16h2.072v6-3.807a7.352 7.352 0 00-.262-.067c-.196-.024-.389-.07-.582-.117a4.672 4.672 0 00-.638-.123 1.583 1.583 0 01-.531-.154 2.487 2.487 0 00-.347-1.526zM20.41 10h-3.915v1.262l.025-.034c.18-.25.36-.5.51-.75.17-.3.53-.43.85-.32.34.06.68.1 1.019.11A2.857 2.857 0 0020.41 10zm-3.915 12h.609c-.11-.407-.188-.822-.265-1.238a28.598 28.598 0 00-.139-.706c-.065-.3-.13-.6-.205-.89V22zm5.499 0h-2.802c.133-.204.252-.416.356-.635.157-.309.297-.63.437-.95.181-.417.363-.834.583-1.23.23-.339.21-.789-.05-1.109a28.26 28.26 0 01-.497-.782v-.001c-.11-.178-.223-.36-.343-.546.111.102.215.2.315.295l.001.001c.245.232.47.445.724.643.36.28.53.26.8-.1.16-.222.31-.456.46-.692l.016-.025V22zm-6.498 0h-4.31c.087-.117.173-.235.257-.355.22-.29.4-.6.55-.93.22-.38.11-.86-.26-1.1a7.335 7.335 0 00-1.736-1.067V16h4.373a2.391 2.391 0 00-.398 2.116v.02c.07.41.47.69.88.62.216 0 .43-.003.644-.008V16v6zm-.45-7H9.997v-1.202l.317-.23c.12-.1.18-.24.18-.39a21.756 21.756 0 01-.186-1.6c.336-.455.565-.993.65-1.578h.158l.103.824v.003c.044.347.09.706.134 1.081.21-.132.415-.262.614-.39.331-.212.651-.416.975-.61.39-.227.723-.539.978-.908h1.576v5-2.295a1.1 1.1 0 00-.685-.167c.34.78.3 1.67-.11 2.41l.344.052z" clip-rule="evenodd"/>
</svg>
