<svg xmlns="http://www.w3.org/2000/svg" width="32" height="32" viewBox="0 0 32 32">
  <path d="M23.55 10.5a1.75 1.75 0 100-3.5 1.75 1.75 0 000 3.5z"/>
  <path fill-rule="evenodd" d="M18 8.5c-.04 2.967 1.434 4.978 4.156 8.015.41.457.847.937 1.312 1.447l.035.038.185-.192c.427-.442.828-.857 1.204-1.253 2.69-2.835 4.067-4.67 4.108-8.055a5.5 5.5 0 10-11 0zm9-.011c-.021 1.58-.384 2.65-1.094 3.746-.554.856-1.311 1.722-2.359 2.83-2.638-2.966-3.576-4.405-3.546-6.537V8.5A3.5 3.5 0 0127 8.489zM8.992 11.876A4.002 4.002 0 008 4a4 4 0 00-.992 7.876A1.01 1.01 0 007 12v1.35a1 1 0 102 0V12a1.01 1.01 0 00-.008-.124zM8 10a2 2 0 100-4 2 2 0 000 4zM7 20.126A4.002 4.002 0 008 28a4.002 4.002 0 003.874-3h.626a1 1 0 100-2h-.626A4.007 4.007 0 009 20.126v-.476a1 1 0 10-2 0v.476zM8 26a2 2 0 100-4 2 2 0 000 4zM24 28a4.002 4.002 0 01-3.874-3H19.5a1 1 0 110-2h.626A4.002 4.002 0 0128 24a4 4 0 01-4 4zm2-4a2 2 0 11-4 0 2 2 0 014 0z" clip-rule="evenodd"/>
  <path d="M9 15.6a1 1 0 10-2 0v1.35a1 1 0 102 0V15.6zM16.5 25H15a1 1 0 110-2h1.5a1 1 0 110 2z"/>
</svg>
