<svg xmlns="http://www.w3.org/2000/svg" width="32" height="32" viewBox="0 0 32 32">
  <path d="M9.5 11h-3c-.398 0-.78.15-1.06.418-.282.268-.44.632-.44 1.01V20.5a.5.5 0 00.5.5h1a.5.5 0 00.5-.5V18h2v2.5a.5.5 0 00.5.5h1a.5.5 0 00.5-.5v-8.071c0-.38-.158-.743-.44-1.01A1.539 1.539 0 009.5 11zM7 16v-3h2v3H7zM19 13.143c0-.569-.237-1.114-.659-1.515A2.309 2.309 0 0016.75 11H14a1 1 0 00-1 1v8a1 1 0 001 1h2.75c.597 0 1.169-.226 1.591-.628.422-.401.659-.947.659-1.515V17.43A2.088 2.088 0 0018.415 16c.373-.391.582-.9.585-1.429v-1.428zm-4-.714h1.25a.77.77 0 01.53.209c.141.134.22.315.22.505v1.428c0 .19-.079.372-.22.505a.77.77 0 01-.53.21H15v-2.857zm2 6.428c0 .19-.079.371-.22.505a.77.77 0 01-.53.21H15v-2.858h1.25a.77.77 0 01.53.21c.141.133.22.315.22.505v1.428zM27 20.5a.5.5 0 01-.5.5h-4c-.398 0-.78-.15-1.06-.418a1.395 1.395 0 01-.44-1.01v-7.143c0-.38.158-.743.44-1.01A1.54 1.54 0 0122.5 11h4a.5.5 0 01.5.5v1a.5.5 0 01-.5.5H23v6h3.5a.5.5 0 01.5.5v1z"/>
  <path fill-rule="evenodd" d="M4 8v16h24V8H4zM3 6a1 1 0 00-1 1v18a1 1 0 001 1h26a1 1 0 001-1V7a1 1 0 00-1-1H3z" clip-rule="evenodd"/>
</svg>
