<svg xmlns="http://www.w3.org/2000/svg" width="32" height="32" viewBox="0 0 32 32">
  <path fill-rule="evenodd" d="M28 11.239a3.044 3.044 0 00-.018-.29 5.91 5.91 0 00-1.496-3.938c1.286.063 2.295.414 2.483 1.574.572-.079-.853-.152-.279-.215.28-.03.57 0 .84.09.34.08-.45.42-.53.77-.01.02-.02.05-.03.08-.02.1.95.2.9.29-.49.94-.73 2-.69 3.06-.01.17-.02.34-.04.58a22.525 22.525 0 01-.24-.187c-.153-.122-.292-.232-.44-.333-.3-.21 1.39-.4 1.07-.58-.15-.04-.31-.06-.46-.05-.03.15-.02.31.01.46.18.38.39.74.62 1.09.16.16.18.42.04.6-.067.123-.14.241-.216.356.372.46.476 1.142.476 1.904a2.5 2.5 0 01-2.5 2.5h-.036a.526.526 0 01-.331-.01c-.833-.043-1.532-.255-1.886-.88a.68.68 0 00-.017.04c-.114.213-.236.421-.359.63-.137.234-.275.468-.401.71-.129.257-.29.314-.473.223.381-.523.786-1.109 1.186-1.73.8-1.238 1.58-2.614 2.117-3.901.437-1.049.71-2.037.7-2.843zm-7.514 9.125a35.46 35.46 0 01-2.582-3.834l-.102.002a3.645 3.645 0 01-.312-.002h-.03c-.65-.02-1.31-.04-1.96-.08-.43-.04-.83.15-1.08.5-.49.61-.66 1.42-.44 2.17v.02c.07.41.47.69.88.62.36 0 .711-.01 1.071-.02h.029c.25-.04.48.13.53.37a26.42 26.42 0 01.359 1.657c.096.516.193 1.032.351 1.533.27.84.97.97 1.56.3.32-.38.59-.79.8-1.23.157-.31.297-.63.437-.951.154-.356.31-.712.489-1.055zm-2.64-3.933c-.699-1.222-1.3-2.48-1.613-3.59-.05.194-.066.398-.043.599.01.25.01.49 0 .74a3.672 3.672 0 01-.371-.254c-.291-.218-.564-.422-.999-.386.34.78.3 1.67-.11 2.41l3.137.481zm-6.85-6.138a3.482 3.482 0 01-.682 2.286c.042.535.104 1.069.186 1.601 0 .15-.06.29-.18.39a382.576 382.576 0 01-3.679 2.64 2.487 2.487 0 01.347 1.526c.16.077.334.133.532.154.215.02.426.072.638.123.193.047.387.093.582.117 1.1.26 2.13.77 3 1.49.37.24.48.72.26 1.1-.15.33-.33.64-.55.93a33.59 33.59 0 01-.947 1.257l-.173.223c-.07.09-.16.17-.27.22-.4.16-.68.53-.73.96-.073.491-.129.982-.191 1.526L9.12 27c-.61-.58-.99-1.37-1.06-2.21-.004-.264 0-.528.004-.792a35.21 35.21 0 00-.319.003C6.765 24.008 6 24.014 6 23c0-.01.25-.767.5-1.525.25-.758.5-1.515.5-1.525-.16.03-2.33.05-2.5.05-1.38 0-1.5-.62-1.5-2 0-.666.028-1.155.212-1.483a3.21 3.21 0 01-.182-1.997c.14-.93-.08-1.88-.62-2.65-.08-.2 1.69-.29 1.49-.21-.01 0-.02.01-.03.02-.308.103-.616.197-.933.295-.301.093-.61.188-.937.295l.055-.207c.052-.197.097-.368.165-.533.074-.187.145-.375.217-.564.2-.528.403-1.058.653-1.566.26-.54-1.44-.63-.86-.42.276.096.541.214.806.331.177.079.354.157.534.229.174.108.36.179.55.215.347-.992 1.405-1.478 2.604-1.663.344-.226.855-.25 1.25-.092-.025-.01.024.01 0 0H8c.437 0 .83.03 1.176.097.403-.087.78-.293 1.074-.607.49-.5 1.26-.63 1.89-.32.666.275 1.346.508 2.023.74l.407.14c.19.07.27.16.22.36-.057.218-.11.437-.163.657-.086.355-.172.71-.277 1.063-.23.75-.73 1.39-1.4 1.78-.324.193-.644.398-.975.61-.2.128-.404.258-.615.39-.045-.377-.09-.735-.134-1.084-.044-.346-.086-.682-.126-1.016a1.474 1.474 0 00-.104-.517zM24.87 21.6c-.68.34-1.35.68-2.01 1.04-.12.08-.21.21-.24.34-.021.306-.017.612-.013.925.001.127.003.255.003.385.49-.09.95-.18 1.41-.28.3-.1.63.05.75.34.195.36.413.71.645 1.081l.235.379.156-.259c.21-.348.407-.673.584-1.011.58-.94.42-2.15-.38-2.91l-.49.66h-.13a4.726 4.726 0 00-.072-.178c-.043-.101-.086-.205-.118-.312-.05-.17-.14-.29-.33-.2z" clip-rule="evenodd"/>
  <path fill-rule="evenodd" d="M26.482 11.031v-.082c0-2.45-1.997-4.449-4.476-4.449-2.478 0-4.475 1.998-4.475 4.449v.112l-.017.111c-.063.42.075 1.217.559 2.371.457 1.094 1.132 2.298 1.858 3.43a33.214 33.214 0 002.056 2.871c.005.005.01.01.013.016a33.8 33.8 0 002-2.81c.724-1.132 1.405-2.345 1.878-3.456.495-1.166.666-2.006.613-2.481l-.009-.082zm-10.451-.082c-.512 3.4 5.551 11.141 5.975 11.048.332.19 6.362-7.542 5.976-11.048C27.982 7.663 25.307 5 22.006 5c-3.3 0-5.975 2.663-5.975 5.949z" clip-rule="evenodd"/>
  <path fill-rule="evenodd" d="M4 4v24h24V4H4zM3 2a1 1 0 00-1 1v26a1 1 0 001 1h26a1 1 0 001-1V3a1 1 0 00-1-1H3z" clip-rule="evenodd"/>
  <path d="M24 11a2 2 0 11-4 0 2 2 0 014 0z"/>
</svg>
