<svg xmlns="http://www.w3.org/2000/svg" width="32" height="32" viewBox="0 0 32 32">
  <path fill-rule="evenodd" d="M13.332 10.445L12.5 11l.832-.555.408.614a973.669 973.669 0 014.297 6.52 314.114 314.114 0 013.155 4.915c.419.67.766 1.242.997 1.65.113.2.213.386.28.534.028.06.08.179.11.312v.003c.01.047.054.24 0 .473a1.014 1.014 0 01-.986.784H3.001l-.001-1v1a1.001 1.001 0 01-.832-1.555l4.65-6.975 1.127-1.69 3.723-5.585a1 1 0 011.664 0zM4.87 24.25h15.057c-.13-.213-.274-.446-.43-.697a311.786 311.786 0 00-3.134-4.882 905.775 905.775 0 00-3.863-5.866L4.869 24.25z" clip-rule="evenodd"/>
  <path fill-rule="evenodd" d="M28 17H16v-2h12a2 2 0 012 2v11a2 2 0 01-2 2H17a2 2 0 01-2-2v-3.179h2V28h11V17z" clip-rule="evenodd"/>
  <path d="M6 11a7 7 0 0114 0c.004.131-.002.302-.023.503a6.417 6.417 0 01-.535 2A6.933 6.933 0 0118.568 15h2.366C21.59 13.791 22 12.428 22 11a9 9 0 10-18 0c0 2.549 1.064 5.07 2.812 6.726l.006-.006 1.127-1.69C6.754 14.766 6 12.9 6 11z"/>
</svg>
