<svg xmlns="http://www.w3.org/2000/svg" width="32" height="32" viewBox="0 0 32 32">
  <path d="M24.738 8c.429 0 .833.026 1.19.1l-6.654 7.587a.188.188 0 00.282.25l6.895-7.676c.377.164.66.422.804.818l-5.974 6.61a.186.186 0 00.274.252l6.13-6.602c.384-.05.77-.098 1.155-.14.244-.027.498 0 .734.078.297.07.481.368.411.674a.604.604 0 00-.026.07.87.87 0 01-.088.253 5.37 5.37 0 00-.603 2.677c-.009.149-.018.297-.035.507a19.944 19.944 0 01-.21-.164 6.836 6.836 0 00-.385-.29 9.707 9.707 0 00-.813-.508 1.264 1.264 0 00-.402-.044 1.04 1.04 0 00.009.403c.157.332.34.647.542.953a.4.4 0 01.035.525c-.059.107-.122.211-.19.312.326.401.417.998.417 1.665 0 1.207-.98 2.187-2.186 2.187h-.032a.46.46 0 01-.29-.008c-.728-.038-1.34-.224-1.648-.77a.568.568 0 00-.015.034c-.1.186-.207.369-.315.552-.12.204-.24.408-.35.62-.14.28-.324.29-.534.114a6.925 6.925 0 01-.778-.743 9.235 9.235 0 01-.505-.646c-.075-.101-.15-.204-.23-.308l-.121.19c-.132.207-.263.412-.403.606-.236.315-.385.333-.7.088-.223-.174-.42-.36-.633-.563l-.276-.26c.104.164.203.323.3.479.146.236.287.463.434.685.228.28.245.673.044.97-.193.346-.352.711-.51 1.076-.123.28-.245.561-.382.832-.184.384-.42.743-.7 1.076-.516.586-1.128.472-1.364-.263-.138-.438-.223-.89-.307-1.341-.039-.206-.078-.413-.122-.618a23.23 23.23 0 00-.192-.831.41.41 0 00-.463-.324h-.025c-.315.01-.622.018-.937.018a.67.67 0 01-.77-.543v-.017a2.094 2.094 0 01.385-1.898c.218-.306.568-.473.944-.438.569.035 1.146.052 1.715.07h.026c.093.006.182.004.272.002l.139-.002.008-.07-2.157-.33 3.82-4.263a2.515 2.515 0 001.46-1.005 3.432 3.432 0 011.189-1.05c.03-.019.062-.037.094-.053.08-1.066.863-1.438 1.912-1.536l-6.758 7.659a.188.188 0 00.281.25L24.722 8h.016zM18.538 11.735c.061.006.123.01.184.011l-3.606 4.121-.252-.038a2.383 2.383 0 00.097-2.108c.38-.031.618.147.873.337.102.077.207.155.325.223a7.939 7.939 0 000-.648 1.48 1.48 0 01.297-1.058c.157-.219.315-.438.446-.656a.622.622 0 01.743-.28c.298.052.595.087.893.096zM13.795 8.592c-.309-.108-.617-.22-.922-.34l-7.752 8.614a6.124 6.124 0 00.615.68l8.059-8.954zM14.308 8.77l-2.566 2.85a186.035 186.035 0 00.15 1.197l2.97-3.3.072-.284c.044-.174-.026-.253-.192-.314a148.08 148.08 0 00-.356-.123l-.078-.027zM7.44 17.194a48.191 48.191 0 001.603-1.212l2.059-2.287c-.032-.255-.057-.51-.078-.765a3.01 3.01 0 00.564-1.139l-5.476 6.084.147.114c.202.141.409.273.619.4l.544-.605a3.305 3.305 0 00-.41-.284l.428-.306zM7.819 18.09l-.502.557.33.189c.165.093.33.187.492.282l.005.003c.12.068.213.122.179.294a1.86 1.86 0 00.586 1.802.719.719 0 01.157.455c.005.315-.002.63-.009.945-.006.315-.013.63-.008.944.061.735.393 1.426.927 1.934l.016-.144c.055-.475.104-.905.167-1.335.044-.376.289-.7.639-.84a.638.638 0 00.236-.192l.152-.195c.281-.362.56-.721.827-1.1a4.24 4.24 0 00.481-.813.714.714 0 00-.227-.962 6.444 6.444 0 00-2.624-1.304c-.17-.02-.34-.061-.508-.102-.186-.044-.37-.09-.558-.107-.3-.032-.538-.156-.758-.31zM14.603 10.552l-1.937 2.153c.221-.142.44-.279.66-.41a2.724 2.724 0 001.224-1.557l.053-.186zM10.964 8.429a1.438 1.438 0 011.412-.372l-7.524 8.36a2.786 2.786 0 01-.27-1.081l5.62-6.424c.285-.092.548-.255.762-.483zM9.551 8.896a6.72 6.72 0 00-.555-.021h-.023a1.103 1.103 0 00-.522-.104l-3.889 4.443c.117.41.152.84.1 1.27l4.89-5.588zM5.603 10.41c.274-.783 1.054-1.205 1.973-1.4L4.36 12.688a3.181 3.181 0 00-.252-.427.34.34 0 00-.415-.194l1.553-1.776c.115.057.235.097.357.12zM4.772 10.073l-.117-.051a9.183 9.183 0 00-.705-.29c-.507-.184-.77-.105-.997.367-.219.445-.395.909-.57 1.37l-.19.494c-.06.144-.099.293-.145.466-.015.057-.03.118-.048.18.265-.086.517-.164.762-.24l2.01-2.296zM28.122 20.771c-.594.297-1.18.595-1.757.91a.51.51 0 00-.21.297c-.019.268-.015.536-.012.81.002.11.003.223.003.336.428-.079.83-.157 1.233-.245a.53.53 0 01.656.298c.17.315.361.62.564.945l.206.332.136-.227c.184-.304.356-.589.51-.884a2.033 2.033 0 00-.332-2.546l-.428.578h-.114l-.063-.156a2.598 2.598 0 01-.103-.273c-.044-.149-.123-.254-.289-.175z"/>
  <path fill-rule="evenodd" d="M4 4v24h24V4H4zM3 2a1 1 0 00-1 1v26a1 1 0 001 1h26a1 1 0 001-1V3a1 1 0 00-1-1H3z" clip-rule="evenodd"/>
  <g>
    <path d="M24.738 8c.429 0 .833.026 1.19.1l-6.654 7.587a.188.188 0 00.282.25l6.895-7.676c.377.164.66.422.804.818l-5.974 6.61a.186.186 0 00.274.252l6.13-6.602c.384-.05.77-.098 1.155-.14.244-.027.498 0 .734.078.297.07.481.368.411.674a.604.604 0 00-.026.07.87.87 0 01-.088.253 5.37 5.37 0 00-.603 2.677c-.009.149-.018.297-.035.507a19.944 19.944 0 01-.21-.164 6.836 6.836 0 00-.385-.29 9.707 9.707 0 00-.813-.508 1.264 1.264 0 00-.402-.044 1.04 1.04 0 00.009.403c.157.332.34.647.542.953a.4.4 0 01.035.525c-.059.107-.122.211-.19.312.326.401.417.998.417 1.665 0 1.207-.98 2.187-2.186 2.187h-.032a.46.46 0 01-.29-.008c-.728-.038-1.34-.224-1.648-.77a.568.568 0 00-.015.034c-.1.186-.207.369-.315.552-.12.204-.24.408-.35.62-.14.28-.324.29-.534.114a6.925 6.925 0 01-.778-.743 9.235 9.235 0 01-.505-.646c-.075-.101-.15-.204-.23-.308l-.121.19c-.132.207-.263.412-.403.606-.236.315-.385.333-.7.088-.223-.174-.42-.36-.633-.563l-.276-.26c.104.164.203.323.3.479.146.236.287.463.434.685.228.28.245.673.044.97-.193.346-.352.711-.51 1.076-.123.28-.245.561-.382.832-.184.384-.42.743-.7 1.076-.516.586-1.128.472-1.364-.263-.138-.438-.223-.89-.307-1.341-.039-.206-.078-.413-.122-.618a23.23 23.23 0 00-.192-.831.41.41 0 00-.463-.324h-.025c-.315.01-.622.018-.937.018a.67.67 0 01-.77-.543v-.017a2.094 2.094 0 01.385-1.898c.218-.306.568-.473.944-.438.569.035 1.146.052 1.715.07h.026c.093.006.182.004.272.002l.139-.002.008-.07-2.157-.33 3.82-4.263a2.515 2.515 0 001.46-1.005 3.432 3.432 0 011.189-1.05c.03-.019.062-.037.094-.053.08-1.066.863-1.438 1.912-1.536l-6.758 7.659a.188.188 0 00.281.25L24.722 8h.016zM18.538 11.735c.061.006.123.01.184.011l-3.606 4.121-.252-.038a2.383 2.383 0 00.097-2.108c.38-.031.618.147.873.337.102.077.207.155.325.223a7.939 7.939 0 000-.648 1.48 1.48 0 01.297-1.058c.157-.219.315-.438.446-.656a.622.622 0 01.743-.28c.298.052.595.087.893.096zM13.795 8.592c-.309-.108-.617-.22-.922-.34l-7.752 8.614a6.124 6.124 0 00.615.68l8.059-8.954zM14.308 8.77l-2.566 2.85a186.035 186.035 0 00.15 1.197l2.97-3.3.072-.284c.044-.174-.026-.253-.192-.314a148.08 148.08 0 00-.356-.123l-.078-.027zM7.44 17.194a48.191 48.191 0 001.603-1.212l2.059-2.287c-.032-.255-.057-.51-.078-.765a3.01 3.01 0 00.564-1.139l-5.476 6.084.147.114c.202.141.409.273.619.4l.544-.605a3.305 3.305 0 00-.41-.284l.428-.306zM7.819 18.09l-.502.557.33.189c.165.093.33.187.492.282l.005.003c.12.068.213.122.179.294a1.86 1.86 0 00.586 1.802.719.719 0 01.157.455c.005.315-.002.63-.009.945-.006.315-.013.63-.008.944.061.735.393 1.426.927 1.934l.016-.144c.055-.475.104-.905.167-1.335.044-.376.289-.7.639-.84a.638.638 0 00.236-.192l.152-.195c.281-.362.56-.721.827-1.1a4.24 4.24 0 00.481-.813.714.714 0 00-.227-.962 6.444 6.444 0 00-2.624-1.304c-.17-.02-.34-.061-.508-.102-.186-.044-.37-.09-.558-.107-.3-.032-.538-.156-.758-.31zM14.603 10.552l-1.937 2.153c.221-.142.44-.279.66-.41a2.724 2.724 0 001.224-1.557l.053-.186zM10.964 8.429a1.438 1.438 0 011.412-.372l-7.524 8.36a2.786 2.786 0 01-.27-1.081l5.62-6.424c.285-.092.548-.255.762-.483zM9.551 8.896a6.72 6.72 0 00-.555-.021h-.023a1.103 1.103 0 00-.522-.104l-3.889 4.443c.117.41.152.84.1 1.27l4.89-5.588zM5.603 10.41c.274-.783 1.054-1.205 1.973-1.4L4.36 12.688a3.181 3.181 0 00-.252-.427.34.34 0 00-.415-.194l1.553-1.776c.115.057.235.097.357.12zM4.772 10.073l-.117-.051a9.183 9.183 0 00-.705-.29c-.507-.184-.77-.105-.997.367-.219.445-.395.909-.57 1.37l-.19.494c-.06.144-.099.293-.145.466-.015.057-.03.118-.048.18.265-.086.517-.164.762-.24l2.01-2.296zM28.122 20.771c-.594.297-1.18.595-1.757.91a.51.51 0 00-.21.297c-.019.268-.015.536-.012.81.002.11.003.223.003.336.428-.079.83-.157 1.233-.245a.53.53 0 01.656.298c.17.315.361.62.564.945l.206.332.136-.227c.184-.304.356-.589.51-.884a2.033 2.033 0 00-.332-2.546l-.428.578h-.114l-.063-.156a2.598 2.598 0 01-.103-.273c-.044-.149-.123-.254-.289-.175z"/>
    <path fill-rule="evenodd" d="M4 4v24h24V4H4zM3 2a1 1 0 00-1 1v26a1 1 0 001 1h26a1 1 0 001-1V3a1 1 0 00-1-1H3z" clip-rule="evenodd"/>
  </g>
</svg>
