<svg xmlns="http://www.w3.org/2000/svg" width="32" height="32" viewBox="0 0 32 32">
  <path fill-rule="evenodd" d="M21.208 13c0 2.761-2.309 5-5.157 5s-5.157-2.239-5.157-5 2.309-5 5.157-5 5.157 2.239 5.157 5zm-2.063 0c0 1.657-1.385 3-3.094 3-1.709 0-3.094-1.343-3.094-3s1.385-3 3.094-3c1.709 0 3.094 1.343 3.094 3z" clip-rule="evenodd"/>
  <path fill-rule="evenodd" d="M18.962 26.784c-.51.545-1.023 1.093-1.549 1.672-.442.487-.894.996-1.362 1.544-.462-.55-.908-1.07-1.34-1.566-.978-1.127-1.882-2.131-2.73-3.074-1.883-2.092-3.494-3.883-5.056-6.046-1.967-2.723-2.54-7.095-1.188-10.15C7.673 4.792 11.464 2 16.051 2c4.466 0 8.124 2.897 10.125 7.118 1.537 3.24.813 7.545-1.258 10.492-2.282 3.246-4.1 5.19-5.956 7.174zm4.251-8.3c-2.208 3.141-3.872 4.917-5.67 6.835a159.3 159.3 0 00-1.467 1.58c-.914-1.047-1.762-1.988-2.55-2.865a438.64 438.64 0 01-.954-1.061c-1.467-1.642-2.732-3.11-3.957-4.806-1.746-2.417-1.944-6.041-.982-8.214C9.383 6.002 12.59 4 16.05 4c3.365 0 6.443 2.14 8.251 5.953 1.091 2.3.815 5.822-1.089 8.53z" clip-rule="evenodd"/>
</svg>
