<svg xmlns="http://www.w3.org/2000/svg" width="32" height="32" viewBox="0 0 32 32">
  <path fill-rule="evenodd" d="M23 21a5 5 0 100-10 5 5 0 000 10zm0 2a7 7 0 100-14 7 7 0 000 14z" clip-rule="evenodd"/>
  <path fill-rule="evenodd" d="M4 10a1 1 0 011-1h2a1 1 0 010 2H5a1 1 0 01-1-1zm6 0a1 1 0 011-1h12a1 1 0 110 2H11a1 1 0 01-1-1zM2 16a1 1 0 011-1h6a1 1 0 110 2H3a1 1 0 01-1-1zm10 0a1 1 0 011-1h4a1 1 0 110 2h-4a1 1 0 01-1-1zm-8.5 6a1 1 0 011-1H23a1 1 0 110 2H4.5a1 1 0 01-1-1z" clip-rule="evenodd"/>
</svg>
