<svg xmlns="http://www.w3.org/2000/svg" width="32" height="32" viewBox="0 0 32 32">
  <path d="M26 5.998a3.997 3.997 0 00-3.858 2.998H17.93a7.99 7.99 0 00-5.341-6.564A8 8 0 002.206 8.189a7.988 7.988 0 002.745 8.003A7.997 7.997 0 009 17.922v4.21a4 4 0 00-2.968 4.374A3.997 3.997 0 0010 30a4.001 4.001 0 003.968-3.494A3.996 3.996 0 0011 22.13v-4.209a7.952 7.952 0 003.898-1.619l3.669 3.668A3.95 3.95 0 0018 21.99a3.996 3.996 0 004.78 3.921 4 4 0 003.143-3.14 3.995 3.995 0 00-1.701-4.105A4.002 4.002 0 0022 17.991c-.712.004-1.41.2-2.02.567l-3.67-3.668a7.944 7.944 0 001.622-3.895h4.21a3.99 3.99 0 005.258 2.734 3.994 3.994 0 002.58-3.343A3.99 3.99 0 0026 5.998zm-14 19.99a1.998 1.998 0 01-2.39 1.96 2.001 2.001 0 01-1.458-2.726 1.999 1.999 0 013.261-.648A2 2 0 0112 25.987zm-2-9.996a6.003 6.003 0 01-5.544-3.702A5.994 5.994 0 018.83 4.114a6.003 6.003 0 016.16 2.55 5.995 5.995 0 011.01 3.332 6.003 6.003 0 01-6 5.996zm14 5.997a1.998 1.998 0 01-2.39 1.96 2.001 2.001 0 01-1.458-2.725A2 2 0 0124 21.99zm2-9.995a2.001 2.001 0 01-1.962-2.388A1.999 1.999 0 1126 11.995z"/>
</svg>
