<svg xmlns="http://www.w3.org/2000/svg" width="32" height="32" viewBox="0 0 32 32">
  <path fill-rule="evenodd" d="M12.727 2.706c1.136-.725 3.74-1.343 5.455.557.545.743 1.09 2.228-1.091 3.342-.888.5-1.63.883-2.326 1.244-1.596.828-2.957 1.533-5.31 3.213-.31.22-1.113 1.649 0 2.785.545.557 1.309 1.337 4.363 2.228V9.948C17.091 10.69 24.51 14.069 28 21.645l-11.454-3.342v10.583L13.818 30V17.865c-2-.225-6.327-1.456-7.636-4.575-.371-1.15.318-2.79 2.182-3.9L16 4.935c.182-.185.436-.668 0-1.114-.33-.192-.552-.23-1.09 0L4 8.833l8.727-6.127zM16.55 12.8v3.877l7 2.123c-1.014-1.292-4.162-4.67-7-6z" clip-rule="evenodd"/>
</svg>
