<svg xmlns="http://www.w3.org/2000/svg" width="32" height="32" viewBox="0 0 32 32">
  <path fill-rule="evenodd" d="M5 5v22h22V5H5zM4 3a1 1 0 00-1 1v24a1 1 0 001 1h24a1 1 0 001-1V4a1 1 0 00-1-1H4z" clip-rule="evenodd"/>
  <path fill-rule="evenodd" d="M27 11H5V9h22v2z" clip-rule="evenodd"/>
  <path d="M13.707 12.793a1 1 0 00-1.414 1.414l2.293 2.293-2.293 2.293a1 1 0 001.414 1.414L16 17.914l2.293 2.293a1 1 0 001.414-1.414L17.414 16.5l2.293-2.293a1 1 0 00-1.414-1.414L16 15.086l-2.293-2.293zM8.5 7.05a1.25 1.25 0 11-2.5 0 1.25 1.25 0 012.5 0zM12 7.05a1.25 1.25 0 11-2.5 0 1.25 1.25 0 012.5 0z"/>
  <path fill-rule="evenodd" d="M12.957 22.25a.75.75 0 01.75-.75h4.586a.75.75 0 010 1.5h-4.586a.75.75 0 01-.75-.75zM11 24.75a.75.75 0 01.75-.75h8.5a.75.75 0 010 1.5h-8.5a.75.75 0 01-.75-.75z" clip-rule="evenodd"/>
</svg>
