<svg xmlns="http://www.w3.org/2000/svg" width="36" height="36" fill="none" viewBox="0 0 36 36">
  <path fill="#005ACD" d="M35.7 13.642l.15-7.334-4.65 17.406.333 6.715a2.318 2.318 0 002.745-2.055L35.7 13.642z"/>
  <path fill="#2678E1" d="M.6 21.608h33.3v7.784c0 .672-.544 1.216-1.216 1.216H2.207a1.216 1.216 0 01-1.215-1.155L.6 21.608z"/>
  <path fill="url(#paint0_radial_428_5089)" d="M6.199 5.912a1.216 1.216 0 011.144-.804h27.29c.728 0 1.293.635 1.209 1.357l-1.817 15.568a1.216 1.216 0 01-1.208 1.075H1.731c-.842 0-1.43-.836-1.144-1.629L6.199 5.912z"/>
  <path fill="#E9F8FF" d="M10.143 12.286L6.862 9.601l5.336-2.798-.554 1.477 8.56-.112-.949 2.53-8.559.111-.553 1.477zM30.048 9.372l3.28 2.685-5.335 2.797.554-1.476-8.56.111.948-2.528 8.56-.113.553-1.476zM4.835 16.056l3.28 2.685.554-1.477 8.56-.112.947-2.53-8.559.113.554-1.477-5.336 2.798zM28.021 15.826l3.28 2.685-5.335 2.798.554-1.477-8.56.112.949-2.529 8.559-.112.553-1.477z"/>
  <defs>
    <radialGradient id="paint0_radial_428_5089" cx="0" cy="0" r="1" gradientTransform="matrix(.19836 9.11973 -38.0418 .82742 17.785 13.977)" gradientUnits="userSpaceOnUse">
      <stop stop-color="#04BDFF"/>
      <stop offset="1" stop-color="#08F"/>
    </radialGradient>
  </defs>
</svg>
