<svg xmlns="http://www.w3.org/2000/svg" width="36" height="36" fill="none" viewBox="0 0 36 36">
  <g clip-path="url(#clip0_146:2007)">
    <path fill="#A7A8AC" d="M26.983 33.379c0 1.363-1.518 2.47-3.386 2.47H12.77c-1.87 0-3.386-1.107-3.386-2.47V2.465c0-1.362 1.518-2.467 3.386-2.467h10.826c1.87 0 3.387 1.105 3.387 2.467V33.38z"/>
    <path fill="#D1D2D3" d="M16.01 33.379V2.465c0-1.361 1.519-2.467 3.392-2.467h-6.63c-1.87 0-3.387 1.105-3.387 2.467V33.38c0 1.363 1.519 2.47 3.386 2.47h6.63c-1.87 0-3.391-1.107-3.391-2.47z"/>
    <path fill="#243438" d="M19.019 31.85v-2.877c0-.023-.017-.045-.035-.045h-2.226c-.016 0-.034.022-.034.045v2.877c0 .01.005.021.008.028h.003c.006.008.014.014.024.014h2.225c.018 0 .035-.02.035-.042z"/>
    <path fill="#324449" d="M24.396 20.176V15.37c0-.037-.084-.072-.187-.072H12.157c-.097 0-.186.034-.186.072v4.807c0 .022.025.039.048.05 0 0 .005 0 .005.004h.007c.03.011.078.02.126.02H24.21c.103 0 .187-.035.187-.074z"/>
    <path fill="#243438" d="M18.596 26.696v-1.823c0-.015-.01-.03-.022-.03h-1.408c-.012 0-.021.014-.021.03v1.823c0 .006.002.012.006.017v.002c.003.005.008.006.015.006h1.407c.014 0 .023-.012.023-.025zM25.357 6.626c0 .266-3.21.481-7.175.481-3.964 0-7.175-.215-7.175-.48s3.211-.48 7.175-.48 7.175.215 7.175.48z"/>
  </g>
  <defs>
    <clipPath id="clip0_146:2007">
      <path fill="#fff" d="M0 0h36v36H0z"/>
    </clipPath>
  </defs>
</svg>
