<svg xmlns="http://www.w3.org/2000/svg" width="36" height="36" fill="none" viewBox="0 0 36 36">
  <g clip-path="url(#clip0_428_5127)">
    <path fill="url(#paint0_radial_428_5127)" d="M17.937 15.43l.267.001c3.07 0 6.067-.315 8.96-.913l-.284.05a17.666 17.666 0 006.628-2.593l-.067.04v3.416c0 .924-.693 1.781-2.08 2.571a18.4 18.4 0 01-5.54 1.863l-.11.015c-2.473.468-4.984.7-7.501.695l-.285-.002h.015l-.271.002c-2.653 0-5.246-.254-7.757-.735l.256.04a18.74 18.74 0 01-5.755-1.927l.1.05c-1.385-.79-2.078-1.648-2.078-2.572v-3.415A17.428 17.428 0 008.89 14.55l.107.015c2.608.55 5.606.865 8.676.865l.282-.001h-.018zm0 15.427l.267.002c3.07 0 6.067-.315 8.96-.914l-.284.05a17.666 17.666 0 006.628-2.592l-.067.04v3.416c0 .924-.693 1.78-2.08 2.57a18.4 18.4 0 01-5.54 1.864l-.11.015c-2.473.468-4.984.7-7.501.694l-.285-.001h.015l-.271.001c-2.653 0-5.246-.253-7.757-.735l.256.04a18.77 18.77 0 01-5.755-1.927l.1.05c-1.386-.79-2.08-1.647-2.08-2.571v-3.416a17.428 17.428 0 006.455 2.535l.107.015c2.608.55 5.606.866 8.677.866l.282-.002h-.017zm0-7.714l.267.001c3.07 0 6.067-.315 8.96-.913l-.284.05a17.666 17.666 0 006.628-2.593l-.067.04v3.416c0 .924-.693 1.781-2.08 2.571a18.4 18.4 0 01-5.54 1.863l-.11.015c-2.473.468-4.984.7-7.501.695l-.285-.002h.015l-.271.002c-2.653 0-5.246-.254-7.757-.735l.256.04a18.77 18.77 0 01-5.755-1.927l.1.05c-1.386-.79-2.08-1.648-2.08-2.572V19.73a17.428 17.428 0 006.455 2.535l.107.015c2.608.55 5.606.865 8.677.865l.282-.001h-.017zm0-23.144l.262-.001a41.1 41.1 0 017.763.736l-.256-.04a18.767 18.767 0 015.755 1.927l-.1-.05c1.385.79 2.078 1.648 2.078 2.572v2.57c0 .925-.693 1.782-2.079 2.572a18.4 18.4 0 01-5.54 1.863l-.11.015c-2.473.468-4.985.7-7.502.694l-.284-.001h.015l-.272.001c-2.653 0-5.245-.253-7.757-.735l.256.04a18.77 18.77 0 01-5.755-1.927l.101.05c-1.384-.79-2.077-1.647-2.077-2.571V5.143c0-.924.693-1.781 2.079-2.571A18.392 18.392 0 0110.056.709l.11-.015A39.803 39.803 0 0117.953 0h-.015v-.002z"/>
  </g>
  <defs>
    <radialGradient id="paint0_radial_428_5127" cx="0" cy="0" r="1" gradientTransform="rotate(89.452 -.143 17.765) scale(18.2426 33.4686)" gradientUnits="userSpaceOnUse">
      <stop stop-color="#04BDFF"/>
      <stop offset="1" stop-color="#08F"/>
    </radialGradient>
    <clipPath id="clip0_428_5127">
      <path fill="#fff" d="M0 0h36v36H0z"/>
    </clipPath>
  </defs>
</svg>
