<svg xmlns="http://www.w3.org/2000/svg" width="36" height="36" fill="none" viewBox="0 0 36 36">
  <path fill="#2678E1" fill-rule="evenodd" d="M36 21.832v.31h-.01c-.316 5.13-8.25 9.239-17.99 9.239-9.74 0-17.674-4.108-17.99-9.24H0v-7.964h7.198c3.009-1.2 6.749-1.912 10.802-1.912s7.793.712 10.802 1.912H36v7.655z" clip-rule="evenodd"/>
  <path fill="url(#paint0_radial_428_5102)" d="M36 14.177c0 5.279-8.059 9.558-18 9.558s-18-4.28-18-9.558S8.059 4.62 18 4.62s18 4.279 18 9.557z"/>
  <path fill="#E9F8FF" fill-rule="evenodd" d="M21.048 9.03l7.971-1.192.66 3.169-2.325-.533-5.119 3.053-3.98-.912 5.118-3.052-2.325-.533zm-5.335 10.534l-8.246 1.049-.317-3.167 2.307.57 5.55-2.95 3.95.977-5.55 2.95 2.306.571zM7.454 14.5l8.18-1.475-.648-3.115-2.029 1.236L6.501 9.03l-2.678 2.117 6.053 1.88L7.454 14.5zm22.168-.296l-7.962 1.255.323 3.221 2.058-1.206 6.224 1.8 3.098-2.489-5.799-1.375 2.058-1.206z" clip-rule="evenodd"/>
  <defs>
    <radialGradient id="paint0_radial_428_5102" cx="0" cy="0" r="1" gradientTransform="matrix(.20209 9.68466 -38.75806 .80875 17.596 14.038)" gradientUnits="userSpaceOnUse">
      <stop stop-color="#04BDFF"/>
      <stop offset="1" stop-color="#08F"/>
    </radialGradient>
  </defs>
</svg>
