<svg xmlns="http://www.w3.org/2000/svg" width="36" height="36" fill="none" viewBox="0 0 36 36">
  <path fill="url(#paint0_linear_428_5115)" d="M11.845 0h19.27c.672 0 1.217.545 1.217 1.216v28.156c0 .325-.13.637-.361.865l-5.212 5.155.145-29.632H3.937l.565-1.26L10.47.426A2.432 2.432 0 0111.845 0z"/>
  <path fill="#38B2FF" d="M3.892 5.536c0-.671.544-1.216 1.216-1.216h20.608c.671 0 1.216.545 1.216 1.216v29.248c0 .672-.545 1.216-1.216 1.216H5.108a1.216 1.216 0 01-1.216-1.216V5.536z"/>
  <path fill="#D9F3FF" fill-rule="evenodd" d="M7.937 17.027c0 .537.436.973.973.973h12.892a.973.973 0 00.973-.973v-6.324a.973.973 0 00-.973-.973H8.91a.973.973 0 00-.973.973v6.324zm13.865-6.324H8.91v2.919h12.892v-2.92zm0 3.892H8.91v2.432h12.892v-2.432zM17.394 25.054a2.432 2.432 0 11-4.865 0 2.432 2.432 0 014.865 0zm-.973 0a1.46 1.46 0 11-2.92 0 1.46 1.46 0 012.92 0z" clip-rule="evenodd"/>
  <defs>
    <linearGradient id="paint0_linear_428_5115" x1="-2.066" x2="32.428" y1="-2.311" y2="32.643" gradientUnits="userSpaceOnUse">
      <stop stop-color="#005ACD"/>
      <stop offset=".52" stop-color="#0194FF"/>
      <stop offset="1" stop-color="#005ACD"/>
    </linearGradient>
  </defs>
</svg>
