<svg xmlns="http://www.w3.org/2000/svg" width="32" height="32" viewBox="0 0 32 32">
  <path d="M3 4.4h21a.6.6 0 01.6.6v7H26V5a2 2 0 00-2-2H3a2 2 0 00-2 2v18a2 2 0 002 2h10v-1.4H3a.6.6 0 01-.6-.6V5a.6.6 0 01.6-.6z"/>
  <path d="M23.955 25.432a.182.182 0 00-.256-.012l-2.756 2.502c-1.276 1.158-3.336 1.187-4.615-.224-1.28-1.411-1.052-3.457.224-4.615l2.756-2.502a.182.182 0 00.012-.255l-.857-.944a.182.182 0 00-.255-.013l-2.756 2.502a4.897 4.897 0 00-.336 6.923 4.899 4.899 0 006.923.335l2.756-2.502a.182.182 0 00.012-.255l-.852-.94zm6.37-10.44a4.897 4.897 0 00-6.923-.335l-2.758 2.502a.182.182 0 00-.013.255l.855.942c.067.073.182.079.255.012l2.757-2.501c1.276-1.158 3.336-1.188 4.615.223 1.28 1.412 1.052 3.457-.224 4.615l-2.756 2.502a.182.182 0 00-.012.255l.857.944c.066.074.182.08.255.013l2.756-2.502a4.903 4.903 0 00.336-6.925zm-5.232 3.85a.182.182 0 00-.256-.013l-5.372 4.873a.182.182 0 00-.012.256l.852.94c.067.073.182.079.256.012l5.37-4.874a.182.182 0 00.012-.256l-.85-.939zM10.568 10.896c0 .83-.252 1.467-.758 1.91-.505.441-1.25.663-2.233.663-.984 0-1.729-.222-2.234-.664-.502-.442-.754-1.077-.754-1.904V6.61h1.742v4.192c0 .466.098.813.293 1.042.196.229.513.343.953.343.433 0 .749-.11.947-.33.202-.219.302-.571.302-1.055V6.61h1.742v4.286zM15.634 8.667a.855.855 0 00-.104-.433.696.696 0 00-.356-.284 1.272 1.272 0 00-.41-.086 7.22 7.22 0 00-.547-.018h-.627v1.81h.533c.276 0 .508-.014.695-.041a.995.995 0 00.469-.185.881.881 0 00.261-.307c.058-.114.086-.266.086-.456zm2.703 4.662h-2.116l-1.832-2.464h-.799v2.464h-1.723v-6.72h2.905c.397 0 .739.023 1.025.068.285.046.553.143.803.294.253.15.453.346.6.586.15.238.226.537.226.898 0 .497-.116.901-.348 1.214-.228.313-.556.573-.983.78l2.242 2.88zM23.615 13.329H18.77v-6.72h1.733v5.42h3.113v1.3z"/>
</svg>
