<svg xmlns="http://www.w3.org/2000/svg" width="32" height="32" viewBox="0 0 32 32">
  <path d="M10.2 4.2v-2h1.6v2h8.4v-2h1.6v2H26A1.8 1.8 0 0127.8 6v5.8h-1.6v-6h-4.4v2h-1.6v-2h-8.4v2h-1.6v-2H5.8v20.4h4v1.6H6A1.8 1.8 0 014.2 26V6A1.8 1.8 0 016 4.2h4.2z"/>
  <path fill-rule="evenodd" d="M21.2 16.26V14.2h1.6v2.06l.167.027c.86.145 1.677.484 2.388.99l.138.1 1.457-1.458 1.131 1.131-1.456 1.458.098.138a5.76 5.76 0 01.99 2.387l.028.167H29.8v1.6h-2.06l-.027.167a5.758 5.758 0 01-.99 2.388l-.1.138 1.458 1.457-1.131 1.131-1.458-1.456-.138.098a5.757 5.757 0 01-2.387.99l-.167.028v2.06h-1.6v-2.06l-.167-.028a5.758 5.758 0 01-2.388-.99l-.138-.1-1.457 1.458-1.131-1.131 1.456-1.458-.098-.138a5.763 5.763 0 01-.99-2.387l-.028-.167H14.2v-1.6h2.06l.027-.167a5.76 5.76 0 01.99-2.388l.1-.138-1.458-1.457 1.131-1.131 1.458 1.456.138-.098a5.76 5.76 0 012.387-.99l.167-.028zm2.407 1.86a4.2 4.2 0 10-3.214 7.76 4.2 4.2 0 003.214-7.76z" clip-rule="evenodd"/>
</svg>
