<svg xmlns="http://www.w3.org/2000/svg" width="32" height="32" viewBox="0 0 32 32">
  <path fill-rule="evenodd" d="M2 9.509a.75.75 0 01.75-.75h11.517a.75.75 0 010 1.5H2.75a.75.75 0 01-.75-.75zM17 9.509a.75.75 0 01.75-.75h11.517a.75.75 0 010 1.5H17.75a.75.75 0 01-.75-.75z" clip-rule="evenodd"/>
  <path fill-rule="evenodd" d="M8.509 16.017a.75.75 0 01-.75-.75V3.75a.75.75 0 011.5 0v11.517a.75.75 0 01-.75.75zM9 20.485L4.613 28.01h8.777l-4.388-7.524zm.432-2.236a.5.5 0 00-.863 0l-6.13 10.508a.5.5 0 00.432.752H15.13a.5.5 0 00.432-.752l-6.13-10.508zM23 26.532l-4.388-7.523h8.777L23 26.532zm.432 2.236a.5.5 0 01-.863 0l-6.13-10.508a.5.5 0 01.432-.752H29.13a.5.5 0 01.432.753l-6.13 10.507z" clip-rule="evenodd"/>
</svg>
