<svg xmlns="http://www.w3.org/2000/svg" width="32" height="32" viewBox="0 0 32 32">
  <path d="M4.784 26.922c-.473 0-.926-.19-1.26-.524l1.26-1.006h22.432a.255.255 0 00.255-.255v-1.722l-5.173-5.173a.255.255 0 00-.36 0L19.3 20.88a1.786 1.786 0 01-2.523 0L13.93 18.03l1.081-1.081 2.848 2.847a.255.255 0 00.36 0l2.637-2.636a1.786 1.786 0 012.523 0l4.092 4.091V6.784a.256.256 0 00-.075-.18l1.08-1.08c.335.334.524.787.524 1.26v18.353a1.786 1.786 0 01-1.784 1.785H4.784z"/>
  <path fill-rule="evenodd" d="M31.358 4.518L2 29 .719 27.464 30.077 2.982l1.281 1.536z" clip-rule="evenodd"/>
  <path d="M3.523 5.523A1.786 1.786 0 014.784 5H24l-1.882 1.53H4.784a.255.255 0 00-.255.254v12.429l5.112-5.111a1.787 1.787 0 012.523 0l.398.398-1.19.973-.29-.29a.255.255 0 00-.36 0L4.5 21 3 22.359V6.784c0-.473.189-.926.523-1.26z"/>
  <path d="M16.055 11.644a1.276 1.276 0 102.441-.74 1.276 1.276 0 00-2.441.74z"/>
</svg>
