<svg xmlns="http://www.w3.org/2000/svg" width="32" height="32" viewBox="0 0 32 32">
  <path fill-rule="evenodd" d="M6.667 4.6H8.6V1.933h1.467V4.6h11.866V1.933H23.4V4.6h1.933A2.067 2.067 0 0127.4 6.667v8.379l.173.175a8.678 8.678 0 012.494 6.112 8.727 8.727 0 01-8.734 8.734 8.678 8.678 0 01-6.112-2.495l-.175-.172h-8.38A2.067 2.067 0 014.6 25.333V6.667c0-1.149.918-2.067 2.067-2.067zm19.266 1.467H6.067v3.866h19.866V6.067zm0 5.333H6.067v14.533h7.774l-.405-.856a8.751 8.751 0 01-.836-3.744 8.726 8.726 0 018.733-8.733c1.337 0 2.61.3 3.744.836l.856.405V11.4zm2.467 9.933a7.064 7.064 0 00-7.067-7.066 7.064 7.064 0 00-7.066 7.066 7.064 7.064 0 007.066 7.067 7.064 7.064 0 007.067-7.067z" clip-rule="evenodd"/>
  <path fill-rule="evenodd" d="M20 23v-6h1.5v6H20z" clip-rule="evenodd"/>
  <path fill-rule="evenodd" d="M25.5 23H20v-1.5h5.5V23z" clip-rule="evenodd"/>
</svg>
