<svg xmlns="http://www.w3.org/2000/svg" width="32" height="32" viewBox="0 0 32 32">
  <path fill-rule="evenodd" d="M2 28.174V2h1.623v26.377h3.45V12.145h7.71v16.232h4.463V16.203h7.71v12.174H30V30H3.826A1.826 1.826 0 012 28.174zm11.16-14.406H8.695v14.609h4.463V13.768zm12.173 4.058H20.87v10.55h4.463v-10.55z" clip-rule="evenodd"/>
  <path d="M10.046 5.551c.355.01.703.122.998.328l10.733 7.868 3.655-4.93 1.305.966-3.536 4.77a1.827 1.827 0 01-2.547.384L9.939 7.081l-3.005 4.07-1.302-.968 2.904-3.896a1.824 1.824 0 011.51-.736z"/>
</svg>
