<svg xmlns="http://www.w3.org/2000/svg" width="36" height="36" fill="none" viewBox="0 0 36 36">
  <path fill="#77889A" d="M4.834 7.077c.214-.209.507-.327.813-.327h24.706c.306 0 .599.118.813.327.215.209.334.49.334.782v4.507c0 .292-.12.573-.334.782a1.167 1.167 0 01-.813.327c-.306 0-.599-.119-.814-.327a1.091 1.091 0 01-.333-.782V8.968H19.147v20.314h3.485c.307 0 .6.118.814.327.214.208.333.49.333.782 0 .292-.119.573-.333.782a1.167 1.167 0 01-.814.327h-9.264c-.307 0-.6-.119-.814-.327a1.09 1.09 0 01-.333-.782c0-.292.119-.574.333-.782.215-.209.507-.328.814-.328h3.485V8.969H6.794v3.398c0 .292-.12.573-.333.782a1.167 1.167 0 01-.814.327c-.306 0-.599-.119-.813-.327a1.091 1.091 0 01-.334-.782V7.859c0-.292.12-.573.334-.782z"/>
</svg>
