<svg xmlns="http://www.w3.org/2000/svg" width="32" height="32" viewBox="0 0 32 32">
  <path d="M11.064 8.752a.72.72 0 01.509-.21h8.854a.72.72 0 01.719.719v1.77a.72.72 0 01-1.439 0V9.98H16.72v10.956h1.051a.72.72 0 010 1.44H14.23a.72.72 0 010-1.44h1.051V9.98h-2.988v1.051a.72.72 0 01-1.438 0v-1.77a.72.72 0 01.21-.509z"/>
  <path fill-rule="evenodd" d="M28 6.4H4a.6.6 0 00-.6.6v17a.6.6 0 00.6.6h24a.6.6 0 00.6-.6V7a.6.6 0 00-.6-.6zM4 5a2 2 0 00-2 2v17a2 2 0 002 2h24a2 2 0 002-2V7a2 2 0 00-2-2H4z" clip-rule="evenodd"/>
</svg>
