<svg xmlns="http://www.w3.org/2000/svg" width="32" height="32" viewBox="0 0 32 32">
  <path d="M3 16a16.433 16.433 0 00.001.2M25.388 22.11a.2.2 0 00-.168-.31H21a.8.8 0 110-1.6h5.8a1 1 0 011 1V27a.8.8 0 11-1.6 0v-2.68a.2.2 0 00-.354-.128 12.8 12.8 0 01-22.607-7.18c-.035-.446.328-.812.776-.812.437 0 .79.35.828.786a11.2 11.2 0 0020.545 5.123zM28.8 15.813v-.031l-.001-.169M6.412 9.704a.2.2 0 00.168.31h4.22a.8.8 0 110 1.6H5a1 1 0 01-1-1v-5.8a.8.8 0 111.6 0v2.68a.2.2 0 00.354.127 12.8 12.8 0 0122.607 7.18c.035.446-.328.812-.776.812-.436 0-.79-.35-.828-.786A11.2 11.2 0 006.412 9.704z"/>
  <path d="M15.5 11.75a.75.75 0 00-1.5 0v5.5c0 .414.336.75.75.75h5.5a.75.75 0 000-1.5H15.5v-4.75z"/>
</svg>
