<svg xmlns="http://www.w3.org/2000/svg" width="32" height="32" viewBox="0 0 32 32">
  <path fill-rule="evenodd" d="M4 8.887C4 7.35 5.216 5.88 7.352 4.78 9.473 3.685 12.424 3 15.7 3c3.276 0 6.227.685 8.348 1.779C26.184 5.88 27.4 7.349 27.4 8.887V22.95c0 2.038-1.58 3.657-3.636 4.717C21.66 28.752 18.807 29.4 15.7 29.4s-5.96-.648-8.064-1.733C5.58 26.607 4 24.988 4 22.95V8.887zM15.7 4.65c-3.086 0-5.787.65-7.647 1.608-1.98 1.02-2.471 2.066-2.471 2.63 0 .563.491 1.608 2.471 2.629 1.86.959 4.56 1.608 7.647 1.608 3.086 0 5.787-.65 7.647-1.608 1.98-1.02 2.471-2.066 2.471-2.63 0-.563-.491-1.608-2.471-2.629-1.86-.959-4.56-1.608-7.647-1.608zm10.118 10.834V11.6l-.48.36c-2.168 1.629-5.705 2.815-9.638 2.815-4.017 0-7.536-1.03-9.64-2.571l-.478-.35v3.63c0 1.066.86 2.26 2.754 3.238 1.844.95 4.446 1.562 7.364 1.562s5.52-.612 7.364-1.562c1.895-.978 2.754-2.172 2.754-3.238zm0 7.466v-4.136l-.486.386a9.605 9.605 0 01-1.568 1c-2.104 1.086-4.957 1.734-8.064 1.734s-5.96-.648-8.064-1.733a9.606 9.606 0 01-1.568-1l-.486-.387v4.136c0 1.066.86 2.26 2.754 3.238 1.844.95 4.446 1.562 7.364 1.562s5.52-.611 7.364-1.562c1.895-.977 2.754-2.172 2.754-3.238z" clip-rule="evenodd"/>
</svg>
