<svg xmlns="http://www.w3.org/2000/svg" width="32" height="32" viewBox="0 0 32 32">
  <path fill-rule="evenodd" d="M25.4 9.3l-.212.212-7.006-7.006-.005-.005a.608.608 0 00-.469-.201H7.7A1.706 1.706 0 006 4v11h1.4V3.7H16V10a1.706 1.706 0 001.7 1.7H24V15h1.4V9.992a.607.607 0 00-.2-.47l.2-.222zm-8-5.624l6.624 6.624H17.4V3.676z" clip-rule="evenodd"/>
  <path d="M25.4 25H24v3.3H7.4V25H6v3a1.706 1.706 0 001.7 1.7h16a1.706 1.706 0 001.7-1.701V25z"/>
  <path fill-rule="evenodd" d="M26 16.4H6a.6.6 0 00-.6.6v6a.6.6 0 00.6.6h20a.6.6 0 00.6-.6v-6a.6.6 0 00-.6-.6zM6 15a2 2 0 00-2 2v6a2 2 0 002 2h20a2 2 0 002-2v-6a2 2 0 00-2-2H6z" clip-rule="evenodd"/>
  <path d="M11.212 22.6H9.9v-2.242H7.962V22.6H6.649v-5.09h1.313v1.863H9.9v-1.862h1.312V22.6zM16.007 18.495h-1.59V22.6h-1.312v-4.105h-1.59v-.984h4.492v.984zM21.642 22.6h-1.306v-3.408l-.943 2.212h-.906l-.944-2.212V22.6h-1.237v-5.09h1.524l1.146 2.554 1.141-2.553h1.525V22.6zM26.125 22.6h-3.671v-5.09h1.312v4.106h2.359v.984z"/>
</svg>
