<svg xmlns="http://www.w3.org/2000/svg" width="32" height="32" viewBox="0 0 32 32">
  <path d="M22 28.7c-1.671 0-2.909-.57-3.694-1.666L18 26.586l-.306.448C16.91 28.131 15.671 28.7 14 28.7a.7.7 0 010-1.4c1.327 0 2.09-.43 2.556-1.082.498-.7.744-1.77.744-3.218V9c0-1.447-.246-2.52-.744-3.219-.466-.65-1.227-1.08-2.556-1.08a.7.7 0 110-1.4c1.669-.001 2.907.568 3.694 1.665l.306.449.306-.45C19.091 3.87 20.329 3.3 22 3.3a.7.7 0 110 1.4c-1.327 0-2.09.431-2.556 1.082-.498.7-.744 1.77-.744 3.218v14c0 1.447.247 2.52.744 3.219.466.65 1.227 1.081 2.556 1.081a.7.7 0 110 1.4zM1.798 9.798A1.7 1.7 0 013 9.3h9.7v1.4h-10v10.6h10v1.4H3A1.7 1.7 0 011.3 21V11c0-.45.18-.883.498-1.202zM23.3 10.7V9.3H29a1.7 1.7 0 011.7 1.7v10a1.7 1.7 0 01-1.7 1.7h-5.7v-1.4h6V10.7h-6z"/>
</svg>
