<svg xmlns="http://www.w3.org/2000/svg" width="32" height="32" viewBox="0 0 32 32">
  <path d="M22 28.7c-1.671 0-2.909-.57-3.694-1.666L18 26.586l-.306.448C16.91 28.131 15.671 28.7 14 28.7a.7.7 0 010-1.4c1.327 0 2.09-.43 2.556-1.082.498-.7.744-1.77.744-3.218V9c0-1.447-.246-2.52-.744-3.219-.466-.65-1.227-1.08-2.556-1.08a.7.7 0 110-1.4c1.669-.001 2.907.568 3.694 1.665l.306.449.306-.45C19.091 3.87 20.329 3.3 22 3.3a.7.7 0 110 1.4c-1.327 0-2.09.431-2.556 1.082-.498.7-.744 1.77-.744 3.218v14c0 1.447.247 2.52.744 3.219.466.65 1.227 1.081 2.556 1.081a.7.7 0 110 1.4z"/>
  <path fill-rule="evenodd" d="M3.215 22.84A2.002 2.002 0 012 21v-3.65h1.4V21c0 .084.016.16.045.23l.095.23.23.095A.593.593 0 004 21.6h4.275V23H4a1.994 1.994 0 01-.785-.16zm16.56.16v-1.4h-8.55V23h8.55zm-8.55-13v1.4h8.55V10h-8.55zM2 15.65h1.4V12c0-.084.016-.16.045-.23l.095-.23.23-.095A.593.593 0 014 11.4h4.275V10H4a1.994 1.994 0 00-1.848 1.234A1.994 1.994 0 002 12v3.65zM22.725 10H27a1.994 1.994 0 011.84 1.215l.008.02c.098.235.152.494.152.765v3.65h-1.4V12a.593.593 0 00-.045-.23l-.096-.23-.23-.095A.593.593 0 0027 11.4h-4.275V10zM29 17.35V21a1.994 1.994 0 01-1.234 1.848A1.994 1.994 0 0127 23h-4.275v-1.4H27c.084 0 .16-.016.23-.045l.23-.096.095-.23A.593.593 0 0027.6 21v-3.65H29z" clip-rule="evenodd"/>
</svg>
