<svg xmlns="http://www.w3.org/2000/svg" width="32" height="32" viewBox="0 0 32 32">
  <path fill-rule="evenodd" d="M15.013 4.453a.75.75 0 01.034 1.06l-7.5 8a.75.75 0 01-1.077.017l-4-4a.75.75 0 011.06-1.06l3.453 3.452 6.97-7.435a.75.75 0 011.06-.034zM17.25 10a.75.75 0 01.75-.75h11a.75.75 0 010 1.5H18a.75.75 0 01-.75-.75zM2.47 16.47a.75.75 0 011.06 0L8 20.94l4.47-4.47a.75.75 0 111.06 1.06L9.06 22l4.47 4.47a.75.75 0 11-1.06 1.06L8 23.06l-4.47 4.47a.75.75 0 01-1.06-1.06L6.94 22l-4.47-4.47a.75.75 0 010-1.06zM17.25 22a.75.75 0 01.75-.75h11a.75.75 0 010 1.5H18a.75.75 0 01-.75-.75z" clip-rule="evenodd"/>
</svg>
