<svg xmlns="http://www.w3.org/2000/svg" width="32" height="32" viewBox="0 0 32 32">
  <path fill-rule="evenodd" d="M8.704 5.67a.85.85 0 011.592 0l4.867 12.979v.003c.006.012.01.024.015.037l2.618 6.981a.85.85 0 01-1.592.597l-2.382-6.35a.15.15 0 00-.14-.098H5.318a.15.15 0 00-.14.097l-2.382 6.351a.85.85 0 11-1.592-.597l2.617-6.978.001-.003a.871.871 0 01.014-.037L8.704 5.67zm.936 3.094a.15.15 0 00-.28 0l-3.433 9.152a.15.15 0 00.14.203h6.865a.15.15 0 00.14-.203L9.64 8.764zM19.593 14.636c.897-2.113 3.01-3.517 5.407-3.517 1.638 0 3.109.572 4.174 1.618 1.067 1.049 1.676 2.524 1.676 4.232v9a.85.85 0 01-1.7 0v-.836a.15.15 0 00-.256-.107c-.059.06-.12.117-.181.173-1.35 1.229-3.147 1.682-4.963 1.682-1.222 0-2.373-.407-3.228-1.193-.862-.795-1.372-1.932-1.372-3.282 0-1.524.71-2.617 1.715-3.33.968-.685 2.188-1.01 3.286-1.139 1.688-.199 3.523-.28 4.852-.308a.15.15 0 00.147-.15v-.51c0-1.292-.454-2.317-1.168-3.019-.716-.704-1.745-1.131-2.982-1.131-1.728 0-3.217 1.009-3.843 2.482a.848.848 0 01-1.114.45.85.85 0 01-.45-1.115zm9.557 4.845a.15.15 0 00-.153-.151c-1.285.027-3.044.107-4.648.296-.95.111-1.855.38-2.5.838-.608.43-1 1.03-1 1.942 0 .9.33 1.576.825 2.031.503.463 1.227.744 2.076.744 1.559 0 2.886-.39 3.818-1.239.907-.826 1.567-2.204 1.582-4.461z" clip-rule="evenodd"/>
</svg>
