<svg xmlns="http://www.w3.org/2000/svg" width="32" height="32" viewBox="0 0 32 32">
  <path d="M25.252 19.581c.547-.13.986-.258 1.317-.388V15.54h-3.414v1.397h1.476v1.451a6.275 6.275 0 01-.482.02c-.848 0-1.49-.217-1.924-.65-.434-.435-.65-1.061-.65-1.88 0-.4.06-.753.178-1.058.123-.308.289-.562.497-.76a2.13 2.13 0 01.74-.458c.276-.1.582-.149.92-.149.289 0 .56.038.816.114.258.077.483.168.675.274.166.09.338.199.517.328.18.126.315.223.408.293h.213v-1.735c-.54-.261-1.03-.435-1.47-.521a6.988 6.988 0 00-1.392-.135c-1.286 0-2.288.353-3.007 1.059-.72.702-1.079 1.628-1.079 2.778 0 1.206.357 2.152 1.069 2.838.712.683 1.698 1.024 2.957 1.024.543 0 1.089-.063 1.635-.189zM11.584 13.647h-2.31v5.969h-1.91v-5.97h-2.31v-1.43h6.53v1.43z"/>
  <path fill-rule="evenodd" d="M19.266 19.616h-1.973l-.512-1.496h-2.744l-.512 1.496h-1.923l2.733-7.4h2.197l2.734 7.4zm-2.948-2.853l-.91-2.654-.909 2.654h1.82z" clip-rule="evenodd"/>
  <path fill-rule="evenodd" d="M2 10.036C2 8.91 2.911 8 4.036 8h24.428c1.125 0 2.036.911 2.036 2.036v11.196a2.036 2.036 0 01-2.036 2.036H4.036A2.036 2.036 0 012 21.232V10.036zm2.036-.611h24.428a.61.61 0 01.611.61v11.197a.61.61 0 01-.61.61H4.034a.61.61 0 01-.61-.61V10.036a.61.61 0 01.61-.611z" clip-rule="evenodd"/>
</svg>
