<svg xmlns="http://www.w3.org/2000/svg" width="32" height="32" viewBox="0 0 32 32">
  <path fill-rule="evenodd" d="M27.186 13.714c0 4.662-3.279 9.768-9.805 15.373a1.9 1.9 0 01-2.48-.002l-.43-.374C8.232 23.252 5.1 18.272 5.1 13.714c0-6.099 4.944-11.043 11.043-11.043 6.099 0 11.043 4.944 11.043 11.043zm-20.572 0c0 4.049 2.943 8.686 8.85 13.855l.427.37a.386.386 0 00.503 0c6.193-5.32 9.277-10.08 9.277-14.225a9.53 9.53 0 00-19.057 0z" clip-rule="evenodd"/>
  <path fill-rule="evenodd" d="M16.25 16a3.25 3.25 0 100-6.5 3.25 3.25 0 000 6.5zm0 1.5a4.75 4.75 0 100-9.5 4.75 4.75 0 000 9.5z" clip-rule="evenodd"/>
</svg>
