<svg xmlns="http://www.w3.org/2000/svg" width="32" height="32" viewBox="0 0 32 32">
  <path d="M27.216 5H4.784A1.786 1.786 0 003 6.784v18.353a1.786 1.786 0 001.784 1.785h22.432A1.787 1.787 0 0029 25.137V6.784A1.786 1.786 0 0027.216 5zM4.784 6.53h22.432a.255.255 0 01.255.254v14.468l-4.092-4.091a1.786 1.786 0 00-2.523 0l-2.636 2.636a.255.255 0 01-.361 0l-5.695-5.695a1.786 1.786 0 00-2.523 0l-5.112 5.11V6.785a.255.255 0 01.255-.255zm22.432 18.862H4.784a.255.255 0 01-.255-.255v-3.762l6.193-6.192a.255.255 0 01.36 0l5.696 5.696a1.786 1.786 0 002.523 0l2.636-2.637a.255.255 0 01.361 0l5.173 5.173v1.722a.255.255 0 01-.255.255zm-8.549-12.099a1.274 1.274 0 111.803-1.802 1.274 1.274 0 01-1.803 1.802z"/>
</svg>
