<svg xmlns="http://www.w3.org/2000/svg" width="32" height="32" viewBox="0 0 32 32">
  <path fill-rule="evenodd" d="M4.1 7.875v16.25h23.8V7.875H4.1zM3.05 6C2.47 6 2 6.42 2 6.938v18.125c0 .517.47.937 1.05.937h25.9c.58 0 1.05-.42 1.05-.938V6.938C30 6.42 29.53 6 28.95 6H3.05z" clip-rule="evenodd"/>
  <path d="M13.857 19.432V21h-5.81v-1.568h1.96v-5.145a10.904 10.904 0 01.028-.798l-1.162.966a.718.718 0 01-.308.147.938.938 0 01-.28 0 .766.766 0 01-.238-.091.574.574 0 01-.154-.14l-.686-.91 3.178-2.667h1.792v8.638h1.68zM14.944 17.901c0-.168.03-.324.091-.469.065-.145.152-.27.259-.378a1.23 1.23 0 01.392-.252 1.21 1.21 0 01.49-.098c.173 0 .334.033.483.098.15.06.28.145.392.252.112.107.198.233.259.378.065.145.098.301.098.469 0 .168-.033.327-.098.476-.06.145-.147.27-.259.378a1.23 1.23 0 01-.392.252c-.15.06-.31.091-.483.091-.177 0-.34-.03-.49-.091a1.23 1.23 0 01-.392-.252 1.263 1.263 0 01-.259-.378 1.252 1.252 0 01-.091-.476zm0-4.781c0-.168.03-.324.091-.469.065-.145.152-.27.259-.378a1.23 1.23 0 01.392-.252 1.21 1.21 0 01.49-.098c.173 0 .334.033.483.098.15.06.28.145.392.252.112.107.198.233.259.378.065.145.098.301.098.469 0 .168-.033.327-.098.476-.06.145-.147.27-.259.378a1.23 1.23 0 01-.392.252c-.15.06-.31.091-.483.091-.177 0-.34-.03-.49-.091a1.23 1.23 0 01-.392-.252 1.263 1.263 0 01-.259-.378 1.252 1.252 0 01-.091-.476zM25.083 19.432V21h-5.81v-1.568h1.96v-5.145a11.141 11.141 0 01.028-.798l-1.162.966a.717.717 0 01-.308.147.938.938 0 01-.28 0 .767.767 0 01-.238-.091.575.575 0 01-.154-.14l-.686-.91 3.178-2.667h1.792v8.638h1.68z"/>
</svg>
