<svg xmlns="http://www.w3.org/2000/svg" width="32" height="32" viewBox="0 0 32 32">
  <path fill-rule="evenodd" d="M19.793 4.293a1 1 0 011.414 0l6.5 6.5a1 1 0 010 1.414l-15.5 15.5A1 1 0 0111.5 28H5a1 1 0 01-1-1v-6.5a1 1 0 01.293-.707l15.5-15.5zM6 20.914V26h5.086l14.5-14.5L20.5 6.414 6 20.914z" clip-rule="evenodd"/>
  <path fill-rule="evenodd" d="M17.293 7.793a1 1 0 011.414 0l6.5 6.5a1 1 0 01.255.432l1 3.5a1 1 0 01-.255.982l-4.5 4.5a1 1 0 01-1.414-1.414l4.084-4.084-.767-2.685-6.317-6.317a1 1 0 010-1.414zM4.822 19.765a1 1 0 011.413.057l6 6.5a1 1 0 01-1.47 1.356l-6-6.5a1 1 0 01.057-1.413z" clip-rule="evenodd"/>
</svg>
