<svg xmlns="http://www.w3.org/2000/svg" width="32" height="32" viewBox="0 0 32 32">
  <path fill-rule="evenodd" d="M12.96 8c-.554 0-1.003.448-1.003 1v11c0 .552-.45 1-1.003 1a1.001 1.001 0 01-1.003-1V9c0-1.657 1.347-3 3.008-3a3.004 3.004 0 013.01 3v11c0 .552-.45 1-1.004 1a1.001 1.001 0 01-1.003-1V9c0-.552-.449-1-1.002-1z" clip-rule="evenodd"/>
  <path fill-rule="evenodd" d="M16.47 15a.5.5 0 00-.502.5V19c0 .552-.449 1-1.003 1a1.001 1.001 0 01-1.003-1v-3.5c0-1.38 1.123-2.5 2.508-2.5a3.004 3.004 0 013.008 3v3c0 .552-.449 1-1.003 1a1.001 1.001 0 01-1.003-1v-3c0-.552-.449-1-1.002-1z" clip-rule="evenodd"/>
  <path fill-rule="evenodd" d="M19.98 15a.5.5 0 00-.502.5V19c0 .552-.449 1-1.003 1a1.001 1.001 0 01-1.003-1v-3.5c0-1.38 1.123-2.5 2.508-2.5a3.004 3.004 0 013.008 3v3c0 .552-.449 1-1.003 1a1.001 1.001 0 01-1.002-1v-3c0-.552-.45-1-1.003-1z" clip-rule="evenodd"/>
  <path fill-rule="evenodd" d="M23.705 17a.715.715 0 00-.717.714V19c0 .552-.449 1-1.003 1a1.001 1.001 0 01-1.002-1v-1.286c0-1.499 1.218-2.714 2.722-2.714A3.29 3.29 0 0127 18.286V22c0 4.418-3.592 8-8.023 8h-.913a8.037 8.037 0 01-5.222-1.926L6.028 22.25a2.931 2.931 0 01.032-4.485 2.952 2.952 0 013.77 0l1.766 1.467a.998.998 0 01.128 1.408 1.005 1.005 0 01-1.412.128l-1.766-1.467a.941.941 0 00-1.202 0 .935.935 0 00-.01 1.43l6.814 5.824A6.028 6.028 0 0018.064 28h.913c3.323 0 6.017-2.686 6.017-6v-3.714c0-.71-.577-1.286-1.29-1.286zM13 4a5.002 5.002 0 00-4.901 4.006C7.989 8.548 7.552 9 7 9c-.552 0-1.007-.45-.93-.997a7.002 7.002 0 0113.86 0c.078.547-.378.997-.93.997s-.99-.452-1.099-.994A5.002 5.002 0 0013 4z" clip-rule="evenodd"/>
</svg>
