<svg xmlns="http://www.w3.org/2000/svg" width="32" height="32" viewBox="0 0 32 32">
  <path fill-rule="evenodd" d="M6.85 8.522a1.952 1.952 0 00-.909-.243C4.87 8.279 4 9.149 4 10.222c0 .715.389 1.33.972 1.668l.084.05v12.4l-.084.049c-.583.339-.972.952-.972 1.668C4 27.131 4.87 28 5.943 28c.715 0 1.33-.389 1.669-.972l.049-.084h13.456l.049.084c.34.583.953.972 1.669.972 1.073 0 1.942-.87 1.942-1.943 0-.39-.107-.761-.303-1.063l-.052-.08 2.661-5.353.097-.006a1.948 1.948 0 00.243-3.856l-.097-.019-2.075-6.223.065-.073c.313-.352.518-.785.518-1.274 0-1.073-.869-1.943-1.942-1.943-.49 0-.922.206-1.274.518l-.074.066-6.22-2.108-.02-.094A1.955 1.955 0 0014.389 3c-1.073 0-1.942.87-1.942 1.943v.16L6.937 8.57l-.087-.048zm15.11-.146l-6.353-2.083v.156a1.92 1.92 0 01-1.218.437c-.325 0-.632-.097-.91-.244l-.086-.046-5.508 3.467v.16c0 .716-.388 1.33-.971 1.668l-.084.05v12.4l.084.049c.29.168.53.408.699.697l.048.085H21.12l.049-.086a1.93 1.93 0 011.547-.97l.096-.007 2.695-5.321-.055-.082a1.932 1.932 0 01.181-2.398l.068-.073-2.076-6.194-.097-.018a1.955 1.955 0 01-1.548-1.549l-.019-.098z" clip-rule="evenodd"/>
</svg>
