<svg xmlns="http://www.w3.org/2000/svg" width="32" height="32" viewBox="0 0 32 32">
  <path fill-rule="evenodd" d="M16 19v7h10v-7H16zm-1-2a1 1 0 00-1 1v9a1 1 0 001 1h12a1 1 0 001-1v-9a1 1 0 00-1-1H15zM16 6v7h10V6H16zm-1-2a1 1 0 00-1 1v9a1 1 0 001 1h12a1 1 0 001-1V5a1 1 0 00-1-1H15z" clip-rule="evenodd"/>
  <path d="M11 8.875c0-.483-.393-.88-.873-.82a7 7 0 00-.714 13.763c.47.11.903-.245.953-.726.05-.48-.303-.904-.768-1.033a5.25 5.25 0 01.531-10.236c.477-.08.871-.465.871-.948z"/>
  <path fill-rule="evenodd" d="M9.638 17.03a.85.85 0 011.041.609l1.067 4.033a1 1 0 01-.705 1.22l-3.97 1.078a.85.85 0 01-1.042-.609.863.863 0 01.602-1.055l3.286-.892-.88-3.33a.863.863 0 01.6-1.054z" clip-rule="evenodd"/>
</svg>
