<svg xmlns="http://www.w3.org/2000/svg" width="32" height="33" viewBox="0 0 32 33">
  <path fill-rule="evenodd" d="M17.03 6C10.851 6 6 10.56 6 16s4.852 10 11.03 10c2.266 0 3.638-.464 5.408-1.546a1 1 0 011.043 1.707C21.43 27.414 19.7 28 17.029 28 9.92 28 4 22.71 4 16S9.92 4 17.03 4c4.99 0 8.69 3.874 10.815 7.235a1 1 0 11-1.69 1.069C24.12 9.088 20.943 6 17.029 6z" clip-rule="evenodd"/>
  <path fill-rule="evenodd" d="M27 4a1 1 0 011 1v7.5a1 1 0 01-1 1h-8a1 1 0 110-2h7V5a1 1 0 011-1z" clip-rule="evenodd"/>
</svg>
