<svg xmlns="http://www.w3.org/2000/svg" width="32" height="32" viewBox="0 0 32 32">
  <path d="M24.488 10.43c-1.79-3.161-5.123-5.58-9.685-5.42h-.036c-5.951 0-10.751 4.72-10.751 10.512 0 5.463 4.27 9.972 9.75 10.466.552.05 1.001.493 1.001 1.046s-.45 1.005-1.001.963C7.194 27.497 2 22.115 2 15.522 2 8.602 7.72 3.018 14.75 3.008c5.41-.182 9.392 2.725 11.495 6.44 1.596 2.819 2.158 6.196 1.38 9.115l.654-.65a1.013 1.013 0 011.426 0 .996.996 0 010 1.415l-3.208 3.187a1.013 1.013 0 01-1.425 0l-3.208-3.187a.996.996 0 010-1.415 1.013 1.013 0 011.425 0l1.749 1.736c1.396-2.533 1.187-6.152-.55-9.22z"/>
  <path d="M14.94 15.515c.98 0 1.776-.784 1.776-1.752s-.796-1.753-1.776-1.753c-.981 0-1.776.785-1.776 1.753 0 .968.795 1.752 1.776 1.752z"/>
  <path fill-rule="evenodd" d="M13.626 21.537c-2.993-3.041-4.615-5.054-4.57-8.025 0-3.041 2.708-5.506 6.048-5.506s6.047 2.465 6.047 5.506c-.045 3.388-1.56 5.226-4.517 8.064-.413.397-.854.813-1.324 1.255l-.204.192-.038-.038c-.511-.51-.992-.991-1.442-1.448zm4.123-4.286c.78-1.098 1.18-2.169 1.203-3.75-.007-1.93-1.727-3.493-3.848-3.493-2.125 0-3.848 1.569-3.848 3.504v.028c-.033 2.135.998 3.576 3.9 6.545 1.151-1.11 1.984-1.976 2.593-2.834z" clip-rule="evenodd"/>
</svg>
