<svg xmlns="http://www.w3.org/2000/svg" width="32" height="32" viewBox="0 0 32 32">
  <path fill-rule="evenodd" d="M4 6a1 1 0 011-1h11a1 1 0 110 2H5a1 1 0 01-1-1zM4 16a1 1 0 011-1h11a1 1 0 110 2H5a1 1 0 01-1-1zM4 21a1 1 0 011-1h11a1 1 0 110 2H5a1 1 0 01-1-1zM4 26a1 1 0 011-1h11a1 1 0 110 2H5a1 1 0 01-1-1zM4 11a1 1 0 011-1h15.5a1 1 0 110 2H5a1 1 0 01-1-1z" clip-rule="evenodd"/>
  <path fill-rule="evenodd" d="M24 13a2 2 0 100-4 2 2 0 000 4zm0 2a4 4 0 100-8 4 4 0 000 8z" clip-rule="evenodd"/>
</svg>
