<svg xmlns="http://www.w3.org/2000/svg" width="32" height="32" viewBox="0 0 32 32">
  <path fill-rule="evenodd" d="M5 5v22h22V5H5zM4 3a1 1 0 00-1 1v24a1 1 0 001 1h24a1 1 0 001-1V4a1 1 0 00-1-1H4z" clip-rule="evenodd"/>
  <path fill-rule="evenodd" d="M18 7.5a1 1 0 011-1h5a1 1 0 011 1v5a1 1 0 11-2 0V9.914l-4.793 4.793a1 1 0 01-1.414-1.414L21.586 8.5H19a1 1 0 01-1-1zM14 24a1 1 0 01-1 1H8a1 1 0 01-1-1v-5a1 1 0 112 0v2.586l4.793-4.793a1 1 0 011.414 1.414L10.414 23H13a1 1 0 011 1z" clip-rule="evenodd"/>
</svg>
