<svg xmlns="http://www.w3.org/2000/svg" width="32" height="32" viewBox="0 0 32 32">
  <path fill-rule="evenodd" d="M6.926 19l-2.012 2H7.75l2.013-2H6.926zm8.89 2H9.441a1 1 0 011.003-.829l4.419.077a1 1 0 01.951.752zm-13.709-.55A1 1 0 003 21h1.105l.004-1.2a1 1 0 00-2-.006l-.002.657zM9.529 9.257v2.514A1.257 1.257 0 018.538 13l.99 1.942a2.007 2.007 0 00-.306.25l-1.1 1.094L6.5 13v4h-2V8h3.771A1.257 1.257 0 019.53 9.257zM12.008 17h3.52l-.028-2h-3v-1.5h2.4v-2h-2.4V10h3.029V8H10.5v7.193c.406.063.796.252 1.107.566.604.607.401 1.241.401 1.241zM7.5 10h-1v1h1v-1zm9 7h3.75c.331 0 .65-.136.884-.377.234-.24.366-.568.366-.909v-2.571c0-.341-.132-1.025-.366-1.266a1.233 1.233 0 00-.884-.377H18.5V10h3V8h-3.75c-.331 0-.65.135-.884.377a1.305 1.305 0 00-.366.909v2.928c0 .341.132.668.366.91.235.24.553.376.884.376h1.75V15h-3v2zm6-7H24v7h2v-7h1.529V8H22.5v2z" clip-rule="evenodd"/>
  <path fill-rule="evenodd" d="M3.112 18.797A1 1 0 014.11 19.8l-.006 2.006 5.38-5.347a1 1 0 011.41 1.419l-5.38 5.346 2.004.007a1 1 0 01-.006 2l-4.42-.014a1 1 0 01-.996-1.003l.014-4.42a1 1 0 011.003-.997z" clip-rule="evenodd"/>
  <path fill-rule="evenodd" d="M9.427 21.153a1 1 0 00.983 1.018l2.005.035-5.457 5.27a1 1 0 001.39 1.438l5.456-5.27-.035 2.005a1 1 0 002 .035l.077-4.419a1 1 0 00-.982-1.017l-4.42-.077a1 1 0 00-1.017.982z" clip-rule="evenodd"/>
  <path d="M4 6v12.006a1.993 1.993 0 00-.885-.209A1.99 1.99 0 002 18.133V5a1 1 0 011-1h26a1 1 0 011 1v15a1 1 0 01-1 1H16.831c-.12-.973-1.322-1.982-2.331-2H28V6H4z"/>
</svg>
