<svg xmlns="http://www.w3.org/2000/svg" width="32" height="32" viewBox="0 0 32 32">
  <path d="M29 2a1 1 0 00-1 1v5.044c-1.963.197-6.316 1.232-10.564 6.276-.198-.277-.398-.546-.588-.85C11.974 5.67 6.32 4.276 4 4.042V3a1 1 0 00-2 0v26a1 1 0 102 0v-2.954a14.866 14.866 0 009.918-3.96c4.552 5.374 11.318 5.952 14.016 5.952H28V29a1 1 0 102 0V3a1 1 0 00-1-1zm-1 8.055v9.99a12.883 12.883 0 01-9.276-4.133c3.78-4.645 7.567-5.652 9.276-5.857zM15.152 14.53c.324.518.663.99 1.008 1.44-.339.475-.676.972-1.008 1.504-.317.503-.66.988-1.031 1.453-.083-.137-.168-.27-.247-.413C9.328 10.332 5.787 8.444 4 8.068V6.051c1.993.24 6.823 1.553 11.152 8.479zM4 24.049V10.14c1.325.464 4.203 2.284 8.126 9.344.19.342.396.653.6.967A12.877 12.877 0 014 24.049zm11.318-3.421c.56-.66 1.07-1.36 1.53-2.094.221-.354.445-.67.669-.995A14.87 14.87 0 0028 22.042v3.987c-2.33-.01-8.626-.52-12.682-5.401z"/>
</svg>
