<svg width="32" height="32" viewBox="0 0 32 32" fill="none" xmlns="http://www.w3.org/2000/svg">
<path fill-rule="evenodd" clip-rule="evenodd" d="M2 13.5C2 7.14872 7.14872 2 13.5 2C19.8513 2 25 7.14872 25 13.5C25 19.8513 19.8513 25 13.5 25C7.14872 25 2 19.8513 2 13.5ZM13.5 5.83333C9.26582 5.83333 5.83333 9.26582 5.83333 13.5C5.83333 17.7342 9.26582 21.1667 13.5 21.1667C17.7342 21.1667 21.1667 17.7342 21.1667 13.5C21.1667 9.26582 17.7342 5.83333 13.5 5.83333Z" fill="black"/>
<path fill-rule="evenodd" clip-rule="evenodd" d="M20.5 18.5C21.281 17.719 22.5474 17.719 23.3284 18.5L30.4143 25.5858C31.1954 26.3669 31.1954 27.6332 30.4143 28.4143C29.6333 29.1953 28.3669 29.1953 27.5859 28.4143L20.5 21.3284C19.719 20.5474 19.719 19.281 20.5 18.5Z" fill="black"/>
</svg>
