<svg xmlns="http://www.w3.org/2000/svg" width="32" height="32" viewBox="0 0 32 32">
  <path fill-rule="evenodd" d="M5.092 27.782l.91-1.78L6 26v.001-.001h-.002H6l-.001-.002-1.781.91A1.991 1.991 0 014 26v-1.5h2V26h1.5v2H6c-.327 0-.636-.078-.908-.218zM24.5 28v-2H26v-1.5h2V26c0 .327-.078.636-.218.908l-1.78-.91L26 26h.002H26v0l-.001.001.91 1.781c-.273.14-.582.218-.909.218h-1.5zM28 7.5h-2V6h-1.5V4H26c.327 0 .636.078.908.218l-.91 1.78L26 6h0l.001.001 1.781-.91c.14.273.218.582.218.909v1.5zM7.5 4H6c-.327 0-.636.078-.908.218l.91 1.78L6 6v-.003V6l-.001.002-1.781-.91C4.078 5.365 4 5.674 4 6v1.5h2V6h1.5V4zM4 22.5h2v-3H4v3zm0-5h2v-3H4v3zm0-5h2v-3H4v3zM9.5 4v2h3V4h-3zm5 0v2h3V4h-3zm5 0v2h3V4h-3zM28 9.5h-2v3h2v-3zm0 5h-2v3h2v-3zm0 5h-2v3h2v-3zM22.5 28v-2h-3v2h3zm-5 0v-2h-3v2h3zm-5 0v-2h-3v2h3z" clip-rule="evenodd"/>
  <path d="M6 6v-.004l-.908-1.778c-.358.129-.772.604-.874.874l1.78.91L6 5.998zM26 5.998V6h0l.001.001 1.781-.91c-.174-.38-.655-.772-.874-.873L26 5.998zM26.001 25.999L26 26h.002H26v0l-.001.001.91 1.781c.264-.111.722-.51.873-.874l-1.78-.91zM6.001 26.001H6v.001-.001h-.002H6l-.001-.002-1.781.91c.125.232.476.733.874.873l.91-1.78z"/>
</svg>
