<svg xmlns="http://www.w3.org/2000/svg" width="32" height="32" viewBox="0 0 32 32">
  <path fill-rule="evenodd" d="M28.694 18.815l-1.953-.431c.17-.766.259-1.563.259-2.384 0-.82-.09-1.618-.259-2.384l1.953-.43c.2.905.306 1.847.306 2.814 0 .967-.105 1.909-.306 2.815zm-1.729-9.8L25.28 10.09a11.069 11.069 0 00-3.37-3.37l1.076-1.686a13.069 13.069 0 013.98 3.98zm-8.15-5.71l-.431 1.954A11.046 11.046 0 0016 5c-.82 0-1.618.09-2.384.259l-.43-1.953C14.09 3.106 15.032 3 16 3c.967 0 1.909.105 2.815.306zm-9.8 1.73L10.09 6.72a11.07 11.07 0 00-3.37 3.37L5.034 9.014a13.069 13.069 0 013.98-3.98zm-5.71 8.15C3.106 14.091 3 15.033 3 16c0 .967.105 1.909.306 2.815l1.953-.431A11.046 11.046 0 015 16c0-.82.09-1.618.259-2.384l-1.953-.43zm1.73 9.8L6.72 21.91a11.069 11.069 0 003.37 3.37l-1.076 1.685a13.069 13.069 0 01-3.98-3.98zm8.15 5.71c.906.2 1.848.305 2.815.305.967 0 1.909-.105 2.815-.306l-.431-1.953c-.766.17-1.563.259-2.384.259-.82 0-1.618-.09-2.384-.259l-.43 1.953zm9.8-1.73L21.91 25.28a11.068 11.068 0 003.37-3.37l1.685 1.076a13.069 13.069 0 01-3.98 3.98z" clip-rule="evenodd"/>
</svg>
