<svg xmlns="http://www.w3.org/2000/svg" width="32" height="32" viewBox="0 0 32 32">
  <g clip-path="url(#clip0_7211:24484)">
    <path d="M28.5 32a3.474 3.474 0 01-2.475-1.025l-4.128-4.128a6.496 6.496 0 01-7.348-8.956l.588-1.34 4.156 4.156a1.023 1.023 0 001.413 0 1 1 0 00.001-1.414l-4.156-4.157 1.34-.588a6.497 6.497 0 018.956 7.349l4.128 4.128A3.5 3.5 0 0128.5 32zm-6.03-7.409l4.97 4.97a1.535 1.535 0 002.12 0 1.497 1.497 0 000-2.121l-4.969-4.97.188-.583a4.497 4.497 0 00-4.529-5.88l1.872 1.872a3 3 0 010 4.242 3.072 3.072 0 01-4.243 0l-1.872-1.872a4.496 4.496 0 005.881 4.531l.582-.189z"/>
    <path d="M25 5h-3V4a2.006 2.006 0 00-2-2h-8a2.006 2.006 0 00-2 2v1H7a2.006 2.006 0 00-2 2v21a2.006 2.006 0 002 2h7v-2H7V7h3v3h12V7h3v5h2V7a2.006 2.006 0 00-2-2zm-5 3h-8V4h8v4z"/>
  </g>
  <defs>
    <clipPath id="clip0_7211:24484">
      <path d="M0 0h32v32H0z"/>
    </clipPath>
  </defs>
</svg>
