<svg width="32" height="32" viewBox="0 0 32 32" xmlns="http://www.w3.org/2000/svg">
<path fill-rule="evenodd" clip-rule="evenodd" d="M21.8573 9.48566C21.5732 9.01208 20.9589 8.85851 20.4854 9.14266L10.4854 15.1427C10.1841 15.3234 9.99985 15.6489 9.99985 16.0002C9.99985 16.3514 10.1841 16.6769 10.4854 16.8576L20.4854 22.8576C20.9589 23.1418 21.5732 22.9882 21.8573 22.5146C22.1415 22.0411 21.9879 21.4268 21.5143 21.1427L12.9435 16.0002L21.5143 10.8576C21.9879 10.5735 22.1415 9.95924 21.8573 9.48566Z" />
<path fill-rule="evenodd" clip-rule="evenodd" d="M24 10C25.1046 10 26 9.10457 26 8C26 6.89543 25.1046 6 24 6C22.8954 6 22 6.89543 22 8C22 9.10457 22.8954 10 24 10ZM24 12C26.2091 12 28 10.2091 28 8C28 5.79086 26.2091 4 24 4C21.7909 4 20 5.79086 20 8C20 10.2091 21.7909 12 24 12Z" />
<path fill-rule="evenodd" clip-rule="evenodd" d="M24 26C25.1046 26 26 25.1046 26 24C26 22.8954 25.1046 22 24 22C22.8954 22 22 22.8954 22 24C22 25.1046 22.8954 26 24 26ZM24 28C26.2091 28 28 26.2091 28 24C28 21.7909 26.2091 20 24 20C21.7909 20 20 21.7909 20 24C20 26.2091 21.7909 28 24 28Z" fill="black"/>
<path fill-rule="evenodd" clip-rule="evenodd" d="M8 18C9.10457 18 10 17.1046 10 16C10 14.8954 9.10457 14 8 14C6.89543 14 6 14.8954 6 16C6 17.1046 6.89543 18 8 18ZM8 20C10.2091 20 12 18.2091 12 16C12 13.7909 10.2091 12 8 12C5.79086 12 4 13.7909 4 16C4 18.2091 5.79086 20 8 20Z" />
</svg>
