<svg width="32" height="32" viewBox="0 0 32 32" fill="none" xmlns="http://www.w3.org/2000/svg">
<path fill-rule="evenodd" clip-rule="evenodd" d="M5 3C3.89543 3 3 3.89543 3 5V27C3 28.1046 3.89543 29 5 29H27C28.1046 29 29 28.1046 29 27V5C29 3.89543 28.1046 3 27 3H5ZM11.8634 18.0697C11.2226 18.6651 10.381 18.9971 9.50638 18.9997C8.89919 19.0008 8.30215 18.844 7.77393 18.5445C7.2457 18.2451 6.80447 17.8133 6.49358 17.2918C6.18269 16.7702 6.01283 16.1767 6.0007 15.5696C5.98857 14.9626 6.13458 14.3628 6.42439 13.8292C6.7142 13.2956 7.13783 12.8466 7.65367 12.5263C8.16951 12.206 8.7598 12.0254 9.36656 12.0023C9.97332 11.9791 10.5757 12.1142 11.1144 12.3943C11.6531 12.6744 12.1098 13.0898 12.4394 13.5997L18.1234 10.3527C18.0494 10.0747 18.0104 9.78772 18.0064 9.49972C18.0039 8.69913 18.2769 7.92205 18.7794 7.29884C19.282 6.67564 19.9836 6.24423 20.7665 6.07698C21.5494 5.90974 22.3661 6.01684 23.0794 6.38032C23.7927 6.74379 24.3594 7.34153 24.6842 8.07325C25.0091 8.80498 25.0724 9.62616 24.8636 10.399C24.6548 11.1719 24.1865 11.8495 23.5374 12.318C22.8882 12.7866 22.0976 13.0176 21.2983 12.9724C20.499 12.9272 19.7396 12.6085 19.1474 12.0697L12.9974 15.5847C12.9914 15.8437 12.9554 16.1027 12.8894 16.3527L19.1494 19.9297C19.7718 19.3567 20.5798 19.027 21.4254 19.0011C22.271 18.9751 23.0977 19.2545 23.7541 19.7882C24.4105 20.322 24.8528 21.0742 24.9999 21.9074C25.147 22.7405 24.9891 23.5987 24.5551 24.325C24.1212 25.0512 23.4401 25.5969 22.6368 25.862C21.8334 26.1272 20.9614 26.0941 20.1803 25.7689C19.3993 25.4437 18.7616 24.8481 18.3838 24.0911C18.0061 23.3341 17.9136 22.4663 18.1234 21.6467L11.8634 18.0697Z" fill="#77889A"/>
</svg>
