<svg xmlns="http://www.w3.org/2000/svg" width="32" height="32" viewBox="0 0 32 32">
  <path fill-rule="evenodd" d="M7.5 4a1 1 0 00-1 1v1.5a1 1 0 00.267.68L12.171 13h-3.67a2.5 2.5 0 10-3.848 3.184L3.41 24.249A2.5 2.5 0 106.501 28H25.5a2.5 2.5 0 103.094-3.749l-1.126-8.21A2.5 2.5 0 1023.5 13h-3.586l5.793-5.792A1 1 0 0026 6.5V5a1 1 0 00-1-1H7.5zm15.55 11H19v6a1 1 0 11-2 0v-7.5a1 1 0 01.293-.707L24 6.086V6H8.5v.107l6.233 6.712A1 1 0 0115 13.5v6a1 1 0 11-2 0V15H8.95a2.5 2.5 0 01-2.4 2l-1.105 7.185c.763.311 1.337.99 1.505 1.815h18.1c.168-.83.747-1.51 1.515-1.82L25.581 17 25.5 17a2.5 2.5 0 01-2.45-2zM6.5 15a.5.5 0 100-1 .5.5 0 000 1zM5 26.5a.5.5 0 11-1 0 .5.5 0 011 0zm22.5.5a.5.5 0 100-1 .5.5 0 000 1zM26 14.5a.5.5 0 11-1 0 .5.5 0 011 0z" clip-rule="evenodd"/>
</svg>
