<svg xmlns="http://www.w3.org/2000/svg" width="32" height="32" viewBox="0 0 32 32">
  <path fill-rule="evenodd" d="M7 7v18h18V7H7zM6 5a1 1 0 00-1 1v20a1 1 0 001 1h20a1 1 0 001-1V6a1 1 0 00-1-1H6z" clip-rule="evenodd"/>
  <path fill-rule="evenodd" d="M16 2a1 1 0 011 1v6a1 1 0 11-2 0V3a1 1 0 011-1zM16 22a1 1 0 011 1v6a1 1 0 11-2 0v-6a1 1 0 011-1zM2 16a1 1 0 011-1h6a1 1 0 110 2H3a1 1 0 01-1-1zM22 16a1 1 0 011-1h6a1 1 0 110 2h-6a1 1 0 01-1-1z" clip-rule="evenodd"/>
  <path d="M17 16a1 1 0 11-2 0 1 1 0 012 0z"/>
</svg>
