<svg xmlns="http://www.w3.org/2000/svg" width="32" height="32" viewBox="0 0 32 32">
  <path d="M10.938 4.976a.976.976 0 00-1.952 0v10.569c0 1.952.698 3.824 1.94 5.204 1.243 1.38 2.929 2.156 4.686 2.156 1.758 0 3.443-.775 4.686-2.156 1.243-1.38 1.94-3.252 1.94-5.204V4.976a.976.976 0 10-1.952 0v10.569c0 1.377-.492 2.697-1.369 3.67-.876.974-2.065 1.521-3.305 1.521-1.24 0-2.428-.547-3.305-1.52-.876-.974-1.369-2.294-1.369-3.671V4.976zM28 27.076a.924.924 0 00-.924-.925H4.924a.924.924 0 000 1.849h22.152c.51 0 .924-.414.924-.924z"/>
</svg>
