<svg xmlns="http://www.w3.org/2000/svg" width="32" height="32" viewBox="0 0 32 32">
  <path fill-rule="evenodd" d="M9.929 26.753c-.395.33-.985.33-1.38 0l-4.191-3.5a.969.969 0 01-.099-1.412 1.083 1.083 0 011.479-.094l2.453 2.05V4c0-.552.47-1 1.048-1 .579 0 1.048.448 1.048 1v19.796l2.453-2.049a1.083 1.083 0 011.479.095.969.969 0 01-.099 1.41l-4.191 3.5zM22.547 26.753c-.395.33-.985.33-1.38 0l-4.192-3.5a.969.969 0 01-.098-1.412 1.083 1.083 0 011.478-.094l2.454 2.05V19c0-.552.47-1 1.048-1 .579 0 1.048.448 1.048 1v4.796l2.453-2.049a1.083 1.083 0 011.479.095.968.968 0 01-.099 1.41l-4.191 3.5z" clip-rule="evenodd"/>
  <path fill-rule="evenodd" d="M21.857 3.1c.37 0 .704.225.84.569l3.378 8.5.007.018 1.861 5a.899.899 0 01-.533 1.157.905.905 0 01-1.162-.531L24.606 13.4h-5.499l-1.642 4.413a.905.905 0 01-1.162.53.899.899 0 01-.533-1.156l1.86-5 .008-.018 3.378-8.5a.904.904 0 01.84-.569zm-2.049 8.5h4.097l-2.048-5.155-2.049 5.155z" clip-rule="evenodd"/>
</svg>
