<svg xmlns="http://www.w3.org/2000/svg" width="32" height="32" viewBox="0 0 32 32">
  <path d="M5 5.722a.5.5 0 01.5-.5h13.931a.5.5 0 01.5.5v1a.5.5 0 01-.5.5H5.5a.5.5 0 01-.5-.5v-1zM9.266 12.387a.5.5 0 01.5-.5h9.665a.5.5 0 01.5.5v1a.5.5 0 01-.5.5H9.766a.5.5 0 01-.5-.5v-1zM5 19.052a.5.5 0 01.5-.5h13.931a.5.5 0 01.5.5v1a.5.5 0 01-.5.5H5.5a.5.5 0 01-.5-.5v-1zM9.266 25.717a.5.5 0 01.5-.5h9.665a.5.5 0 01.5.5v1a.5.5 0 01-.5.5H9.766a.5.5 0 01-.5-.5v-1zM24.197 3.5a.5.5 0 01.5-.5h1a.5.5 0 01.5.5v25.66a.5.5 0 01-.5.5h-1a.5.5 0 01-.5-.5V3.5z"/>
</svg>
