<svg xmlns="http://www.w3.org/2000/svg" width="32" height="32" viewBox="0 0 32 32">
  <path d="M11.399 5.722a.5.5 0 01.5-.5H25.83a.5.5 0 01.5.5v1a.5.5 0 01-.5.5H11.899a.5.5 0 01-.5-.5v-1zM11.399 12.387a.5.5 0 01.5-.5h9.665a.5.5 0 01.5.5v1a.5.5 0 01-.5.5h-9.665a.5.5 0 01-.5-.5v-1zM11.399 19.052a.5.5 0 01.5-.5H25.83a.5.5 0 01.5.5v1a.5.5 0 01-.5.5H11.899a.5.5 0 01-.5-.5v-1zM11.399 25.717a.5.5 0 01.5-.5h9.665a.5.5 0 01.5.5v1a.5.5 0 01-.5.5h-9.665a.5.5 0 01-.5-.5v-1zM5 3.5a.5.5 0 01.5-.5h1a.5.5 0 01.5.5v25.66a.5.5 0 01-.5.5h-1a.5.5 0 01-.5-.5V3.5z"/>
</svg>
