<svg xmlns="http://www.w3.org/2000/svg" width="32" height="32" viewBox="0 0 32 32">
  <path d="M16.03 4.039a8.418 8.418 0 014.442.788 8.662 8.662 0 012.74 2.067c.36.405.257 1.022-.175 1.347-.445.335-1.073.238-1.452-.17a5.923 5.923 0 00-1.604-1.245c-1-.524-2.26-.799-3.958-.756a5.772 5.772 0 00-3.694 1.377l-.01.008-.008.009c-.34.367-.602.802-.772 1.277a3.792 3.792 0 00-.213 1.481c0 .713.122 1.3.367 1.792.246.494.61.879 1.078 1.193.92.62 2.261.977 3.913 1.38.528.125 1.054.26 1.577.406l.027.007H29a1 1 0 011 1v.03a1 1 0 01-1 1h-6.71l.27.332a5.946 5.946 0 011.315 3.922v.017a6.153 6.153 0 01-.37 2.456 6.01 6.01 0 01-1.3 2.081A8.718 8.718 0 0116.371 28h-.119a9.657 9.657 0 01-4.306-1.118 9.919 9.919 0 01-2.692-2.084c-.353-.387-.287-.982.11-1.324.433-.374 1.089-.3 1.49.108a8.074 8.074 0 001.925 1.446 7.878 7.878 0 003.502.942h.002a6.967 6.967 0 004.534-1.568l.011-.009.01-.01c.379-.406.67-.889.855-1.418.184-.527.26-1.088.22-1.646-.02-1.286-.391-2.19-1.08-2.858-.68-.66-1.65-1.072-2.82-1.42l-.03-.01H3a1 1 0 01-1-1V16a1 1 0 011-1h8.809l-.47-.364a5.1 5.1 0 01-1.525-1.947 5.263 5.263 0 01-.449-2.46v-.02a5.837 5.837 0 01.37-2.273 5.7 5.7 0 011.209-1.929 7.68 7.68 0 015.068-1.967h.01l.008-.001z"/>
</svg>
