<svg xmlns="http://www.w3.org/2000/svg" width="32" height="32" viewBox="0 0 32 32">
  <path d="M18.506 28H8a1 1 0 01-1-1V5a1 1 0 011-1h9.573c1.246 0 2.467.383 3.517 1.102a6.878 6.878 0 012.41 2.96 7.453 7.453 0 01.543 3.885 7.248 7.248 0 01-1.495 3.586 7.05 7.05 0 012.196 3.527 7.48 7.48 0 01-.106 4.238 6.978 6.978 0 01-2.37 3.396A6.239 6.239 0 0118.507 28zm-7.774-4h7.749c.367 0 .731-.078 1.07-.228.34-.151.649-.372.909-.65.26-.28.466-.61.607-.974a3.19 3.19 0 000-2.296 3.024 3.024 0 00-.607-.973c-.26-.279-.569-.5-.908-.65A2.636 2.636 0 0018.48 18h-7.75v6zm0-10h6.84c.368 0 .732-.078 1.072-.228.34-.151.648-.372.908-.65.26-.28.466-.61.607-.974a3.187 3.187 0 000-2.296 3.023 3.023 0 00-.607-.973c-.26-.279-.569-.5-.908-.65A2.637 2.637 0 0017.573 8h-6.841v6z"/>
</svg>
