<svg xmlns="http://www.w3.org/2000/svg" width="32" height="32" viewBox="0 0 32 32">
  <path fill-rule="evenodd" d="M27.753 23.341a1 1 0 010 1.317l-3.5 4a1 1 0 11-1.506-1.317L24.797 25H5a1 1 0 110-2h19.796l-2.049-2.341a1 1 0 011.506-1.317l3.5 4zM27.753 9.342a1 1 0 010 1.316l-3.5 4a1 1 0 11-1.506-1.316L24.797 11H17a1 1 0 110-2h7.796l-2.049-2.341a1 1 0 011.506-1.317l3.5 4zM10 5.1a.9.9 0 01.841.58l3.225 8.5.006.019 1.776 5a.9.9 0 11-1.696.602L12.589 15.4H7.41l-1.563 4.401a.9.9 0 11-1.696-.602l1.776-5 .006-.018 3.224-8.5A.9.9 0 0110 5.1zm-1.92 8.5h3.84L10 8.538 8.08 13.6z" clip-rule="evenodd"/>
</svg>
