<svg xmlns="http://www.w3.org/2000/svg" width="32" height="32" viewBox="0 0 32 32">
  <path d="M4.297 6.29c.19-.185.45-.29.723-.29h21.96c.273 0 .533.105.723.29a.97.97 0 01.297.696v4.006a.97.97 0 01-.297.695c-.19.185-.45.29-.723.29-.272 0-.532-.105-.723-.29a.97.97 0 01-.296-.695v-3.02H17.02v18.056h3.098c.272 0 .532.105.723.29a.97.97 0 01.296.696.97.97 0 01-.296.695c-.191.186-.451.291-.723.291h-8.236c-.272 0-.532-.105-.723-.29a.97.97 0 01-.296-.696c0-.26.106-.51.296-.695.191-.186.451-.291.723-.291h3.098V7.972H6.04v3.02a.97.97 0 01-.297.695c-.191.185-.451.29-.723.29-.273 0-.533-.105-.723-.29A.97.97 0 014 10.992V6.986c0-.26.106-.51.297-.695z"/>
</svg>
