<svg xmlns="http://www.w3.org/2000/svg" width="32" height="32" viewBox="0 0 32 32">
  <path fill-rule="evenodd" d="M4.411 16.344l10.593 10.31 11.298-10.998L15.71 5.346 4.41 16.345zm-2.118-.688a.954.954 0 000 1.375l12.004 11.684c.39.38 1.023.38 1.413 0l12.71-12.371a.954.954 0 000-1.375L16.417 3.285a1.018 1.018 0 00-1.412 0L2.293 15.656z" clip-rule="evenodd"/>
  <path fill-rule="evenodd" d="M5.328 5.902a1.018 1.018 0 011.413.005l8.017 7.86a.954.954 0 01-.005 1.376 1.018 1.018 0 01-1.412-.006l-8.018-7.86a.954.954 0 01.005-1.375z" clip-rule="evenodd"/>
  <path fill-rule="evenodd" d="M17.025 17.292a1.43 1.43 0 00-.002-2.06 1.526 1.526 0 00-2.116-.002 1.43 1.43 0 00.002 2.06c.586.57 1.534.57 2.116.002zm1.413 1.375a3.337 3.337 0 00-.002-4.81c-1.365-1.328-3.578-1.329-4.941-.002a3.337 3.337 0 00.002 4.81c1.365 1.328 3.577 1.33 4.94.002zM26.505 27.004c.733 0 1.498-.461 1.498-1.458-.001-.008-.03-.406-.297-.878-.249-.438-.606-.923-1.003-1.398-.066-.079-.132-.156-.198-.232-.066.076-.133.153-.199.232-.397.475-.754.96-1.002 1.398-.268.472-.296.87-.297.878 0 .997.764 1.458 1.498 1.458zm0 1.944c1.93 0 3.495-1.602 3.495-3.579 0-1.976-3.495-5.169-3.495-5.169s-3.496 3.193-3.496 5.17c0 1.976 1.565 3.578 3.496 3.578z" clip-rule="evenodd"/>
</svg>
