<svg xmlns="http://www.w3.org/2000/svg" width="32" height="32" viewBox="0 0 32 32">
  <path fill-rule="evenodd" d="M6 8v2h2V8H6zM5 6a1 1 0 00-1 1v4a1 1 0 001 1h4a1 1 0 001-1V7a1 1 0 00-1-1H5zM9 21v2h2v-2H9zm-1-2a1 1 0 00-1 1v4a1 1 0 001 1h4a1 1 0 001-1v-4a1 1 0 00-1-1H8zM22 5v2h2V5h-2zm-1-2a1 1 0 00-1 1v4a1 1 0 001 1h4a1 1 0 001-1V4a1 1 0 00-1-1h-4zM20 16v2h2v-2h-2zm-1-2a1 1 0 00-1 1v4a1 1 0 001 1h4a1 1 0 001-1v-4a1 1 0 00-1-1h-4zM24 24v2h2v-2h-2zm-1-2a1 1 0 00-1 1v4a1 1 0 001 1h4a1 1 0 001-1v-4a1 1 0 00-1-1h-4z" clip-rule="evenodd"/>
  <path d="M8 8.781L22 5.72V7h.74L21 16h-1v2h1l3.5 6H24v1.613l-13-3.355V21H9.77L7.23 10H8V8.781z"/>
</svg>
