<svg xmlns="http://www.w3.org/2000/svg" width="32" height="32" viewBox="0 0 32 32">
  <path fill-rule="evenodd" d="M6 8v2h2V8H6zM5 6a1 1 0 00-1 1v4a1 1 0 001 1h4a1 1 0 001-1V7a1 1 0 00-1-1H5zM9 21v2h2v-2H9zm-1-2a1 1 0 00-1 1v4a1 1 0 001 1h4a1 1 0 001-1v-4a1 1 0 00-1-1H8zM22 5v2h2V5h-2zm-1-2a1 1 0 00-1 1v4a1 1 0 001 1h4a1 1 0 001-1V4a1 1 0 00-1-1h-4zM20 16v2h2v-2h-2zm-1-2a1 1 0 00-1 1v4a1 1 0 001 1h4a1 1 0 001-1v-4a1 1 0 00-1-1h-4zM24 24v2h2v-2h-2zm-1-2a1 1 0 00-1 1v4a1 1 0 001 1h4a1 1 0 001-1v-4a1 1 0 00-1-1h-4z" clip-rule="evenodd"/>
  <path fill-rule="evenodd" d="M20.752 6.968l-11.5 3-.504-1.936 11.5-3 .504 1.936zm-1.2 8.082l2.474-6.775 1.948.45L21.5 15.5l-1.949-.45zM9.045 20.801l-3-9.5 1.908-.602 3 9.5-1.908.602zM25.445 23.832l-6-4 1.11-1.664 6 4-1.11 1.664z" clip-rule="evenodd"/>
</svg>
