<svg xmlns="http://www.w3.org/2000/svg" width="32" height="32" viewBox="0 0 32 32">
  <path d="M25.706 11.706a.998.998 0 00-1.413 1.41L26.17 15H17V5.83l1.884 1.877a.998.998 0 001.41-1.413l-3.587-3.587a1 1 0 00-1.414 0l-3.587 3.587a.998.998 0 001.41 1.413L15 5.83V15H5.83l1.877-1.884a.998.998 0 00-1.413-1.41l-3.587 3.587a1 1 0 000 1.414l3.587 3.587a.998.998 0 001.413-1.41L5.83 17H15v9.17l-1.884-1.877a.998.998 0 00-1.41 1.413l3.587 3.587a1 1 0 001.414 0l3.587-3.587a.998.998 0 00-1.41-1.413L17 26.17V17h9.17l-1.877 1.884a.998.998 0 001.413 1.41l3.587-3.587a1 1 0 000-1.414l-3.587-3.587z"/>
</svg>
