<svg xmlns="http://www.w3.org/2000/svg" width="20" height="20" fill="none" viewBox="0 0 20 20">
  <path fill="#77889A" fill-rule="evenodd" d="M10.442 17.317a.625.625 0 000-.884L4.609 10.6a.625.625 0 10-.884.884l5.833 5.833c.244.244.64.244.884 0z" clip-rule="evenodd"/>
  <path fill="#77889A" fill-rule="evenodd" d="M16.275 10.6a.625.625 0 00-.884 0l-5.833 5.833a.625.625 0 10.884.884l5.833-5.833a.625.625 0 000-.884z" clip-rule="evenodd"/>
  <path fill="#77889A" fill-rule="evenodd" d="M10 16.875c.345 0 .625-.252.625-.563V6.188c0-.31-.28-.562-.625-.562s-.625.252-.625.563v10.125c0 .31.28.562.625.562zM17.5 3.125c0-.345-.258-.625-.577-.625H3.077c-.319 0-.577.28-.577.625s.258.625.577.625h13.846c.319 0 .577-.28.577-.625z" clip-rule="evenodd"/>
</svg>
