<svg xmlns="http://www.w3.org/2000/svg" width="32" height="32" viewBox="0 0 32 32">
  <path fill-rule="evenodd" d="M12.5 26a6.5 6.5 0 100-13 6.5 6.5 0 000 13zm0 2a8.5 8.5 0 100-17 8.5 8.5 0 000 17z" clip-rule="evenodd"/>
  <path d="M12 9.497c.537-1.537 1.477-2.807 2.807-3.824C16.273 4.586 17.92 4 19.754 4c2.287 0 4.226.822 5.831 2.415C27.178 8.02 28 9.959 28 12.245c0 1.835-.586 3.482-1.673 4.948-1.017 1.33-2.287 2.27-3.824 2.807v-.425c0-2.756-.973-5.13-2.96-7.118-1.988-1.987-4.362-2.96-7.118-2.96H12z"/>
</svg>
