<svg xmlns="http://www.w3.org/2000/svg" width="20" height="20" fill="none" viewBox="0 0 20 20">
  <path fill="#EF594F" fill-rule="evenodd" d="M7.5 8.125a.625.625 0 1 0 0 1.25h5a.625.625 0 1 0 0-1.25h-5Zm4.03 4.802a.625.625 0 0 0-1.185 0l-1.875 5a.625.625 0 1 0 1.185.396l.483-1.448h1.599l.483 1.448a.625.625 0 1 0 1.185-.396l-1.875-5Zm-.592 1.55.382 1.148h-.765l.383-1.149ZM15 12.5c.345 0 .625.28.625.625v5a.625.625 0 1 1-1.25 0v-5c0-.345.28-.625.625-.625Zm2.188 0c.345 0 .625.28.625.625v5a.625.625 0 1 1-1.25 0v-5c0-.345.28-.625.625-.625Z" clip-rule="evenodd"/>
  <path fill="#EF594F" fill-rule="evenodd" d="M3.75 4.375h2.813v-1.25c0-1.036.839-1.875 1.875-1.875h3.124c1.036 0 1.876.84 1.876 1.875v1.25h2.812a.625.625 0 1 1 0 1.25h-.625v5.938a.884.884 0 0 0-1.25 0V5.625h-8.75V17.5h1.686l-.043.13c-.127.382-.1.778.05 1.12H5.625c-.69 0-1.25-.56-1.25-1.25V5.625H3.75a.625.625 0 1 1 0-1.25Zm4.063-1.25c0-.345.28-.625.625-.625h3.124c.346 0 .626.28.626.625v1.25H7.811v-1.25Z" clip-rule="evenodd"/>
</svg>
