<svg xmlns="http://www.w3.org/2000/svg" width="32" height="32" viewBox="0 0 32 32">
  <path fill-rule="evenodd" d="M7.515 17.414a5 5 0 000 7.071c1.952 1.953 4.69 2.382 6.642.43L15.57 23.5a1 1 0 011.414 1.414L16 25.9A7 7 0 116.1 16l.986-.984A1 1 0 018.5 16.429l-.985.985zM15 8.514A1 1 0 0115 7.1l1-1a7 7 0 019.9 9.9l-1 1a1 1 0 01-1.415-1.414l1-1a5 5 0 00-7.07-7.071l-1 1a1 1 0 01-1.415 0zM6.707 7.293a1 1 0 011.414 0l16.586 16.586a1 1 0 01-1.414 1.414L6.707 8.707a1 1 0 010-1.414z" clip-rule="evenodd"/>
</svg>
