<svg xmlns="http://www.w3.org/2000/svg" width="32" height="32" viewBox="0 0 32 32">
  <path fill-rule="evenodd" d="M28 8.87V3a1 1 0 112 0v8.333a1 1 0 01-1 1h-8.454a1 1 0 110-2h5.992A12.024 12.024 0 0016 4.167C9.703 4.167 4.557 8.943 4.042 15c-.046.55-.49 1-1.042 1s-1.004-.45-.964-1C2.555 7.817 8.62 2.167 16 2.167c5.089 0 9.548 2.683 12 6.703zM29 16c.552 0 1.004.45.964 1C29.445 24.183 23.38 29.833 16 29.833A14.03 14.03 0 014 23.13V29a1 1 0 11-2 0v-8.333a1 1 0 011-1h8.454a1 1 0 110 2H5.463A12.027 12.027 0 0016 27.833c6.297 0 11.443-4.776 11.958-10.833.047-.55.49-1 1.042-1z" clip-rule="evenodd"/>
</svg>
