<svg xmlns="http://www.w3.org/2000/svg" width="32" height="32" viewBox="0 0 32 32">
  <path fill-rule="evenodd" d="M12.506 15a5.501 5.501 0 005.503-5.5c0-3.038-2.464-5.5-5.503-5.5a5.501 5.501 0 00-2.358 10.472c.712.338 1.51.528 2.358.528zm0 2a7.502 7.502 0 007.504-7.5c0-4.142-3.36-7.5-7.504-7.5a7.5 7.5 0 100 15z" clip-rule="evenodd"/>
  <path fill-rule="evenodd" d="M12.483 15.79a1 1 0 01-.768 1.188 10.476 10.476 0 00-5.882 3.562c-1.347 1.628-1.91 3.33-1.834 4.389a1 1 0 01-1.997.142c-.124-1.744.743-3.937 2.288-5.805a12.477 12.477 0 017.005-4.244 1 1 0 011.188.768zM21.761 17l-.28.959a1.1 1.1 0 01-.498.64l-1.18.694a1.1 1.1 0 01-.855.111l-.98-.275-.692 1.13.903.885c.211.206.33.49.33.785v1.142a1.1 1.1 0 01-.33.785l-.903.886.691 1.129.981-.275a1.1 1.1 0 01.856.111l1.18.694a1.1 1.1 0 01.498.64l.279.959h1.473l.297-1.164a1.1 1.1 0 01.582-.716l.92-.452c.27-.132.583-.148.865-.044l1.157.425.715-1.284-.927-.909a1.1 1.1 0 01-.33-.785V21.93a1.1 1.1 0 01.33-.785l.903-.886-.704-1.15-1.245.305a1.1 1.1 0 01-.915-.183l-.936-.688a1.1 1.1 0 01-.404-.578l-.28-.964H21.76zm-1.732-1.208A1.1 1.1 0 0121.085 15h2.852c.49 0 .92.323 1.056.792l.385 1.32.35.258 1.476-.361a1.1 1.1 0 011.201.494l1.422 2.323a1.1 1.1 0 01-.169 1.359l-1.144 1.122v.386l1.147 1.125a1.1 1.1 0 01.191 1.32l-1.422 2.556a1.101 1.101 0 01-1.342.498l-1.519-.559-.201.1L25 29.171a1.1 1.1 0 01-1.067.828h-2.849a1.1 1.1 0 01-1.056-.792l-.369-1.264-.541-.319-1.268.355a1.1 1.1 0 01-1.236-.485l-1.42-2.32a1.1 1.1 0 01.169-1.36l1.144-1.122v-.386l-1.144-1.122a1.1 1.1 0 01-.169-1.36l1.42-2.32a1.1 1.1 0 011.236-.485l1.268.355.541-.319.369-1.264z" clip-rule="evenodd"/>
  <path d="M24.512 22.5a2 2 0 11-4-.001 2 2 0 014 .001z"/>
</svg>
