<svg xmlns="http://www.w3.org/2000/svg" width="32" height="32" fill="currentColor" viewBox="0 0 32 32">
  <path fill-rule="evenodd" d="M9.004 12a1 1 0 001-1V5a1 1 0 00-1-1H3A1 1 0 002 5v6a1 1 0 001 1h6.004zM4 6v4h4.002V6H4.001zM23.01 8v4h4.003V8H23.01zm-1-2a1 1 0 00-1 1v6a1 1 0 001 1h6.003a1 1 0 001-1V7a1 1 0 00-1-1H22.01zM9.004 21v4h4.002v-4H9.003zm-1.001-2a1 1 0 00-1 1v6a1 1 0 001 1h6.003a1 1 0 001-1v-6a1 1 0 00-1-1H8.003z" clip-rule="evenodd"/>
  <path fill-rule="evenodd" d="M9.004 20l-3.002-9 1.898-.633 3.002 9L9.004 20zM13.024 19.348l8.833-7.606 1.306 1.516-8.833 7.605-1.306-1.515zM25.656 17.358a.5.5 0 01.71 0l3.28 3.291a.5.5 0 01-.002.708l-8.577 8.498a.5.5 0 01-.352.145h-3.207a.5.5 0 01-.5-.5v-3.206a.5.5 0 01.144-.352l8.504-8.584zm.358 2.481l-7.005 7.072V28h1.088l7.07-7.005-1.153-1.156z" clip-rule="evenodd"/>
</svg>
