<svg xmlns="http://www.w3.org/2000/svg" width="32" height="32" viewBox="0 0 32 32">
  <path fill-rule="evenodd" d="M29 15.373a.5.5 0 00-.5-.5h-25a.5.5 0 00-.5.5v.984a.5.5 0 00.5.5h25a.5.5 0 00.5-.5v-.984zm-25.72-.22c-.005.005-.013.002-.013-.005 0-.004.004-.008.008-.008.006 0 .01.008.005.013zm0 1.424c-.005-.005-.013-.002-.013.005 0 .004.004.008.008.008.006 0 .01-.009.005-.013zm25.44 0c-.005.005-.001.013.005.013.004 0 .008-.004.008-.008 0-.006-.008-.01-.013-.005zm0-1.424c.005.005.013.002.013-.005 0-.004-.003-.008-.008-.008-.006 0-.01.008-.005.013zM15.976 19.247a1 1 0 011.318 0l4 3.5a1 1 0 11-1.317 1.506l-2.342-2.05V29a1 1 0 11-2 0v-6.796l-2.341 2.049a1 1 0 01-1.318-1.506l4-3.5zM17.294 12.753a1 1 0 01-1.318 0l-4-3.5a1 1 0 011.317-1.506l2.342 2.05V3a1 1 0 112 0v6.796l2.341-2.049a1 1 0 011.318 1.506l-4 3.5z" clip-rule="evenodd"/>
</svg>
