<svg xmlns="http://www.w3.org/2000/svg" width="32" height="32" viewBox="0 0 32 32">
  <path fill-rule="evenodd" d="M4.95 5.956v14.342h22.1V5.956H4.95zM3.975 4A.976.976 0 003 4.978v16.298c0 .54.437.977.975.977h24.05a.976.976 0 00.975-.977V4.978A.976.976 0 0028.025 4H3.975z" clip-rule="evenodd"/>
  <path fill-rule="evenodd" d="M16 20.563c.552 0 1 .454 1 1.015v4.394h5.667c.552 0 1 .454 1 1.014s-.448 1.014-1 1.014H9.333c-.552 0-1-.454-1-1.014s.448-1.014 1-1.014H15v-4.395c0-.56.448-1.014 1-1.014z" clip-rule="evenodd"/>
</svg>
