<svg xmlns="http://www.w3.org/2000/svg" width="32" height="32" viewBox="0 0 32 32">
  <path fill-rule="evenodd" d="M2 6a1 1 0 011-1h24.5a1 1 0 011 1v7a1 1 0 11-2 0V7H4v14h8.577a1 1 0 110 2H3a1 1 0 01-1-1V6z" clip-rule="evenodd"/>
  <path fill-rule="evenodd" d="M21.5 10.5a1 1 0 010 1.414l-5.293 5.293a1 1 0 01-1.414 0L12.5 14.914 10.414 17A1 1 0 019 15.586l2.793-2.793a1 1 0 011.414 0l2.293 2.293 4.586-4.586a1 1 0 011.414 0zM18.518 21.78c2.542 3.115 4.5 3.461 5.818 3.091 1.387-.39 2.557-1.679 3.335-3.02-.962-1.31-1.886-2.065-2.72-2.463a3.8 3.8 0 00-2.617-.28c-1.473.358-2.835 1.5-3.816 2.673zm7.295-4.197c1.347.644 2.643 1.826 3.862 3.642a1 1 0 01.063 1.008c-.838 1.664-2.468 3.891-4.86 4.564-2.56.719-5.44-.456-8.427-4.412a1 1 0 01-.01-1.19c1.092-1.503 3.017-3.447 5.422-4.03a5.797 5.797 0 013.95.418z" clip-rule="evenodd"/>
  <path d="M24.5 21.75a1.25 1.25 0 11-2.5 0 1.25 1.25 0 012.5 0z"/>
</svg>
