<svg xmlns="http://www.w3.org/2000/svg" width="32" height="32" viewBox="0 0 32 32">
  <g clip-path="url(#clip0)">
    <path d="M9.999 16a1 1 0 011-1h10.004a1 1 0 110 2H10.999a1 1 0 01-1-1zM9.999 20a1 1 0 011-1h6.002a1 1 0 110 2H11a1 1 0 01-1-1z"/>
    <path d="M16.001 6a8.028 8.028 0 017.868 6.494l.259 1.346 1.35.244a5.504 5.504 0 014.501 5.899A5.501 5.501 0 0124.512 25H7.493a5.505 5.505 0 01-5.472-5.015 5.5 5.5 0 014.502-5.901l1.35-.244.26-1.346A8.026 8.026 0 0116 6zm0-2a10.03 10.03 0 00-9.833 8.116 7.505 7.505 0 00-6.139 8.045A7.501 7.501 0 007.49 27h17.023a7.506 7.506 0 007.459-6.84 7.5 7.5 0 00-6.139-8.044A10.023 10.023 0 0015.99 4h.011z"/>
  </g>
  <defs>
    <clipPath id="clip0">
      <path d="M0 0h32v32H0z"/>
    </clipPath>
  </defs>
</svg>
